Bungee_Layers-Regular.ufo
<glyph name="exclam" format="1">
  <advance width="424"/>
  <unicode hex="0021"/>
  <outline>
    <contour>
      <point x="289.0" y="262" type="line" smooth="yes"/>
      <point x="314.0" y="262"/>
      <point x="326.0" y="273"/>
      <point x="327.0" y="298" type="curve" smooth="yes"/>
      <point x="341.0" y="684" type="line" smooth="yes"/>
      <point x="342.0" y="709"/>
      <point x="332.0" y="720"/>
      <point x="307.0" y="720" type="curve" smooth="yes"/>
      <point x="116.0" y="720" type="line" smooth="yes"/>
      <point x="91.0" y="720"/>
      <point x="81.0" y="709"/>
      <point x="82.0" y="684" type="curve" smooth="yes"/>
      <point x="97.0" y="298" type="line" smooth="yes"/>
      <point x="98.0" y="273"/>
      <point x="109.0" y="262"/>
      <point x="134.0" y="262" type="curve" smooth="yes"/>
    </contour>
    <contour>
      <point x="304.0" y="0" type="line" smooth="yes"/>
      <point x="329.0" y="0"/>
      <point x="340.0" y="11"/>
      <point x="340.0" y="36" type="curve" smooth="yes"/>
      <point x="340.0" y="167" type="line" smooth="yes"/>
      <point x="340.0" y="193"/>
      <point x="329.0" y="203"/>
      <point x="304.0" y="203" type="curve" smooth="yes"/>
      <point x="120.0" y="203" type="line" smooth="yes"/>
      <point x="95.0" y="203"/>
      <point x="84.0" y="193"/>
      <point x="84.0" y="167" type="curve"/>
      <point x="84.0" y="36" type="line"/>
      <point x="84.0" y="11"/>
      <point x="95.0" y="0"/>
      <point x="120.0" y="0" type="curve" smooth="yes"/>
    </contour>
  </outline>
</glyph>
<glyph name="numbersign" format="1">
  <advance width="750"/>
  <unicode hex="0023"/>
  <outline>
    <contour>
      <point x="425.0" y="314" type="line"/>
      <point x="439.0" y="411" type="line"/>
      <point x="326.0" y="411" type="line"/>
      <point x="312.0" y="314" type="line"/>
    </contour>
    <contour>
      <point x="272.0" y="36" type="curve" smooth="yes"/>
      <point x="286.0" y="135" type="line"/>
      <point x="399.0" y="135" type="line"/>
      <point x="385.0" y="36" type="line" smooth="yes"/>
      <point x="382.0" y="11"/>
      <point x="396.0" y="0"/>
      <point x="421.0" y="0" type="curve" smooth="yes"/>
      <point x="526.0" y="0" type="line" smooth="yes"/>
      <point x="551.0" y="0"/>
      <point x="559.0" y="11"/>
      <point x="562.0" y="36" type="curve" smooth="yes"/>
      <point x="576.0" y="135" type="line"/>
      <point x="643.0" y="135" type="line" smooth="yes"/>
      <point x="668.0" y="135"/>
      <point x="679.0" y="145"/>
      <point x="679.0" y="171" type="curve" smooth="yes"/>
      <point x="679.0" y="278" type="line" smooth="yes"/>
      <point x="679.0" y="304"/>
      <point x="668.0" y="314"/>
      <point x="643.0" y="314" type="curve" smooth="yes"/>
      <point x="602.0" y="314" type="line"/>
      <point x="616.0" y="411" type="line"/>
      <point x="679.0" y="411" type="line" smooth="yes"/>
      <point x="704.0" y="411"/>
      <point x="715.0" y="421"/>
      <point x="715.0" y="447" type="curve" smooth="yes"/>
      <point x="715.0" y="554" type="line" smooth="yes"/>
      <point x="715.0" y="580"/>
      <point x="704.0" y="590"/>
      <point x="679.0" y="590" type="curve" smooth="yes"/>
      <point x="642.0" y="590" type="line"/>
      <point x="655.0" y="684" type="line" smooth="yes"/>
      <point x="658.0" y="709"/>
      <point x="644.0" y="720"/>
      <point x="619.0" y="720" type="curve" smooth="yes"/>
      <point x="514.0" y="720" type="line" smooth="yes"/>
      <point x="489.0" y="720"/>
      <point x="481.0" y="709"/>
      <point x="478.0" y="684" type="curve" smooth="yes"/>
      <point x="465.0" y="590" type="line"/>
      <point x="352.0" y="590" type="line"/>
      <point x="365.0" y="684" type="line" smooth="yes"/>
      <point x="368.0" y="709"/>
      <point x="354.0" y="720"/>
      <point x="329.0" y="720" type="curve" smooth="yes"/>
      <point x="224.0" y="720" type="line" smooth="yes"/>
      <point x="199.0" y="720"/>
      <point x="191.0" y="709"/>
      <point x="188.0" y="684" type="curve" smooth="yes"/>
      <point x="175.0" y="590" type="line"/>
      <point x="107.0" y="590" type="line" smooth="yes"/>
      <point x="82.0" y="590"/>
      <point x="71.0" y="579"/>
      <point x="71.0" y="554" type="curve" smooth="yes"/>
      <point x="71.0" y="447" type="line" smooth="yes"/>
      <point x="71.0" y="421"/>
      <point x="82.0" y="411"/>
      <point x="107.0" y="411" type="curve"/>
      <point x="149.0" y="411" type="line"/>
      <point x="135.0" y="314" type="line"/>
      <point x="71.0" y="314" type="line" smooth="yes"/>
      <point x="46.0" y="314"/>
      <point x="35.0" y="303"/>
      <point x="35.0" y="278" type="curve" smooth="yes"/>
      <point x="35.0" y="171" type="line" smooth="yes"/>
      <point x="35.0" y="145"/>
      <point x="46.0" y="135"/>
      <point x="71.0" y="135" type="curve"/>
      <point x="109.0" y="135" type="line"/>
      <point x="95.0" y="36" type="line"/>
      <point x="92.0" y="11"/>
      <point x="106.0" y="0"/>
      <point x="131.0" y="0" type="curve" smooth="yes"/>
      <point x="236.0" y="0" type="line" smooth="yes"/>
      <point x="261.0" y="0"/>
      <point x="269.0" y="11"/>
    </contour>
  </outline>
</glyph>
<glyph name="percent" format="2">
  <advance width="1031"/>
  <unicode hex="0025"/>
  <outline>
    <contour>
      <point x="398.0" y="416" type="curve"/>
      <point x="398.0" y="606" type="line" smooth="yes"/>
      <point x="398.0" y="677"/>
      <point x="364.0" y="725"/>
      <point x="221.0" y="725" type="curve" smooth="yes"/>
      <point x="78.0" y="725"/>
      <point x="42.0" y="677"/>
      <point x="42.0" y="606" type="curve" smooth="yes"/>
      <point x="42.0" y="416" type="line" smooth="yes"/>
      <point x="42.0" y="345"/>
      <point x="78.0" y="297"/>
      <point x="221.0" y="297" type="curve" smooth="yes"/>
      <point x="364.0" y="297"/>
      <point x="398.0" y="345"/>
    </contour>
    <contour>
      <point x="352.0" y="36" type="line" smooth="yes"/>
      <point x="346.0" y="12"/>
      <point x="358.0" y="0"/>
      <point x="383.0" y="0" type="curve" smooth="yes"/>
      <point x="488.0" y="0" type="line" smooth="yes"/>
      <point x="513.0" y="0"/>
      <point x="523.0" y="12"/>
      <point x="529.0" y="36" type="curve" smooth="yes"/>
      <point x="689.0" y="684" type="line" smooth="yes"/>
      <point x="695.0" y="708"/>
      <point x="683.0" y="720"/>
      <point x="658.0" y="720" type="curve" smooth="yes"/>
      <point x="553.0" y="720" type="line" smooth="yes"/>
      <point x="528.0" y="720"/>
      <point x="518.0" y="708"/>
      <point x="512.0" y="684" type="curve" smooth="yes"/>
    </contour>
    <contour>
      <point x="187.0" y="447" type="curve"/>
      <point x="187.0" y="575" type="line" smooth="yes"/>
      <point x="187.0" y="583"/>
      <point x="192.0" y="592"/>
      <point x="221.0" y="592" type="curve" smooth="yes"/>
      <point x="249.0" y="592"/>
      <point x="254.0" y="583"/>
      <point x="254.0" y="575" type="curve" smooth="yes"/>
      <point x="254.0" y="447" type="line" smooth="yes"/>
      <point x="254.0" y="437"/>
      <point x="249.0" y="429"/>
      <point x="221.0" y="429" type="curve" smooth="yes"/>
      <point x="192.0" y="429"/>
      <point x="187.0" y="437"/>
    </contour>
    <contour>
      <point x="996.0" y="113" type="curve"/>
      <point x="996.0" y="303" type="line" smooth="yes"/>
      <point x="996.0" y="374"/>
      <point x="962.0" y="422"/>
      <point x="819.0" y="422" type="curve" smooth="yes"/>
      <point x="676.0" y="422"/>
      <point x="640.0" y="374"/>
      <point x="640.0" y="303" type="curve" smooth="yes"/>
      <point x="640.0" y="113" type="line" smooth="yes"/>
      <point x="640.0" y="42"/>
      <point x="676.0" y="-6"/>
      <point x="819.0" y="-6" type="curve" smooth="yes"/>
      <point x="962.0" y="-6"/>
      <point x="996.0" y="42"/>
    </contour>
    <contour>
      <point x="785.0" y="144" type="curve"/>
      <point x="785.0" y="272" type="line" smooth="yes"/>
      <point x="785.0" y="280"/>
      <point x="790.0" y="289"/>
      <point x="819.0" y="289" type="curve" smooth="yes"/>
      <point x="847.0" y="289"/>
      <point x="852.0" y="280"/>
      <point x="852.0" y="272" type="curve" smooth="yes"/>
      <point x="852.0" y="144" type="line" smooth="yes"/>
      <point x="852.0" y="134"/>
      <point x="847.0" y="126"/>
      <point x="819.0" y="126" type="curve" smooth="yes"/>
      <point x="790.0" y="126"/>
      <point x="785.0" y="134"/>
    </contour>
  </outline>
</glyph>
<glyph name="ampersand" format="2">
  <advance width="766"/>
  <unicode hex="0026"/>
  <outline>
    <contour>
      <point x="296.0" y="187" type="line" smooth="yes"/>
      <point x="264.0" y="187"/>
      <point x="258.0" y="201"/>
      <point x="258.0" y="217" type="curve" smooth="yes"/>
      <point x="258.0" y="248" type="line" smooth="yes"/>
      <point x="258.0" y="264"/>
      <point x="264.0" y="277"/>
      <point x="296.0" y="277" type="curve" smooth="yes"/>
      <point x="376.0" y="277" type="line" smooth="yes"/>
      <point x="401.0" y="277"/>
      <point x="412.0" y="288"/>
      <point x="412.0" y="313" type="curve" smooth="yes"/>
      <point x="412.0" y="416" type="line" smooth="yes"/>
      <point x="412.0" y="441"/>
      <point x="401.0" y="452"/>
      <point x="376.0" y="452" type="curve" smooth="yes"/>
      <point x="361.0" y="452" type="line" smooth="yes"/>
      <point x="329.0" y="452"/>
      <point x="323.0" y="466"/>
      <point x="323.0" y="482" type="curve" smooth="yes"/>
      <point x="323.0" y="503" type="line" smooth="yes"/>
      <point x="323.0" y="519"/>
      <point x="329.0" y="533"/>
      <point x="361.0" y="533" type="curve" smooth="yes"/>
      <point x="507.0" y="533" type="line" smooth="yes"/>
      <point x="532.0" y="533"/>
      <point x="543.0" y="544"/>
      <point x="543.0" y="569" type="curve" smooth="yes"/>
      <point x="543.0" y="684" type="line" smooth="yes"/>
      <point x="543.0" y="709"/>
      <point x="532.0" y="720"/>
      <point x="507.0" y="720" type="curve" smooth="yes"/>
      <point x="296.0" y="720" type="line" smooth="yes"/>
      <point x="160.0" y="720"/>
      <point x="104.0" y="655"/>
      <point x="104.0" y="567" type="curve" smooth="yes"/>
      <point x="104.0" y="519" type="line" smooth="yes"/>
      <point x="104.0" y="468"/>
      <point x="119.0" y="430"/>
      <point x="163.0" y="411" type="curve"/>
      <point x="91.0" y="404"/>
      <point x="37.0" y="350"/>
      <point x="37.0" y="256" type="curve" smooth="yes"/>
      <point x="37.0" y="176" type="line" smooth="yes"/>
      <point x="37.0" y="69"/>
      <point x="103.0" y="0"/>
      <point x="226.0" y="0" type="curve" smooth="yes"/>
      <point x="504.0" y="0" type="line" smooth="yes"/>
      <point x="620.0" y="0"/>
      <point x="683.0" y="69"/>
      <point x="683.0" y="176" type="curve" smooth="yes"/>
      <point x="683.0" y="221" type="line"/>
      <point x="706.0" y="221" type="line" smooth="yes"/>
      <point x="731.0" y="221"/>
      <point x="742.0" y="232"/>
      <point x="742.0" y="257" type="curve" smooth="yes"/>
      <point x="742.0" y="365" type="line" smooth="yes"/>
      <point x="742.0" y="391"/>
      <point x="731.0" y="401"/>
      <point x="706.0" y="401" type="curve" smooth="yes"/>
      <point x="512.0" y="401" type="line" smooth="yes"/>
      <point x="487.0" y="401"/>
      <point x="476.0" y="390"/>
      <point x="476.0" y="365" type="curve" smooth="yes"/>
      <point x="476.0" y="227" type="line" smooth="yes"/>
      <point x="476.0" y="200"/>
      <point x="467.0" y="187"/>
      <point x="438.0" y="187" type="curve" smooth="yes"/>
    </contour>
  </outline>
</glyph>
<glyph name="plus" format="2">
  <advance width="734"/>
  <unicode hex="002B"/>
  <outline>
    <contour>
      <point x="465.0" y="99" type="curve" smooth="yes"/>
      <point x="465.0" y="267" type="line"/>
      <point x="628.0" y="267" type="line" smooth="yes"/>
      <point x="653.0" y="267"/>
      <point x="664.0" y="277"/>
      <point x="664.0" y="303" type="curve" smooth="yes"/>
      <point x="664.0" y="417" type="line" smooth="yes"/>
      <point x="664.0" y="443"/>
      <point x="653.0" y="453"/>
      <point x="628.0" y="453" type="curve" smooth="yes"/>
      <point x="465.0" y="453" type="line"/>
      <point x="465.0" y="621" type="line" smooth="yes"/>
      <point x="465.0" y="646"/>
      <point x="454.0" y="657"/>
      <point x="429.0" y="657" type="curve" smooth="yes"/>
      <point x="305.0" y="657" type="line" smooth="yes"/>
      <point x="279.0" y="657"/>
      <point x="269.0" y="646"/>
      <point x="269.0" y="621" type="curve"/>
      <point x="269.0" y="453" type="line"/>
      <point x="106.0" y="453" type="line" smooth="yes"/>
      <point x="81.0" y="453"/>
      <point x="70.0" y="442"/>
      <point x="70.0" y="417" type="curve" smooth="yes"/>
      <point x="70.0" y="303" type="line" smooth="yes"/>
      <point x="70.0" y="277"/>
      <point x="81.0" y="267"/>
      <point x="106.0" y="267" type="curve"/>
      <point x="269.0" y="267" type="line"/>
      <point x="269.0" y="99" type="line" smooth="yes"/>
      <point x="269.0" y="74"/>
      <point x="279.0" y="63"/>
      <point x="305.0" y="63" type="curve" smooth="yes"/>
      <point x="429.0" y="63" type="line" smooth="yes"/>
      <point x="455.0" y="63"/>
      <point x="465.0" y="74"/>
    </contour>
  </outline>
</glyph>
<glyph name="comma" format="2">
  <advance width="384"/>
  <unicode hex="002C"/>
  <outline>
    <contour>
      <point x="181.0" y="-100" type="line" smooth="yes"/>
      <point x="271.0" y="-100"/>
      <point x="329.0" y="-51"/>
      <point x="329.0" y="51" type="curve" smooth="yes"/>
      <point x="329.0" y="239" type="line" smooth="yes"/>
      <point x="329.0" y="264"/>
      <point x="318.0" y="275"/>
      <point x="293.0" y="275" type="curve" smooth="yes"/>
      <point x="91.0" y="275" type="line" smooth="yes"/>
      <point x="66.0" y="275"/>
      <point x="55.0" y="264"/>
      <point x="55.0" y="239" type="curve" smooth="yes"/>
      <point x="55.0" y="91" type="line" smooth="yes"/>
      <point x="55.0" y="66"/>
      <point x="66.0" y="55"/>
      <point x="91.0" y="55" type="curve" smooth="yes"/>
      <point x="200.0" y="55" type="line"/>
      <point x="200.0" y="40" type="line" smooth="yes"/>
      <point x="200.0" y="22"/>
      <point x="191.0" y="12"/>
      <point x="173.0" y="12" type="curve" smooth="yes"/>
      <point x="104.0" y="12" type="line" smooth="yes"/>
      <point x="79.0" y="12"/>
      <point x="68.0" y="1"/>
      <point x="68.0" y="-24" type="curve" smooth="yes"/>
      <point x="68.0" y="-64" type="line" smooth="yes"/>
      <point x="68.0" y="-90"/>
      <point x="79.0" y="-100"/>
      <point x="104.0" y="-100" type="curve" smooth="yes"/>
    </contour>
  </outline>
</glyph>
<glyph name="period" format="2">
  <advance width="384"/>
  <unicode hex="002E"/>
  <outline>
    <contour>
      <point x="293.0" y="0" type="line" smooth="yes"/>
      <point x="318.0" y="0"/>
      <point x="329.0" y="11"/>
      <point x="329.0" y="36" type="curve" smooth="yes"/>
      <point x="329.0" y="239" type="line" smooth="yes"/>
      <point x="329.0" y="265"/>
      <point x="318.0" y="275"/>
      <point x="293.0" y="275" type="curve" smooth="yes"/>
      <point x="91.0" y="275" type="line" smooth="yes"/>
      <point x="66.0" y="275"/>
      <point x="55.0" y="265"/>
      <point x="55.0" y="239" type="curve"/>
      <point x="55.0" y="36" type="line"/>
      <point x="55.0" y="11"/>
      <point x="66.0" y="0"/>
      <point x="91.0" y="0" type="curve" smooth="yes"/>
    </contour>
  </outline>
</glyph>
<glyph name="two" format="1">
  <advance width="639"/>
  <unicode hex="0032"/>
  <outline>
    <contour>
      <point x="552.0" y="0" type="line" smooth="yes"/>
      <point x="577.0" y="0"/>
      <point x="588.0" y="11"/>
      <point x="588.0" y="36" type="curve" smooth="yes"/>
      <point x="588.0" y="153" type="line" smooth="yes"/>
      <point x="588.0" y="178"/>
      <point x="577.0" y="189"/>
      <point x="552.0" y="189" type="curve"/>
      <point x="267.0" y="189" type="line"/>
      <point x="267.0" y="210" type="line" smooth="yes"/>
      <point x="267.0" y="232"/>
      <point x="273.0" y="234"/>
      <point x="293.0" y="240" type="curve" smooth="yes"/>
      <point x="429.0" y="283" type="line" smooth="yes"/>
      <point x="526.0" y="313"/>
      <point x="585.0" y="359"/>
      <point x="585.0" y="460" type="curve" smooth="yes"/>
      <point x="585.0" y="554" type="line" smooth="yes"/>
      <point x="585.0" y="662"/>
      <point x="523.0" y="720"/>
      <point x="409.0" y="720" type="curve" smooth="yes"/>
      <point x="114.0" y="720" type="line" smooth="yes"/>
      <point x="89.0" y="720"/>
      <point x="78.0" y="709"/>
      <point x="78.0" y="684" type="curve" smooth="yes"/>
      <point x="78.0" y="567" type="line" smooth="yes"/>
      <point x="78.0" y="542"/>
      <point x="89.0" y="531"/>
      <point x="114.0" y="531" type="curve" smooth="yes"/>
      <point x="331.0" y="531" type="line" smooth="yes"/>
      <point x="351.0" y="531"/>
      <point x="358.0" y="525"/>
      <point x="358.0" y="505" type="curve" smooth="yes"/>
      <point x="358.0" y="483"/>
      <point x="352.0" y="475"/>
      <point x="331.0" y="469" type="curve" smooth="yes"/>
      <point x="197.0" y="427" type="line" smooth="yes"/>
      <point x="105.0" y="399"/>
      <point x="40.0" y="363"/>
      <point x="40.0" y="208" type="curve" smooth="yes"/>
      <point x="40.0" y="36" type="line" smooth="yes"/>
      <point x="40.0" y="11"/>
      <point x="51.0" y="0"/>
      <point x="76.0" y="0" type="curve" smooth="yes"/>
    </contour>
  </outline>
</glyph>
<glyph name="four" format="1">
  <advance width="709"/>
  <unicode hex="0034"/>
  <outline>
    <contour>
      <point x="414.0" y="167" type="line"/>
      <point x="414.0" y="36" type="line" smooth="yes"/>
      <point x="414.0" y="11"/>
      <point x="425.0" y="0"/>
      <point x="450.0" y="0" type="curve" smooth="yes"/>
      <point x="604.0" y="0" type="line" smooth="yes"/>
      <point x="629.0" y="0"/>
      <point x="640.0" y="11"/>
      <point x="640.0" y="36" type="curve" smooth="yes"/>
      <point x="640.0" y="684" type="line" smooth="yes"/>
      <point x="640.0" y="709"/>
      <point x="629.0" y="720"/>
      <point x="604.0" y="720" type="curve" smooth="yes"/>
      <point x="450.0" y="720" type="line" smooth="yes"/>
      <point x="425.0" y="720"/>
      <point x="414.0" y="709"/>
      <point x="414.0" y="684" type="curve" smooth="yes"/>
      <point x="414.0" y="376" type="line"/>
      <point x="321.0" y="376" type="line" smooth="yes"/>
      <point x="302.0" y="376"/>
      <point x="290.0" y="389"/>
      <point x="290.0" y="410" type="curve" smooth="yes"/>
      <point x="290.0" y="684" type="line" smooth="yes"/>
      <point x="290.0" y="709"/>
      <point x="279.0" y="720"/>
      <point x="254.0" y="720" type="curve" smooth="yes"/>
      <point x="99.0" y="720" type="line" smooth="yes"/>
      <point x="74.0" y="720"/>
      <point x="63.0" y="709"/>
      <point x="63.0" y="684" type="curve" smooth="yes"/>
      <point x="63.0" y="333" type="line" smooth="yes"/>
      <point x="63.0" y="219"/>
      <point x="115.0" y="167"/>
      <point x="245.0" y="167" type="curve" smooth="yes"/>
    </contour>
  </outline>
</glyph>
<glyph name="five" format="1">
  <advance width="647"/>
  <unicode hex="0035"/>
  <outline>
    <contour>
      <point x="409.0" y="0" type="line" smooth="yes"/>
      <point x="529.0" y="0"/>
      <point x="604.0" y="64"/>
      <point x="604.0" y="166" type="curve" smooth="yes"/>
      <point x="604.0" y="305" type="line" smooth="yes"/>
      <point x="604.0" y="411"/>
      <point x="537.0" y="464"/>
      <point x="429.0" y="464" type="curve" smooth="yes"/>
      <point x="292.0" y="464" type="line"/>
      <point x="292.0" y="529" type="line"/>
      <point x="532.0" y="529" type="line" smooth="yes"/>
      <point x="557.0" y="529"/>
      <point x="568.0" y="540"/>
      <point x="568.0" y="565" type="curve" smooth="yes"/>
      <point x="568.0" y="684" type="line" smooth="yes"/>
      <point x="568.0" y="709"/>
      <point x="557.0" y="720"/>
      <point x="532.0" y="720" type="curve" smooth="yes"/>
      <point x="101.0" y="720" type="line" smooth="yes"/>
      <point x="76.0" y="720"/>
      <point x="65.0" y="709"/>
      <point x="65.0" y="684" type="curve" smooth="yes"/>
      <point x="65.0" y="310" type="line" smooth="yes"/>
      <point x="65.0" y="285"/>
      <point x="76.0" y="274"/>
      <point x="101.0" y="274" type="curve" smooth="yes"/>
      <point x="349.0" y="274" type="line" smooth="yes"/>
      <point x="365.0" y="274"/>
      <point x="376.0" y="267"/>
      <point x="376.0" y="251" type="curve" smooth="yes"/>
      <point x="376.0" y="212" type="line" smooth="yes"/>
      <point x="376.0" y="196"/>
      <point x="365.0" y="189"/>
      <point x="349.0" y="189" type="curve" smooth="yes"/>
      <point x="91.0" y="189" type="line" smooth="yes"/>
      <point x="66.0" y="189"/>
      <point x="55.0" y="178"/>
      <point x="55.0" y="153" type="curve" smooth="yes"/>
      <point x="55.0" y="36" type="line" smooth="yes"/>
      <point x="55.0" y="11"/>
      <point x="66.0" y="0"/>
      <point x="91.0" y="0" type="curve" smooth="yes"/>
    </contour>
  </outline>
</glyph>
<glyph name="six" format="1">
  <advance width="693"/>
  <unicode hex="0036"/>
  <outline>
    <contour>
      <point x="358.0" y="-15" type="curve" smooth="yes"/>
      <point x="588.0" y="-15"/>
      <point x="646.0" y="65"/>
      <point x="646.0" y="187" type="curve" smooth="yes"/>
      <point x="646.0" y="283" type="line" smooth="yes"/>
      <point x="646.0" y="402"/>
      <point x="592.0" y="463"/>
      <point x="411.0" y="463" type="curve" smooth="yes"/>
      <point x="358.0" y="463"/>
      <point x="316.0" y="458"/>
      <point x="284.0" y="448" type="curve"/>
      <point x="284.0" y="470" type="line" smooth="yes"/>
      <point x="284.0" y="519"/>
      <point x="298.0" y="530"/>
      <point x="347.0" y="530" type="curve" smooth="yes"/>
      <point x="534.0" y="530" type="line" smooth="yes"/>
      <point x="559.0" y="530"/>
      <point x="570.0" y="541"/>
      <point x="570.0" y="566" type="curve" smooth="yes"/>
      <point x="570.0" y="684" type="line" smooth="yes"/>
      <point x="570.0" y="709"/>
      <point x="560.0" y="720"/>
      <point x="534.0" y="720" type="curve" smooth="yes"/>
      <point x="304.0" y="720" type="line" smooth="yes"/>
      <point x="115.0" y="720"/>
      <point x="58.0" y="637"/>
      <point x="58.0" y="515" type="curve" smooth="yes"/>
      <point x="58.0" y="187" type="line" smooth="yes"/>
      <point x="58.0" y="65"/>
      <point x="112.0" y="-15"/>
    </contour>
    <contour>
      <point x="284.0" y="262" type="line" smooth="yes"/>
      <point x="284.0" y="282"/>
      <point x="293.0" y="298"/>
      <point x="351.0" y="298" type="curve" smooth="yes"/>
      <point x="411.0" y="298"/>
      <point x="420.0" y="282"/>
      <point x="420.0" y="262" type="curve" smooth="yes"/>
      <point x="420.0" y="203" type="line" smooth="yes"/>
      <point x="420.0" y="182"/>
      <point x="411.0" y="166"/>
      <point x="351.0" y="166" type="curve" smooth="yes"/>
      <point x="293.0" y="166"/>
      <point x="284.0" y="182"/>
      <point x="284.0" y="203" type="curve" smooth="yes"/>
    </contour>
  </outline>
</glyph>
<glyph name="seven" format="1">
  <advance width="627"/>
  <unicode hex="0037"/>
  <outline>
    <contour>
      <point x="539.0" y="720" type="curve"/>
      <point x="74.0" y="720" type="line" smooth="yes"/>
      <point x="49.0" y="720"/>
      <point x="38.0" y="709"/>
      <point x="38.0" y="684" type="curve" smooth="yes"/>
      <point x="38.0" y="563" type="line" smooth="yes"/>
      <point x="38.0" y="538"/>
      <point x="49.0" y="527"/>
      <point x="74.0" y="527" type="curve" smooth="yes"/>
      <point x="348.0" y="527" type="line"/>
      <point x="348.0" y="437" type="line"/>
      <point x="267.0" y="415" type="line" smooth="yes"/>
      <point x="160.0" y="383"/>
      <point x="111.0" y="344"/>
      <point x="111.0" y="217" type="curve" smooth="yes"/>
      <point x="111.0" y="36" type="line" smooth="yes"/>
      <point x="111.0" y="11"/>
      <point x="122.0" y="0"/>
      <point x="147.0" y="0" type="curve" smooth="yes"/>
      <point x="309.0" y="0" type="line" smooth="yes"/>
      <point x="334.0" y="0"/>
      <point x="345.0" y="11"/>
      <point x="345.0" y="36" type="curve" smooth="yes"/>
      <point x="345.0" y="211" type="line"/>
      <point x="419.0" y="233" type="line" smooth="yes"/>
      <point x="526.0" y="265"/>
      <point x="575.0" y="304"/>
      <point x="575.0" y="431" type="curve" smooth="yes"/>
      <point x="575.0" y="684" type="line" smooth="yes"/>
      <point x="575.0" y="709"/>
      <point x="564.0" y="720"/>
    </contour>
  </outline>
</glyph>
<glyph name="eight" format="2">
  <advance width="711"/>
  <unicode hex="0038"/>
  <outline>
    <contour>
      <point x="664.0" y="256" type="line" smooth="yes"/>
      <point x="664.0" y="350"/>
      <point x="618.0" y="399"/>
      <point x="558.0" y="411" type="curve"/>
      <point x="602.0" y="430"/>
      <point x="617.0" y="468"/>
      <point x="617.0" y="519" type="curve" smooth="yes"/>
      <point x="617.0" y="577" type="line" smooth="yes"/>
      <point x="617.0" y="675"/>
      <point x="558.0" y="735"/>
      <point x="357.0" y="735" type="curve" smooth="yes"/>
      <point x="156.0" y="735"/>
      <point x="94.0" y="675"/>
      <point x="94.0" y="577" type="curve" smooth="yes"/>
      <point x="94.0" y="519" type="line" smooth="yes"/>
      <point x="94.0" y="468"/>
      <point x="109.0" y="430"/>
      <point x="153.0" y="411" type="curve"/>
      <point x="93.0" y="399"/>
      <point x="47.0" y="350"/>
      <point x="47.0" y="256" type="curve" smooth="yes"/>
      <point x="47.0" y="159" type="line" smooth="yes"/>
      <point x="47.0" y="55"/>
      <point x="115.0" y="-15"/>
      <point x="356.0" y="-15" type="curve" smooth="yes"/>
      <point x="597.0" y="-15"/>
      <point x="664.0" y="55"/>
      <point x="664.0" y="159" type="curve" smooth="yes"/>
    </contour>
    <contour>
      <point x="293.0" y="480" type="curve"/>
      <point x="293.0" y="524" type="line" smooth="yes"/>
      <point x="293.0" y="544"/>
      <point x="300.0" y="560"/>
      <point x="356.0" y="560" type="curve" smooth="yes"/>
      <point x="413.0" y="560"/>
      <point x="418.0" y="544"/>
      <point x="418.0" y="524" type="curve" smooth="yes"/>
      <point x="418.0" y="480" type="line" smooth="yes"/>
      <point x="418.0" y="459"/>
      <point x="413.0" y="443"/>
      <point x="356.0" y="443" type="curve" smooth="yes"/>
      <point x="300.0" y="443"/>
      <point x="293.0" y="459"/>
    </contour>
    <contour>
      <point x="268.0" y="197" type="curve" smooth="yes"/>
      <point x="268.0" y="250" type="line" smooth="yes"/>
      <point x="268.0" y="270"/>
      <point x="284.0" y="286"/>
      <point x="356.0" y="286" type="curve" smooth="yes"/>
      <point x="429.0" y="286"/>
      <point x="443.0" y="270"/>
      <point x="443.0" y="250" type="curve" smooth="yes"/>
      <point x="443.0" y="197" type="line" smooth="yes"/>
      <point x="443.0" y="176"/>
      <point x="429.0" y="160"/>
      <point x="356.0" y="160" type="curve" smooth="yes"/>
      <point x="284.0" y="160"/>
      <point x="268.0" y="176"/>
    </contour>
  </outline>
</glyph>
<glyph name="nine" format="2">
  <advance width="693"/>
  <unicode hex="0039"/>
  <outline>
    <contour>
      <point x="389.0" y="0" type="line" smooth="yes"/>
      <point x="578.0" y="0"/>
      <point x="635.0" y="83"/>
      <point x="635.0" y="205" type="curve" smooth="yes"/>
      <point x="635.0" y="533" type="line" smooth="yes"/>
      <point x="635.0" y="655"/>
      <point x="581.0" y="735"/>
      <point x="335.0" y="735" type="curve" smooth="yes"/>
      <point x="105.0" y="735"/>
      <point x="47.0" y="655"/>
      <point x="47.0" y="533" type="curve" smooth="yes"/>
      <point x="47.0" y="437" type="line" smooth="yes"/>
      <point x="47.0" y="318"/>
      <point x="101.0" y="257"/>
      <point x="282.0" y="257" type="curve" smooth="yes"/>
      <point x="335.0" y="257"/>
      <point x="377.0" y="262"/>
      <point x="409.0" y="272" type="curve"/>
      <point x="409.0" y="250" type="line" smooth="yes"/>
      <point x="409.0" y="201"/>
      <point x="395.0" y="190"/>
      <point x="346.0" y="190" type="curve" smooth="yes"/>
      <point x="159.0" y="190" type="line" smooth="yes"/>
      <point x="134.0" y="190"/>
      <point x="123.0" y="179"/>
      <point x="123.0" y="154" type="curve" smooth="yes"/>
      <point x="123.0" y="36" type="line" smooth="yes"/>
      <point x="123.0" y="11"/>
      <point x="133.0" y="0"/>
      <point x="159.0" y="0" type="curve" smooth="yes"/>
    </contour>
    <contour>
      <point x="409.0" y="458" type="line" smooth="yes"/>
      <point x="409.0" y="438"/>
      <point x="400.0" y="422"/>
      <point x="342.0" y="422" type="curve" smooth="yes"/>
      <point x="282.0" y="422"/>
      <point x="273.0" y="438"/>
      <point x="273.0" y="458" type="curve" smooth="yes"/>
      <point x="273.0" y="517" type="line" smooth="yes"/>
      <point x="273.0" y="538"/>
      <point x="282.0" y="554"/>
      <point x="342.0" y="554" type="curve" smooth="yes"/>
      <point x="400.0" y="554"/>
      <point x="409.0" y="538"/>
      <point x="409.0" y="517" type="curve" smooth="yes"/>
    </contour>
  </outline>
</glyph>
<glyph name="less" format="1">
  <advance width="714"/>
  <unicode hex="003C"/>
  <outline>
    <contour>
      <point x="588.0" y="59" type="line" smooth="yes"/>
      <point x="613.0" y="54"/>
      <point x="624.0" y="64"/>
      <point x="624.0" y="90" type="curve" smooth="yes"/>
      <point x="624.0" y="222" type="line" smooth="yes"/>
      <point x="624.0" y="248"/>
      <point x="613.0" y="259"/>
      <point x="588.0" y="263" type="curve" smooth="yes"/>
      <point x="301.0" y="340" type="line" smooth="yes"/>
      <point x="287.0" y="343"/>
      <point x="284.0" y="347"/>
      <point x="284.0" y="359" type="curve" smooth="yes"/>
      <point x="284.0" y="371"/>
      <point x="287.0" y="375"/>
      <point x="301.0" y="378" type="curve" smooth="yes"/>
      <point x="588.0" y="455" type="line" smooth="yes"/>
      <point x="613.0" y="459"/>
      <point x="624.0" y="470"/>
      <point x="624.0" y="496" type="curve" smooth="yes"/>
      <point x="624.0" y="628" type="line" smooth="yes"/>
      <point x="624.0" y="654"/>
      <point x="613.0" y="664"/>
      <point x="588.0" y="659" type="curve" smooth="yes"/>
      <point x="207.0" y="550" type="line" smooth="yes"/>
      <point x="124.0" y="526"/>
      <point x="80.0" y="494"/>
      <point x="80.0" y="395" type="curve" smooth="yes"/>
      <point x="80.0" y="323" type="line" smooth="yes"/>
      <point x="80.0" y="224"/>
      <point x="124.0" y="192"/>
      <point x="207.0" y="168" type="curve"/>
    </contour>
  </outline>
</glyph>
<glyph name="equal" format="1">
  <advance width="734"/>
  <unicode hex="003D"/>
  <outline>
    <contour>
      <point x="106.0" y="417" type="curve"/>
      <point x="628.0" y="417" type="line" smooth="yes"/>
      <point x="653.0" y="417"/>
      <point x="664.0" y="427"/>
      <point x="664.0" y="453" type="curve" smooth="yes"/>
      <point x="664.0" y="567" type="line" smooth="yes"/>
      <point x="664.0" y="593"/>
      <point x="653.0" y="603"/>
      <point x="628.0" y="603" type="curve" smooth="yes"/>
      <point x="106.0" y="603" type="line" smooth="yes"/>
      <point x="81.0" y="603"/>
      <point x="70.0" y="592"/>
      <point x="70.0" y="567" type="curve" smooth="yes"/>
      <point x="70.0" y="453" type="line" smooth="yes"/>
      <point x="70.0" y="427"/>
      <point x="81.0" y="417"/>
    </contour>
    <contour>
      <point x="106.0" y="117" type="curve"/>
      <point x="628.0" y="117" type="line" smooth="yes"/>
      <point x="653.0" y="117"/>
      <point x="664.0" y="127"/>
      <point x="664.0" y="153" type="curve" smooth="yes"/>
      <point x="664.0" y="267" type="line" smooth="yes"/>
      <point x="664.0" y="293"/>
      <point x="653.0" y="303"/>
      <point x="628.0" y="303" type="curve" smooth="yes"/>
      <point x="106.0" y="303" type="line" smooth="yes"/>
      <point x="81.0" y="303"/>
      <point x="70.0" y="292"/>
      <point x="70.0" y="267" type="curve" smooth="yes"/>
      <point x="70.0" y="153" type="line" smooth="yes"/>
      <point x="70.0" y="127"/>
      <point x="81.0" y="117"/>
    </contour>
  </outline>
</glyph>
<glyph name="greater" format="1">
  <advance width="714"/>
  <unicode hex="003E"/>
  <outline>
    <contour>
      <point x="507.0" y="168" type="line"/>
      <point x="590.0" y="192"/>
      <point x="634.0" y="224"/>
      <point x="634.0" y="323" type="curve" smooth="yes"/>
      <point x="634.0" y="395" type="line" smooth="yes"/>
      <point x="634.0" y="494"/>
      <point x="590.0" y="526"/>
      <point x="507.0" y="550" type="curve" smooth="yes"/>
      <point x="126.0" y="659" type="line" smooth="yes"/>
      <point x="101.0" y="664"/>
      <point x="90.0" y="654"/>
      <point x="90.0" y="628" type="curve" smooth="yes"/>
      <point x="90.0" y="496" type="line" smooth="yes"/>
      <point x="90.0" y="470"/>
      <point x="101.0" y="459"/>
      <point x="126.0" y="455" type="curve" smooth="yes"/>
      <point x="413.0" y="378" type="line" smooth="yes"/>
      <point x="427.0" y="375"/>
      <point x="430.0" y="371"/>
      <point x="430.0" y="359" type="curve" smooth="yes"/>
      <point x="430.0" y="347"/>
      <point x="427.0" y="343"/>
      <point x="413.0" y="340" type="curve" smooth="yes"/>
      <point x="126.0" y="263" type="line" smooth="yes"/>
      <point x="101.0" y="259"/>
      <point x="90.0" y="248"/>
      <point x="90.0" y="222" type="curve" smooth="yes"/>
      <point x="90.0" y="90" type="line" smooth="yes"/>
      <point x="90.0" y="64"/>
      <point x="101.0" y="54"/>
      <point x="126.0" y="59" type="curve" smooth="yes"/>
    </contour>
  </outline>
</glyph>
<glyph name="question" format="1">
  <advance width="656"/>
  <unicode hex="003F"/>
  <outline>
    <contour>
      <point x="456.0" y="273" type="line" smooth="yes"/>
      <point x="551.0" y="286"/>
      <point x="611.0" y="327"/>
      <point x="611.0" y="439" type="curve" smooth="yes"/>
      <point x="611.0" y="544" type="line" smooth="yes"/>
      <point x="611.0" y="658"/>
      <point x="534.0" y="720"/>
      <point x="404.0" y="720" type="curve" smooth="yes"/>
      <point x="81.0" y="720" type="line" smooth="yes"/>
      <point x="56.0" y="720"/>
      <point x="45.0" y="709"/>
      <point x="45.0" y="684" type="curve"/>
      <point x="45.0" y="563" type="line" smooth="yes"/>
      <point x="45.0" y="537"/>
      <point x="56.0" y="527"/>
      <point x="81.0" y="527" type="curve" smooth="yes"/>
      <point x="357.0" y="527" type="line" smooth="yes"/>
      <point x="374.0" y="527"/>
      <point x="384.0" y="518"/>
      <point x="384.0" y="499" type="curve" smooth="yes"/>
      <point x="384.0" y="479"/>
      <point x="377.0" y="471"/>
      <point x="357.0" y="468" type="curve" smooth="yes"/>
      <point x="158.0" y="440" type="line" smooth="yes"/>
      <point x="133.0" y="437"/>
      <point x="121.0" y="425"/>
      <point x="125.0" y="399" type="curve" smooth="yes"/>
      <point x="146.0" y="267" type="line" smooth="yes"/>
      <point x="150.0" y="242"/>
      <point x="160.0" y="233"/>
      <point x="185.0" y="236" type="curve" smooth="yes"/>
    </contour>
    <contour>
      <point x="344.0" y="0" type="line" smooth="yes"/>
      <point x="369.0" y="0"/>
      <point x="380.0" y="11"/>
      <point x="380.0" y="36" type="curve" smooth="yes"/>
      <point x="380.0" y="167" type="line" smooth="yes"/>
      <point x="380.0" y="193"/>
      <point x="369.0" y="203"/>
      <point x="344.0" y="203" type="curve" smooth="yes"/>
      <point x="161.0" y="203" type="line" smooth="yes"/>
      <point x="135.0" y="203"/>
      <point x="125.0" y="193"/>
      <point x="125.0" y="167" type="curve" smooth="yes"/>
      <point x="125.0" y="36" type="line" smooth="yes"/>
      <point x="125.0" y="11"/>
      <point x="135.0" y="0"/>
      <point x="161.0" y="0" type="curve" smooth="yes"/>
    </contour>
  </outline>
</glyph>
<glyph name="at" format="1">
  <advance width="867"/>
  <unicode hex="0040"/>
  <outline>
    <contour>
      <point x="624.0" y="-91" type="line" smooth="yes"/>
      <point x="649.0" y="-91"/>
      <point x="658.0" y="-82"/>
      <point x="658.0" y="-57" type="curve" smooth="yes"/>
      <point x="658.0" y="-29" type="line" smooth="yes"/>
      <point x="658.0" y="-4"/>
      <point x="649.0" y="5"/>
      <point x="624.0" y="5" type="curve" smooth="yes"/>
      <point x="434.0" y="5" type="line" smooth="yes"/>
      <point x="214.0" y="5"/>
      <point x="160.0" y="64"/>
      <point x="160.0" y="150" type="curve" smooth="yes"/>
      <point x="160.0" y="568" type="line" smooth="yes"/>
      <point x="160.0" y="655"/>
      <point x="214.0" y="715"/>
      <point x="434.0" y="715" type="curve" smooth="yes"/>
      <point x="654.0" y="715"/>
      <point x="707.0" y="655"/>
      <point x="707.0" y="568" type="curve" smooth="yes"/>
      <point x="707.0" y="302" type="line" smooth="yes"/>
      <point x="707.0" y="249"/>
      <point x="697.0" y="211"/>
      <point x="645.0" y="211" type="curve"/>
      <point x="645.0" y="560" type="line" smooth="yes"/>
      <point x="645.0" y="578"/>
      <point x="637.0" y="586"/>
      <point x="619.0" y="586" type="curve" smooth="yes"/>
      <point x="394.0" y="586" type="line" smooth="yes"/>
      <point x="258.0" y="586"/>
      <point x="218.0" y="527"/>
      <point x="218.0" y="439" type="curve" smooth="yes"/>
      <point x="218.0" y="246" type="line" smooth="yes"/>
      <point x="218.0" y="159"/>
      <point x="258.0" y="100"/>
      <point x="394.0" y="100" type="curve" smooth="yes"/>
      <point x="583.0" y="100" type="line" smooth="yes"/>
      <point x="771.0" y="100"/>
      <point x="807.0" y="182"/>
      <point x="807.0" y="304" type="curve" smooth="yes"/>
      <point x="807.0" y="564" type="line" smooth="yes"/>
      <point x="807.0" y="711"/>
      <point x="735.0" y="811"/>
      <point x="434.0" y="811" type="curve" smooth="yes"/>
      <point x="134.0" y="811"/>
      <point x="60.0" y="711"/>
      <point x="60.0" y="564" type="curve" smooth="yes"/>
      <point x="60.0" y="154" type="line" smooth="yes"/>
      <point x="60.0" y="8"/>
      <point x="134.0" y="-91"/>
      <point x="434.0" y="-91" type="curve" smooth="yes"/>
    </contour>
    <contour>
      <point x="415.0" y="237" type="line"/>
      <point x="388.0" y="237"/>
      <point x="381.0" y="251"/>
      <point x="381.0" y="271" type="curve" smooth="yes"/>
      <point x="381.0" y="422" type="line" smooth="yes"/>
      <point x="381.0" y="440"/>
      <point x="387.0" y="458"/>
      <point x="425.0" y="458" type="curve" smooth="yes"/>
      <point x="482.0" y="458" type="line"/>
      <point x="482.0" y="237" type="line"/>
    </contour>
  </outline>
</glyph>
<glyph name="B" format="2">
  <advance width="725"/>
  <unicode hex="0042"/>
  <outline>
    <contour>
      <point x="489.0" y="0" type="line" smooth="yes"/>
      <point x="622.0" y="0"/>
      <point x="683.0" y="52"/>
      <point x="683.0" y="164" type="curve" smooth="yes"/>
      <point x="683.0" y="256" type="line" smooth="yes"/>
      <point x="683.0" y="354"/>
      <point x="643.0" y="403"/>
      <point x="557.0" y="411" type="curve"/>
      <point x="597.0" y="428"/>
      <point x="616.0" y="463"/>
      <point x="616.0" y="519" type="curve" smooth="yes"/>
      <point x="616.0" y="567" type="line" smooth="yes"/>
      <point x="616.0" y="672"/>
      <point x="555.0" y="720"/>
      <point x="424.0" y="720" type="curve" smooth="yes"/>
      <point x="105.0" y="720" type="line" smooth="yes"/>
      <point x="80.0" y="720"/>
      <point x="69.0" y="709"/>
      <point x="69.0" y="684" type="curve" smooth="yes"/>
      <point x="69.0" y="36" type="line" smooth="yes"/>
      <point x="69.0" y="11"/>
      <point x="80.0" y="0"/>
      <point x="105.0" y="0" type="curve" smooth="yes"/>
    </contour>
    <contour>
      <point x="294.0" y="550" type="line"/>
      <point x="379.0" y="550" type="line" smooth="yes"/>
      <point x="405.0" y="550"/>
      <point x="417.0" y="537"/>
      <point x="417.0" y="510" type="curve" smooth="yes"/>
      <point x="417.0" y="482" type="line" smooth="yes"/>
      <point x="417.0" y="455"/>
      <point x="405.0" y="442"/>
      <point x="379.0" y="442" type="curve" smooth="yes"/>
      <point x="294.0" y="442" type="line"/>
    </contour>
    <contour>
      <point x="294.0" y="288" type="line"/>
      <point x="424.0" y="288" type="line" smooth="yes"/>
      <point x="450.0" y="288"/>
      <point x="462.0" y="276"/>
      <point x="462.0" y="249" type="curve" smooth="yes"/>
      <point x="462.0" y="210" type="line" smooth="yes"/>
      <point x="462.0" y="183"/>
      <point x="450.0" y="170"/>
      <point x="424.0" y="170" type="curve" smooth="yes"/>
      <point x="294.0" y="170" type="line"/>
    </contour>
  </outline>
</glyph>
<glyph name="C" format="1">
  <advance width="628"/>
  <unicode hex="0043"/>
  <outline>
    <contour>
      <point x="548.0" y="0" type="line" smooth="yes"/>
      <point x="573.0" y="0"/>
      <point x="584.0" y="11"/>
      <point x="584.0" y="36" type="curve" smooth="yes"/>
      <point x="584.0" y="155" type="line" smooth="yes"/>
      <point x="584.0" y="180"/>
      <point x="573.0" y="191"/>
      <point x="548.0" y="191" type="curve" smooth="yes"/>
      <point x="347.0" y="191" type="line" smooth="yes"/>
      <point x="305.0" y="191"/>
      <point x="286.0" y="206"/>
      <point x="286.0" y="239" type="curve" smooth="yes"/>
      <point x="286.0" y="477" type="line" smooth="yes"/>
      <point x="286.0" y="511"/>
      <point x="305.0" y="527"/>
      <point x="347.0" y="527" type="curve" smooth="yes"/>
      <point x="548.0" y="527" type="line" smooth="yes"/>
      <point x="573.0" y="527"/>
      <point x="584.0" y="538"/>
      <point x="584.0" y="563" type="curve" smooth="yes"/>
      <point x="584.0" y="684" type="line" smooth="yes"/>
      <point x="584.0" y="709"/>
      <point x="573.0" y="720"/>
      <point x="548.0" y="720" type="curve" smooth="yes"/>
      <point x="304.0" y="720" type="line" smooth="yes"/>
      <point x="136.0" y="720"/>
      <point x="58.0" y="655"/>
      <point x="58.0" y="515" type="curve" smooth="yes"/>
      <point x="58.0" y="204" type="line" smooth="yes"/>
      <point x="58.0" y="65"/>
      <point x="136.0" y="0"/>
      <point x="304.0" y="0" type="curve" smooth="yes"/>
    </contour>
  </outline>
</glyph>
<glyph name="D" format="1">
  <advance width="746"/>
  <unicode hex="0044"/>
  <outline>
    <contour>
      <point x="442.0" y="0" type="line" smooth="yes"/>
      <point x="610.0" y="0"/>
      <point x="688.0" y="65"/>
      <point x="688.0" y="204" type="curve" smooth="yes"/>
      <point x="688.0" y="516" type="line" smooth="yes"/>
      <point x="688.0" y="655"/>
      <point x="610.0" y="720"/>
      <point x="442.0" y="720" type="curve" smooth="yes"/>
      <point x="105.0" y="720" type="line" smooth="yes"/>
      <point x="80.0" y="720"/>
      <point x="69.0" y="709"/>
      <point x="69.0" y="684" type="curve" smooth="yes"/>
      <point x="69.0" y="36" type="line" smooth="yes"/>
      <point x="69.0" y="11"/>
      <point x="80.0" y="0"/>
      <point x="105.0" y="0" type="curve" smooth="yes"/>
    </contour>
    <contour>
      <point x="296.0" y="529" type="line"/>
      <point x="415.0" y="529" type="line" smooth="yes"/>
      <point x="447.0" y="529"/>
      <point x="462.0" y="514"/>
      <point x="462.0" y="481" type="curve" smooth="yes"/>
      <point x="462.0" y="238" type="line" smooth="yes"/>
      <point x="462.0" y="204"/>
      <point x="447.0" y="189"/>
      <point x="415.0" y="189" type="curve" smooth="yes"/>
      <point x="296.0" y="189" type="line"/>
    </contour>
  </outline>
</glyph>
<glyph name="E" format="1">
  <advance width="654"/>
  <unicode hex="0045"/>
  <outline>
    <contour>
      <point x="569.0" y="0" type="line" smooth="yes"/>
      <point x="594.0" y="0"/>
      <point x="605.0" y="11"/>
      <point x="605.0" y="36" type="curve" smooth="yes"/>
      <point x="605.0" y="153" type="line" smooth="yes"/>
      <point x="605.0" y="178"/>
      <point x="594.0" y="189"/>
      <point x="569.0" y="189" type="curve" smooth="yes"/>
      <point x="293.0" y="189" type="line"/>
      <point x="293.0" y="275" type="line"/>
      <point x="488.0" y="275" type="line" smooth="yes"/>
      <point x="513.0" y="275"/>
      <point x="524.0" y="286"/>
      <point x="524.0" y="311" type="curve" smooth="yes"/>
      <point x="524.0" y="418" type="line" smooth="yes"/>
      <point x="524.0" y="443"/>
      <point x="513.0" y="454"/>
      <point x="488.0" y="454" type="curve" smooth="yes"/>
      <point x="293.0" y="454" type="line"/>
      <point x="293.0" y="531" type="line"/>
      <point x="569.0" y="531" type="line" smooth="yes"/>
      <point x="594.0" y="531"/>
      <point x="605.0" y="542"/>
      <point x="605.0" y="567" type="curve" smooth="yes"/>
      <point x="605.0" y="684" type="line" smooth="yes"/>
      <point x="605.0" y="709"/>
      <point x="594.0" y="720"/>
      <point x="569.0" y="720" type="curve" smooth="yes"/>
      <point x="105.0" y="720" type="line" smooth="yes"/>
      <point x="80.0" y="720"/>
      <point x="69.0" y="709"/>
      <point x="69.0" y="684" type="curve" smooth="yes"/>
      <point x="69.0" y="36" type="line" smooth="yes"/>
      <point x="69.0" y="11"/>
      <point x="80.0" y="0"/>
      <point x="105.0" y="0" type="curve" smooth="yes"/>
    </contour>
  </outline>
</glyph>
<glyph name="F" format="1">
  <advance width="618"/>
  <unicode hex="0046"/>
  <outline>
    <contour>
      <point x="260.0" y="0" type="line" smooth="yes"/>
      <point x="285.0" y="0"/>
      <point x="296.0" y="11"/>
      <point x="296.0" y="36" type="curve" smooth="yes"/>
      <point x="296.0" y="233" type="line"/>
      <point x="470.0" y="233" type="line" smooth="yes"/>
      <point x="495.0" y="233"/>
      <point x="506.0" y="244"/>
      <point x="506.0" y="269" type="curve" smooth="yes"/>
      <point x="506.0" y="389" type="line" smooth="yes"/>
      <point x="506.0" y="414"/>
      <point x="495.0" y="425"/>
      <point x="470.0" y="425" type="curve" smooth="yes"/>
      <point x="296.0" y="425" type="line"/>
      <point x="296.0" y="529" type="line"/>
      <point x="551.0" y="529" type="line" smooth="yes"/>
      <point x="576.0" y="529"/>
      <point x="587.0" y="540"/>
      <point x="587.0" y="565" type="curve" smooth="yes"/>
      <point x="587.0" y="684" type="line" smooth="yes"/>
      <point x="587.0" y="709"/>
      <point x="576.0" y="720"/>
      <point x="551.0" y="720" type="curve" smooth="yes"/>
      <point x="105.0" y="720" type="line" smooth="yes"/>
      <point x="80.0" y="720"/>
      <point x="69.0" y="709"/>
      <point x="69.0" y="684" type="curve" smooth="yes"/>
      <point x="69.0" y="36" type="line" smooth="yes"/>
      <point x="69.0" y="11"/>
      <point x="80.0" y="0"/>
      <point x="105.0" y="0" type="curve" smooth="yes"/>
    </contour>
  </outline>
</glyph>
<glyph name="G" format="1">
  <advance width="708"/>
  <unicode hex="0047"/>
  <outline>
    <contour>
      <point x="619.0" y="0" type="line" smooth="yes"/>
      <point x="644.0" y="0"/>
      <point x="655.0" y="11"/>
      <point x="655.0" y="36" type="curve" smooth="yes"/>
      <point x="655.0" y="345" type="line" smooth="yes"/>
      <point x="655.0" y="370"/>
      <point x="644.0" y="381"/>
      <point x="619.0" y="381" type="curve" smooth="yes"/>
      <point x="464.0" y="381" type="line" smooth="yes"/>
      <point x="439.0" y="381"/>
      <point x="428.0" y="370"/>
      <point x="428.0" y="345" type="curve" smooth="yes"/>
      <point x="428.0" y="189" type="line"/>
      <point x="331.0" y="189" type="line" smooth="yes"/>
      <point x="300.0" y="189"/>
      <point x="285.0" y="204"/>
      <point x="285.0" y="238" type="curve" smooth="yes"/>
      <point x="285.0" y="477" type="line" smooth="yes"/>
      <point x="285.0" y="511"/>
      <point x="304.0" y="527"/>
      <point x="346.0" y="527" type="curve" smooth="yes"/>
      <point x="554.0" y="527" type="line" smooth="yes"/>
      <point x="579.0" y="527"/>
      <point x="590.0" y="538"/>
      <point x="590.0" y="563" type="curve" smooth="yes"/>
      <point x="590.0" y="684" type="line" smooth="yes"/>
      <point x="590.0" y="709"/>
      <point x="579.0" y="720"/>
      <point x="554.0" y="720" type="curve" smooth="yes"/>
      <point x="304.0" y="720" type="line" smooth="yes"/>
      <point x="136.0" y="720"/>
      <point x="58.0" y="655"/>
      <point x="58.0" y="516" type="curve" smooth="yes"/>
      <point x="58.0" y="204" type="line" smooth="yes"/>
      <point x="58.0" y="65"/>
      <point x="136.0" y="0"/>
      <point x="304.0" y="0" type="curve" smooth="yes"/>
    </contour>
  </outline>
</glyph>
<glyph name="J" format="2">
  <advance width="688"/>
  <unicode hex="004A"/>
  <outline>
    <contour>
      <point x="624.0" y="189" type="curve" smooth="yes"/>
      <point x="624.0" y="684" type="line" smooth="yes"/>
      <point x="624.0" y="709"/>
      <point x="613.0" y="720"/>
      <point x="588.0" y="720" type="curve" smooth="yes"/>
      <point x="431.0" y="720" type="line" smooth="yes"/>
      <point x="406.0" y="720"/>
      <point x="395.0" y="709"/>
      <point x="395.0" y="684" type="curve" smooth="yes"/>
      <point x="395.0" y="229" type="line" smooth="yes"/>
      <point x="395.0" y="202"/>
      <point x="387.0" y="182"/>
      <point x="329.0" y="182" type="curve" smooth="yes"/>
      <point x="267.0" y="182"/>
      <point x="258.0" y="202"/>
      <point x="258.0" y="229" type="curve" smooth="yes"/>
      <point x="258.0" y="351" type="line" smooth="yes"/>
      <point x="258.0" y="377"/>
      <point x="247.0" y="387"/>
      <point x="222.0" y="387" type="curve" smooth="yes"/>
      <point x="77.0" y="387" type="line" smooth="yes"/>
      <point x="52.0" y="387"/>
      <point x="41.0" y="377"/>
      <point x="41.0" y="351" type="curve" smooth="yes"/>
      <point x="41.0" y="189" type="line" smooth="yes"/>
      <point x="41.0" y="67"/>
      <point x="98.0" y="-15"/>
      <point x="331.0" y="-15" type="curve" smooth="yes"/>
      <point x="566.0" y="-15"/>
      <point x="624.0" y="67"/>
    </contour>
  </outline>
</glyph>
<glyph name="L" format="2">
  <advance width="695"/>
  <unicode hex="004C"/>
  <outline>
    <contour>
      <point x="614.0" y="0" type="line" smooth="yes"/>
      <point x="639.0" y="0"/>
      <point x="650.0" y="11"/>
      <point x="650.0" y="36" type="curve" smooth="yes"/>
      <point x="650.0" y="351" type="line" smooth="yes"/>
      <point x="650.0" y="376"/>
      <point x="639.0" y="387"/>
      <point x="614.0" y="387" type="curve" smooth="yes"/>
      <point x="469.0" y="387" type="line" smooth="yes"/>
      <point x="444.0" y="387"/>
      <point x="433.0" y="376"/>
      <point x="433.0" y="351" type="curve" smooth="yes"/>
      <point x="433.0" y="189" type="line"/>
      <point x="296.0" y="189" type="line"/>
      <point x="296.0" y="684" type="line" smooth="yes"/>
      <point x="296.0" y="709"/>
      <point x="285.0" y="720"/>
      <point x="260.0" y="720" type="curve" smooth="yes"/>
      <point x="105.0" y="720" type="line" smooth="yes"/>
      <point x="80.0" y="720"/>
      <point x="69.0" y="709"/>
      <point x="69.0" y="684" type="curve" smooth="yes"/>
      <point x="69.0" y="36" type="line" smooth="yes"/>
      <point x="69.0" y="11"/>
      <point x="80.0" y="0"/>
      <point x="105.0" y="0" type="curve" smooth="yes"/>
    </contour>
  </outline>
</glyph>
<glyph name="M" format="2">
  <advance width="849"/>
  <unicode hex="004D"/>
  <outline>
    <contour>
      <point x="254.0" y="0" type="line" smooth="yes"/>
      <point x="279.0" y="0"/>
      <point x="290.0" y="11"/>
      <point x="290.0" y="36" type="curve" smooth="yes"/>
      <point x="290.0" y="388" type="line"/>
      <point x="349.0" y="279" type="line" smooth="yes"/>
      <point x="361.0" y="256"/>
      <point x="376.0" y="247"/>
      <point x="402.0" y="247" type="curve" smooth="yes"/>
      <point x="442.0" y="247" type="line" smooth="yes"/>
      <point x="468.0" y="247"/>
      <point x="483.0" y="256"/>
      <point x="495.0" y="279" type="curve" smooth="yes"/>
      <point x="554.0" y="388" type="line"/>
      <point x="554.0" y="36" type="line" smooth="yes"/>
      <point x="554.0" y="11"/>
      <point x="564.0" y="0"/>
      <point x="590.0" y="0" type="curve" smooth="yes"/>
      <point x="744.0" y="0" type="line" smooth="yes"/>
      <point x="769.0" y="0"/>
      <point x="780.0" y="11"/>
      <point x="780.0" y="36" type="curve" smooth="yes"/>
      <point x="780.0" y="684" type="line" smooth="yes"/>
      <point x="780.0" y="709"/>
      <point x="769.0" y="720"/>
      <point x="744.0" y="720" type="curve" smooth="yes"/>
      <point x="582.0" y="720" type="line" smooth="yes"/>
      <point x="561.0" y="720"/>
      <point x="548.0" y="712"/>
      <point x="536.0" y="690" type="curve" smooth="yes"/>
      <point x="447.0" y="527" type="line" smooth="yes"/>
      <point x="440.0" y="515"/>
      <point x="437.0" y="510"/>
      <point x="429.0" y="510" type="curve" smooth="yes"/>
      <point x="420.0" y="510" type="line" smooth="yes"/>
      <point x="412.0" y="510"/>
      <point x="409.0" y="515"/>
      <point x="402.0" y="527" type="curve" smooth="yes"/>
      <point x="312.0" y="690" type="line" smooth="yes"/>
      <point x="300.0" y="712"/>
      <point x="287.0" y="720"/>
      <point x="266.0" y="720" type="curve" smooth="yes"/>
      <point x="105.0" y="720" type="line" smooth="yes"/>
      <point x="80.0" y="720"/>
      <point x="69.0" y="709"/>
      <point x="69.0" y="684" type="curve" smooth="yes"/>
      <point x="69.0" y="36" type="line" smooth="yes"/>
      <point x="69.0" y="11"/>
      <point x="80.0" y="0"/>
      <point x="105.0" y="0" type="curve" smooth="yes"/>
    </contour>
  </outline>
</glyph>
<glyph name="N" format="1">
  <advance width="753"/>
  <unicode hex="004E"/>
  <outline>
    <contour>
      <point x="255.0" y="0" type="line" smooth="yes"/>
      <point x="280.0" y="0"/>
      <point x="291.0" y="11"/>
      <point x="291.0" y="36" type="curve" smooth="yes"/>
      <point x="291.0" y="366" type="line"/>
      <point x="462.0" y="159" type="line"/>
      <point x="462.0" y="36" type="line" smooth="yes"/>
      <point x="462.0" y="11"/>
      <point x="473.0" y="0"/>
      <point x="498.0" y="0" type="curve" smooth="yes"/>
      <point x="648.0" y="0" type="line" smooth="yes"/>
      <point x="673.0" y="0"/>
      <point x="684.0" y="11"/>
      <point x="684.0" y="36" type="curve" smooth="yes"/>
      <point x="684.0" y="684" type="line" smooth="yes"/>
      <point x="684.0" y="709"/>
      <point x="673.0" y="720"/>
      <point x="648.0" y="720" type="curve" smooth="yes"/>
      <point x="498.0" y="720" type="line" smooth="yes"/>
      <point x="473.0" y="720"/>
      <point x="462.0" y="709"/>
      <point x="462.0" y="684" type="curve" smooth="yes"/>
      <point x="462.0" y="471" type="line"/>
      <point x="268.0" y="693" type="line" smooth="yes"/>
      <point x="251.0" y="713"/>
      <point x="235.0" y="720"/>
      <point x="209.0" y="720" type="curve" smooth="yes"/>
      <point x="105.0" y="720" type="line" smooth="yes"/>
      <point x="80.0" y="720"/>
      <point x="69.0" y="709"/>
      <point x="69.0" y="684" type="curve" smooth="yes"/>
      <point x="69.0" y="36" type="line" smooth="yes"/>
      <point x="69.0" y="11"/>
      <point x="80.0" y="0"/>
      <point x="105.0" y="0" type="curve" smooth="yes"/>
    </contour>
  </outline>
</glyph>
<glyph name="O" format="2">
  <advance width="737"/>
  <unicode hex="004F"/>
  <outline>
    <contour>
      <point x="679.0" y="189" type="curve" smooth="yes"/>
      <point x="679.0" y="530" type="line" smooth="yes"/>
      <point x="679.0" y="652"/>
      <point x="619.0" y="735"/>
      <point x="369.0" y="735" type="curve" smooth="yes"/>
      <point x="119.0" y="735"/>
      <point x="58.0" y="652"/>
      <point x="58.0" y="530" type="curve" smooth="yes"/>
      <point x="58.0" y="189" type="line" smooth="yes"/>
      <point x="58.0" y="67"/>
      <point x="119.0" y="-15"/>
      <point x="369.0" y="-15" type="curve" smooth="yes"/>
      <point x="619.0" y="-15"/>
      <point x="679.0" y="67"/>
    </contour>
    <contour>
      <point x="285.0" y="225" type="curve" smooth="yes"/>
      <point x="285.0" y="494" type="line" smooth="yes"/>
      <point x="285.0" y="520"/>
      <point x="297.0" y="540"/>
      <point x="369.0" y="540" type="curve" smooth="yes"/>
      <point x="442.0" y="540"/>
      <point x="453.0" y="520"/>
      <point x="453.0" y="494" type="curve" smooth="yes"/>
      <point x="453.0" y="225" type="line" smooth="yes"/>
      <point x="453.0" y="198"/>
      <point x="442.0" y="178"/>
      <point x="369.0" y="178" type="curve" smooth="yes"/>
      <point x="297.0" y="178"/>
      <point x="285.0" y="198"/>
    </contour>
  </outline>
</glyph>
<glyph name="P" format="2">
  <advance width="682"/>
  <unicode hex="0050"/>
  <outline>
    <contour>
      <point x="260.0" y="0" type="line" smooth="yes"/>
      <point x="285.0" y="0"/>
      <point x="296.0" y="11"/>
      <point x="296.0" y="36" type="curve" smooth="yes"/>
      <point x="296.0" y="202" type="line"/>
      <point x="411.0" y="202" type="line" smooth="yes"/>
      <point x="593.0" y="202"/>
      <point x="647.0" y="281"/>
      <point x="647.0" y="397" type="curve" smooth="yes"/>
      <point x="647.0" y="525" type="line" smooth="yes"/>
      <point x="647.0" y="641"/>
      <point x="593.0" y="720"/>
      <point x="411.0" y="720" type="curve" smooth="yes"/>
      <point x="105.0" y="720" type="line" smooth="yes"/>
      <point x="80.0" y="720"/>
      <point x="69.0" y="709"/>
      <point x="69.0" y="684" type="curve" smooth="yes"/>
      <point x="69.0" y="36" type="line" smooth="yes"/>
      <point x="69.0" y="11"/>
      <point x="80.0" y="0"/>
      <point x="105.0" y="0" type="curve" smooth="yes"/>
    </contour>
    <contour>
      <point x="294.0" y="533" type="line"/>
      <point x="384.0" y="533" type="line" smooth="yes"/>
      <point x="423.0" y="533"/>
      <point x="431.0" y="510"/>
      <point x="431.0" y="484" type="curve" smooth="yes"/>
      <point x="431.0" y="431" type="line" smooth="yes"/>
      <point x="431.0" y="405"/>
      <point x="423.0" y="382"/>
      <point x="384.0" y="382" type="curve" smooth="yes"/>
      <point x="294.0" y="382" type="line"/>
    </contour>
  </outline>
</glyph>
<glyph name="Q" format="2">
  <advance width="737"/>
  <unicode hex="0051"/>
  <outline>
    <contour>
      <point x="445.0" y="-90" type="line" smooth="yes"/>
      <point x="470.0" y="-90"/>
      <point x="481.0" y="-79"/>
      <point x="481.0" y="-54" type="curve" smooth="yes"/>
      <point x="481.0" y="1" type="line"/>
      <point x="638.0" y="23"/>
      <point x="679.0" y="97"/>
      <point x="679.0" y="198" type="curve" smooth="yes"/>
      <point x="679.0" y="530" type="line" smooth="yes"/>
      <point x="679.0" y="652"/>
      <point x="619.0" y="735"/>
      <point x="369.0" y="735" type="curve" smooth="yes"/>
      <point x="119.0" y="735"/>
      <point x="58.0" y="652"/>
      <point x="58.0" y="530" type="curve" smooth="yes"/>
      <point x="58.0" y="198" type="line" smooth="yes"/>
      <point x="58.0" y="97"/>
      <point x="100.0" y="24"/>
      <point x="255.0" y="1" type="curve"/>
      <point x="255.0" y="-54" type="line" smooth="yes"/>
      <point x="255.0" y="-79"/>
      <point x="266.0" y="-90"/>
      <point x="291.0" y="-90" type="curve" smooth="yes"/>
    </contour>
    <contour>
      <point x="285.0" y="220" type="curve" smooth="yes"/>
      <point x="285.0" y="493" type="line" smooth="yes"/>
      <point x="285.0" y="519"/>
      <point x="297.0" y="539"/>
      <point x="369.0" y="539" type="curve" smooth="yes"/>
      <point x="442.0" y="539"/>
      <point x="453.0" y="519"/>
      <point x="453.0" y="493" type="curve" smooth="yes"/>
      <point x="453.0" y="220" type="line" smooth="yes"/>
      <point x="453.0" y="193"/>
      <point x="442.0" y="173"/>
      <point x="369.0" y="173" type="curve" smooth="yes"/>
      <point x="297.0" y="173"/>
      <point x="285.0" y="193"/>
    </contour>
  </outline>
</glyph>
<glyph name="R" format="1">
  <advance width="743"/>
  <unicode hex="0052"/>
  <outline>
    <contour>
      <point x="295.0" y="540" type="line"/>
      <point x="370.0" y="540" type="line" smooth="yes"/>
      <point x="405.0" y="540"/>
      <point x="414.0" y="520"/>
      <point x="414.0" y="493" type="curve" smooth="yes"/>
      <point x="414.0" y="459" type="line" smooth="yes"/>
      <point x="414.0" y="432"/>
      <point x="405.0" y="412"/>
      <point x="370.0" y="412" type="curve" smooth="yes"/>
      <point x="295.0" y="412" type="line"/>
    </contour>
    <contour>
      <point x="259.0" y="0" type="line" smooth="yes"/>
      <point x="284.0" y="0"/>
      <point x="295.0" y="11"/>
      <point x="295.0" y="36" type="curve" smooth="yes"/>
      <point x="295.0" y="232" type="line"/>
      <point x="435.0" y="232" type="line" smooth="yes"/>
      <point x="463.0" y="232"/>
      <point x="473.0" y="219"/>
      <point x="473.0" y="189" type="curve" smooth="yes"/>
      <point x="473.0" y="36" type="line" smooth="yes"/>
      <point x="473.0" y="11"/>
      <point x="484.0" y="0"/>
      <point x="509.0" y="0" type="curve" smooth="yes"/>
      <point x="664.0" y="0" type="line" smooth="yes"/>
      <point x="689.0" y="0"/>
      <point x="700.0" y="11"/>
      <point x="700.0" y="36" type="curve" smooth="yes"/>
      <point x="700.0" y="248" type="line" smooth="yes"/>
      <point x="700.0" y="332"/>
      <point x="652.0" y="385"/>
      <point x="579.0" y="393" type="curve"/>
      <point x="621.0" y="411"/>
      <point x="635.0" y="451"/>
      <point x="635.0" y="507" type="curve" smooth="yes"/>
      <point x="635.0" y="553" type="line" smooth="yes"/>
      <point x="635.0" y="652"/>
      <point x="588.0" y="720"/>
      <point x="438.0" y="720" type="curve" smooth="yes"/>
      <point x="105.0" y="720" type="line" smooth="yes"/>
      <point x="80.0" y="720"/>
      <point x="69.0" y="709"/>
      <point x="69.0" y="684" type="curve" smooth="yes"/>
      <point x="69.0" y="36" type="line" smooth="yes"/>
      <point x="69.0" y="11"/>
      <point x="80.0" y="0"/>
      <point x="105.0" y="0" type="curve" smooth="yes"/>
    </contour>
  </outline>
</glyph>
<glyph name="S" format="2">
  <advance width="650"/>
  <unicode hex="0053"/>
  <outline>
    <contour>
      <point x="403.0" y="0" type="line" smooth="yes"/>
      <point x="532.0" y="0"/>
      <point x="610.0" y="62"/>
      <point x="610.0" y="176" type="curve" smooth="yes"/>
      <point x="610.0" y="281" type="line" smooth="yes"/>
      <point x="610.0" y="393"/>
      <point x="548.0" y="433"/>
      <point x="454.0" y="447" type="curve" smooth="yes"/>
      <point x="305.0" y="467" type="line" smooth="yes"/>
      <point x="288.0" y="469"/>
      <point x="278.0" y="481"/>
      <point x="278.0" y="499" type="curve" smooth="yes"/>
      <point x="278.0" y="517"/>
      <point x="288.0" y="529"/>
      <point x="305.0" y="529" type="curve" smooth="yes"/>
      <point x="538.0" y="529" type="line" smooth="yes"/>
      <point x="563.0" y="529"/>
      <point x="574.0" y="540"/>
      <point x="574.0" y="565" type="curve" smooth="yes"/>
      <point x="574.0" y="684" type="line" smooth="yes"/>
      <point x="574.0" y="709"/>
      <point x="563.0" y="720"/>
      <point x="538.0" y="720" type="curve" smooth="yes"/>
      <point x="258.0" y="720" type="line" smooth="yes"/>
      <point x="128.0" y="720"/>
      <point x="51.0" y="658"/>
      <point x="51.0" y="544" type="curve" smooth="yes"/>
      <point x="51.0" y="439" type="line" smooth="yes"/>
      <point x="51.0" y="327"/>
      <point x="112.0" y="287"/>
      <point x="206.0" y="273" type="curve" smooth="yes"/>
      <point x="356.0" y="252" type="line" smooth="yes"/>
      <point x="373.0" y="250"/>
      <point x="382.0" y="241"/>
      <point x="382.0" y="218" type="curve" smooth="yes"/>
      <point x="382.0" y="202"/>
      <point x="373.0" y="189"/>
      <point x="356.0" y="189" type="curve" smooth="yes"/>
      <point x="87.0" y="189" type="line" smooth="yes"/>
      <point x="62.0" y="189"/>
      <point x="51.0" y="178"/>
      <point x="51.0" y="153" type="curve" smooth="yes"/>
      <point x="51.0" y="36" type="line" smooth="yes"/>
      <point x="51.0" y="11"/>
      <point x="62.0" y="0"/>
      <point x="87.0" y="0" type="curve" smooth="yes"/>
    </contour>
  </outline>
</glyph>
<glyph name="U" format="1">
  <advance width="746"/>
  <unicode hex="0055"/>
  <outline>
    <contour>
      <point x="682.0" y="189" type="curve" smooth="yes"/>
      <point x="682.0" y="684" type="line" smooth="yes"/>
      <point x="682.0" y="709"/>
      <point x="671.0" y="720"/>
      <point x="646.0" y="720" type="curve" smooth="yes"/>
      <point x="494.0" y="720" type="line" smooth="yes"/>
      <point x="468.0" y="720"/>
      <point x="458.0" y="709"/>
      <point x="458.0" y="684" type="curve" smooth="yes"/>
      <point x="458.0" y="228" type="line" smooth="yes"/>
      <point x="458.0" y="201"/>
      <point x="446.0" y="181"/>
      <point x="375.0" y="181" type="curve" smooth="yes"/>
      <point x="305.0" y="181"/>
      <point x="293.0" y="201"/>
      <point x="293.0" y="228" type="curve" smooth="yes"/>
      <point x="293.0" y="684" type="line" smooth="yes"/>
      <point x="293.0" y="709"/>
      <point x="282.0" y="720"/>
      <point x="257.0" y="720" type="curve" smooth="yes"/>
      <point x="100.0" y="720" type="line" smooth="yes"/>
      <point x="75.0" y="720"/>
      <point x="64.0" y="709"/>
      <point x="64.0" y="684" type="curve" smooth="yes"/>
      <point x="64.0" y="189" type="line" smooth="yes"/>
      <point x="64.0" y="67"/>
      <point x="125.0" y="-15"/>
      <point x="373.0" y="-15" type="curve" smooth="yes"/>
      <point x="621.0" y="-15"/>
      <point x="682.0" y="67"/>
    </contour>
  </outline>
</glyph>
<glyph name="V" format="1">
  <advance width="730"/>
  <unicode hex="0056"/>
  <outline>
    <contour>
      <point x="495.0" y="0" type="line" smooth="yes"/>
      <point x="521.0" y="0"/>
      <point x="536.0" y="8"/>
      <point x="546.0" y="33" type="curve" smooth="yes"/>
      <point x="644.0" y="278" type="line" smooth="yes"/>
      <point x="668.0" y="338"/>
      <point x="676.0" y="357"/>
      <point x="676.0" y="420" type="curve" smooth="yes"/>
      <point x="676.0" y="684" type="line" smooth="yes"/>
      <point x="676.0" y="709"/>
      <point x="666.0" y="720"/>
      <point x="640.0" y="720" type="curve" smooth="yes"/>
      <point x="483.0" y="720" type="line" smooth="yes"/>
      <point x="458.0" y="720"/>
      <point x="447.0" y="709"/>
      <point x="447.0" y="684" type="curve" smooth="yes"/>
      <point x="447.0" y="409" type="line" smooth="yes"/>
      <point x="447.0" y="395"/>
      <point x="444.0" y="383"/>
      <point x="439.0" y="368" type="curve" smooth="yes"/>
      <point x="392.0" y="227" type="line" smooth="yes"/>
      <point x="388.0" y="214"/>
      <point x="384.0" y="210"/>
      <point x="373.0" y="210" type="curve" smooth="yes"/>
      <point x="362.0" y="210" type="line" smooth="yes"/>
      <point x="351.0" y="210"/>
      <point x="347.0" y="214"/>
      <point x="343.0" y="227" type="curve" smooth="yes"/>
      <point x="296.0" y="367" type="line" smooth="yes"/>
      <point x="291.0" y="382"/>
      <point x="288.0" y="394"/>
      <point x="288.0" y="408" type="curve" smooth="yes"/>
      <point x="288.0" y="684" type="line" smooth="yes"/>
      <point x="288.0" y="709"/>
      <point x="274.0" y="720"/>
      <point x="249.0" y="720" type="curve" smooth="yes"/>
      <point x="90.0" y="720" type="line" smooth="yes"/>
      <point x="65.0" y="720"/>
      <point x="54.0" y="709"/>
      <point x="54.0" y="684" type="curve" smooth="yes"/>
      <point x="54.0" y="420" type="line" smooth="yes"/>
      <point x="54.0" y="357"/>
      <point x="62.0" y="338"/>
      <point x="86.0" y="278" type="curve" smooth="yes"/>
      <point x="184.0" y="33" type="line" smooth="yes"/>
      <point x="194.0" y="8"/>
      <point x="209.0" y="0"/>
      <point x="235.0" y="0" type="curve"/>
    </contour>
    <contour>
      <point x="365.0" y="747.0" type="move" name="top"/>
    </contour>
    <contour>
      <point x="365.0" y="0.0" type="move" name="bottom"/>
    </contour>
  </outline>
</glyph>
<glyph name="W" format="2">
  <advance width="831"/>
  <unicode hex="0057"/>
  <anchor x="415.0" y="747.0" name="top"/>
  <anchor x="415.0" y="0.0" name="bottom"/>
  <outline>
    <contour>
      <point x="586.0" y="720" type="line" smooth="yes"/>
      <point x="560.0" y="720"/>
      <point x="550.0" y="709"/>
      <point x="550.0" y="684" type="curve" smooth="yes"/>
      <point x="550.0" y="316" type="line"/>
      <point x="492.0" y="442" type="line" smooth="yes"/>
      <point x="481.0" y="465"/>
      <point x="465.0" y="473"/>
      <point x="439.0" y="473" type="curve" smooth="yes"/>
      <point x="397.0" y="473" type="line" smooth="yes"/>
      <point x="371.0" y="473"/>
      <point x="355.0" y="465"/>
      <point x="344.0" y="442" type="curve" smooth="yes"/>
      <point x="286.0" y="316" type="line"/>
      <point x="286.0" y="684" type="line" smooth="yes"/>
      <point x="286.0" y="709"/>
      <point x="275.0" y="720"/>
      <point x="250.0" y="720" type="curve" smooth="yes"/>
      <point x="96.0" y="720" type="line" smooth="yes"/>
      <point x="71.0" y="720"/>
      <point x="60.0" y="709"/>
      <point x="60.0" y="684" type="curve" smooth="yes"/>
      <point x="60.0" y="298" type="line" smooth="yes"/>
      <point x="60.0" y="255"/>
      <point x="60.0" y="223"/>
      <point x="78.0" y="174" type="curve" smooth="yes"/>
      <point x="128.0" y="36" type="line" smooth="yes"/>
      <point x="135.0" y="15"/>
      <point x="150.0" y="0"/>
      <point x="172.0" y="0" type="curve" smooth="yes"/>
      <point x="304.0" y="0" type="line" smooth="yes"/>
      <point x="325.0" y="0"/>
      <point x="340.0" y="10"/>
      <point x="346.0" y="30" type="curve" smooth="yes"/>
      <point x="393.0" y="193" type="line" smooth="yes"/>
      <point x="397.0" y="206"/>
      <point x="403.0" y="210"/>
      <point x="411.0" y="210" type="curve" smooth="yes"/>
      <point x="420.0" y="210" type="line" smooth="yes"/>
      <point x="428.0" y="210"/>
      <point x="434.0" y="206"/>
      <point x="438.0" y="193" type="curve" smooth="yes"/>
      <point x="484.0" y="30" type="line" smooth="yes"/>
      <point x="490.0" y="9"/>
      <point x="508.0" y="0"/>
      <point x="530.0" y="0" type="curve" smooth="yes"/>
      <point x="663.0" y="0" type="line" smooth="yes"/>
      <point x="684.0" y="0"/>
      <point x="696.0" y="16"/>
      <point x="703.0" y="36" type="curve" smooth="yes"/>
      <point x="753.0" y="172" type="line" smooth="yes"/>
      <point x="771.0" y="221"/>
      <point x="771.0" y="253"/>
      <point x="771.0" y="296" type="curve" smooth="yes"/>
      <point x="771.0" y="684" type="line" smooth="yes"/>
      <point x="771.0" y="709"/>
      <point x="760.0" y="720"/>
      <point x="735.0" y="720" type="curve" smooth="yes"/>
    </contour>
  </outline>
</glyph>
<glyph name="Y" format="1">
  <advance width="705"/>
  <unicode hex="0059"/>
  <outline>
    <contour>
      <point x="434.0" y="0" type="line" smooth="yes"/>
      <point x="459.0" y="0"/>
      <point x="470.0" y="11"/>
      <point x="470.0" y="36" type="curve" smooth="yes"/>
      <point x="470.0" y="163" type="line"/>
      <point x="622.0" y="369" type="line" smooth="yes"/>
      <point x="652.0" y="410"/>
      <point x="660.0" y="430"/>
      <point x="660.0" y="492" type="curve" smooth="yes"/>
      <point x="660.0" y="684" type="line" smooth="yes"/>
      <point x="660.0" y="709"/>
      <point x="649.0" y="720"/>
      <point x="624.0" y="720" type="curve" smooth="yes"/>
      <point x="475.0" y="720" type="line" smooth="yes"/>
      <point x="450.0" y="720"/>
      <point x="439.0" y="709"/>
      <point x="439.0" y="684" type="curve" smooth="yes"/>
      <point x="439.0" y="520" type="line" smooth="yes"/>
      <point x="439.0" y="506"/>
      <point x="439.0" y="492"/>
      <point x="430.0" y="478" type="curve" smooth="yes"/>
      <point x="384.0" y="406" type="line" smooth="yes"/>
      <point x="377.0" y="394"/>
      <point x="371.0" y="389"/>
      <point x="360.0" y="389" type="curve"/>
      <point x="350.0" y="389" type="line" smooth="yes"/>
      <point x="339.0" y="389"/>
      <point x="333.0" y="394"/>
      <point x="326.0" y="406" type="curve" smooth="yes"/>
      <point x="280.0" y="478" type="line" smooth="yes"/>
      <point x="271.0" y="492"/>
      <point x="271.0" y="506"/>
      <point x="271.0" y="520" type="curve" smooth="yes"/>
      <point x="271.0" y="684" type="line" smooth="yes"/>
      <point x="271.0" y="709"/>
      <point x="260.0" y="720"/>
      <point x="235.0" y="720" type="curve" smooth="yes"/>
      <point x="81.0" y="720" type="line" smooth="yes"/>
      <point x="56.0" y="720"/>
      <point x="45.0" y="709"/>
      <point x="45.0" y="684" type="curve" smooth="yes"/>
      <point x="45.0" y="492" type="line" smooth="yes"/>
      <point x="45.0" y="430"/>
      <point x="52.0" y="410"/>
      <point x="83.0" y="369" type="curve" smooth="yes"/>
      <point x="236.0" y="164" type="line"/>
      <point x="236.0" y="36" type="line" smooth="yes"/>
      <point x="236.0" y="11"/>
      <point x="246.0" y="0"/>
      <point x="272.0" y="0" type="curve" smooth="yes"/>
    </contour>
    <contour>
      <point x="352.0" y="747.0" type="move" name="top"/>
    </contour>
    <contour>
      <point x="352.0" y="0.0" type="move" name="bottom"/>
    </contour>
  </outline>
</glyph>
<glyph name="Z" format="1">
  <advance width="660"/>
  <unicode hex="005A"/>
  <outline>
    <contour>
      <point x="578.0" y="0" type="line" smooth="yes"/>
      <point x="603.0" y="0"/>
      <point x="614.0" y="11"/>
      <point x="614.0" y="36" type="curve" smooth="yes"/>
      <point x="614.0" y="155" type="line" smooth="yes"/>
      <point x="614.0" y="180"/>
      <point x="603.0" y="191"/>
      <point x="578.0" y="191" type="curve" smooth="yes"/>
      <point x="339.0" y="191" type="line"/>
      <point x="571.0" y="472" type="line" smooth="yes"/>
      <point x="589.0" y="491"/>
      <point x="596.0" y="508"/>
      <point x="596.0" y="535" type="curve" smooth="yes"/>
      <point x="596.0" y="684" type="line" smooth="yes"/>
      <point x="596.0" y="709"/>
      <point x="585.0" y="720"/>
      <point x="560.0" y="720" type="curve" smooth="yes"/>
      <point x="100.0" y="720" type="line" smooth="yes"/>
      <point x="75.0" y="720"/>
      <point x="64.0" y="709"/>
      <point x="64.0" y="684" type="curve"/>
      <point x="64.0" y="563" type="line"/>
      <point x="64.0" y="538"/>
      <point x="75.0" y="527"/>
      <point x="100.0" y="527" type="curve" smooth="yes"/>
      <point x="314.0" y="527" type="line"/>
      <point x="71.0" y="232" type="line" smooth="yes"/>
      <point x="53.0" y="213"/>
      <point x="46.0" y="196"/>
      <point x="46.0" y="170" type="curve"/>
      <point x="46.0" y="36" type="line"/>
      <point x="46.0" y="11"/>
      <point x="57.0" y="0"/>
      <point x="82.0" y="0" type="curve" smooth="yes"/>
    </contour>
    <contour>
      <point x="330.0" y="747.0" type="move" name="top"/>
    </contour>
    <contour>
      <point x="330.0" y="0.0" type="move" name="bottom"/>
    </contour>
  </outline>
</glyph>
<glyph name="bracketleft" format="1">
  <advance width="429"/>
  <unicode hex="005B"/>
  <outline>
    <contour>
      <point x="276.0" y="607" type="line"/>
      <point x="348.0" y="607" type="line" smooth="yes"/>
      <point x="373.0" y="607"/>
      <point x="384.0" y="618"/>
      <point x="384.0" y="643" type="curve" smooth="yes"/>
      <point x="384.0" y="764" type="line" smooth="yes"/>
      <point x="384.0" y="789"/>
      <point x="373.0" y="800"/>
      <point x="348.0" y="800" type="curve" smooth="yes"/>
      <point x="84.0" y="800" type="line" smooth="yes"/>
      <point x="59.0" y="800"/>
      <point x="48.0" y="789"/>
      <point x="48.0" y="764" type="curve" smooth="yes"/>
      <point x="48.0" y="-44" type="line" smooth="yes"/>
      <point x="48.0" y="-69"/>
      <point x="59.0" y="-80"/>
      <point x="84.0" y="-80" type="curve" smooth="yes"/>
      <point x="348.0" y="-80" type="line" smooth="yes"/>
      <point x="373.0" y="-80"/>
      <point x="384.0" y="-69"/>
      <point x="384.0" y="-44" type="curve" smooth="yes"/>
      <point x="384.0" y="75" type="line" smooth="yes"/>
      <point x="384.0" y="100"/>
      <point x="373.0" y="111"/>
      <point x="348.0" y="111" type="curve" smooth="yes"/>
      <point x="276.0" y="111" type="line"/>
    </contour>
  </outline>
</glyph>
<glyph name="bracketright" format="1">
  <advance width="429"/>
  <unicode hex="005D"/>
  <outline>
    <contour>
      <point x="153.0" y="111" type="line"/>
      <point x="81.0" y="111" type="line" smooth="yes"/>
      <point x="56.0" y="111"/>
      <point x="45.0" y="100"/>
      <point x="45.0" y="75" type="curve" smooth="yes"/>
      <point x="45.0" y="-44" type="line" smooth="yes"/>
      <point x="45.0" y="-69"/>
      <point x="56.0" y="-80"/>
      <point x="81.0" y="-80" type="curve" smooth="yes"/>
      <point x="345.0" y="-80" type="line" smooth="yes"/>
      <point x="370.0" y="-80"/>
      <point x="381.0" y="-69"/>
      <point x="381.0" y="-44" type="curve" smooth="yes"/>
      <point x="381.0" y="764" type="line" smooth="yes"/>
      <point x="381.0" y="789"/>
      <point x="370.0" y="800"/>
      <point x="345.0" y="800" type="curve" smooth="yes"/>
      <point x="81.0" y="800" type="line" smooth="yes"/>
      <point x="56.0" y="800"/>
      <point x="45.0" y="789"/>
      <point x="45.0" y="764" type="curve" smooth="yes"/>
      <point x="45.0" y="643" type="line" smooth="yes"/>
      <point x="45.0" y="618"/>
      <point x="56.0" y="607"/>
      <point x="81.0" y="607" type="curve" smooth="yes"/>
      <point x="153.0" y="607" type="line"/>
    </contour>
  </outline>
</glyph>
<glyph name="asciicircum" format="2">
  <advance width="714"/>
  <unicode hex="005E"/>
  <outline>
    <contour>
      <point x="40.0" y="208" type="line"/>
      <point x="35.0" y="183"/>
      <point x="45.0" y="172"/>
      <point x="70.0" y="172" type="curve" smooth="yes"/>
      <point x="202.0" y="171" type="line" smooth="yes"/>
      <point x="228.0" y="170"/>
      <point x="240.0" y="181"/>
      <point x="243.0" y="206" type="curve" smooth="yes"/>
      <point x="321.0" y="495" type="line" smooth="yes"/>
      <point x="324.0" y="509"/>
      <point x="327.0" y="513"/>
      <point x="340.0" y="512" type="curve" smooth="yes"/>
      <point x="352.0" y="513"/>
      <point x="355.0" y="509"/>
      <point x="358.0" y="495" type="curve" smooth="yes"/>
      <point x="436.0" y="206" type="line" smooth="yes"/>
      <point x="439.0" y="181"/>
      <point x="451.0" y="170"/>
      <point x="477.0" y="171" type="curve" smooth="yes"/>
      <point x="609.0" y="172" type="line" smooth="yes"/>
      <point x="634.0" y="172"/>
      <point x="644.0" y="183"/>
      <point x="639.0" y="208" type="curve" smooth="yes"/>
      <point x="531.0" y="589" type="line" smooth="yes"/>
      <point x="506.0" y="672"/>
      <point x="475.0" y="717"/>
      <point x="376.0" y="717" type="curve" smooth="yes"/>
      <point x="303.0" y="717" type="line" smooth="yes"/>
      <point x="204.0" y="717"/>
      <point x="172.0" y="672"/>
      <point x="148.0" y="589" type="curve" smooth="yes"/>
    </contour>
  </outline>
</glyph>
<glyph name="braceleft" format="2">
  <advance width="455"/>
  <unicode hex="007B"/>
  <outline>
    <contour>
      <point x="312.0" y="161" type="curve"/>
      <point x="312.0" y="276" type="line"/>
      <point x="312.0" y="316"/>
      <point x="302.0" y="332"/>
      <point x="267.0" y="338" type="curve" smooth="yes"/>
      <point x="234.0" y="344" type="line" smooth="yes"/>
      <point x="224.0" y="346"/>
      <point x="221.0" y="349"/>
      <point x="221.0" y="358" type="curve" smooth="yes"/>
      <point x="221.0" y="367"/>
      <point x="224.0" y="371"/>
      <point x="234.0" y="372" type="curve"/>
      <point x="267.0" y="378" type="line" smooth="yes"/>
      <point x="302.0" y="384"/>
      <point x="312.0" y="400"/>
      <point x="312.0" y="440" type="curve" smooth="yes"/>
      <point x="312.0" y="557" type="line" smooth="yes"/>
      <point x="312.0" y="592"/>
      <point x="321.0" y="607"/>
      <point x="353.0" y="607" type="curve" smooth="yes"/>
      <point x="374.0" y="607" type="line" smooth="yes"/>
      <point x="399.0" y="607"/>
      <point x="410.0" y="618"/>
      <point x="410.0" y="643" type="curve" smooth="yes"/>
      <point x="410.0" y="764" type="line" smooth="yes"/>
      <point x="410.0" y="789"/>
      <point x="399.0" y="800"/>
      <point x="374.0" y="800" type="curve" smooth="yes"/>
      <point x="330.0" y="800" type="line" smooth="yes"/>
      <point x="141.0" y="800"/>
      <point x="84.0" y="717"/>
      <point x="84.0" y="595" type="curve" smooth="yes"/>
      <point x="84.0" y="462" type="line"/>
      <point x="41.0" y="449"/>
      <point x="20.0" y="424"/>
      <point x="20.0" y="376" type="curve" smooth="yes"/>
      <point x="20.0" y="341" type="line" smooth="yes"/>
      <point x="20.0" y="293"/>
      <point x="41.0" y="267"/>
      <point x="84.0" y="254" type="curve"/>
      <point x="84.0" y="124" type="line" smooth="yes"/>
      <point x="84.0" y="3"/>
      <point x="141.0" y="-80"/>
      <point x="330.0" y="-80" type="curve" smooth="yes"/>
      <point x="374.0" y="-80" type="line" smooth="yes"/>
      <point x="399.0" y="-80"/>
      <point x="410.0" y="-69"/>
      <point x="410.0" y="-44" type="curve" smooth="yes"/>
      <point x="410.0" y="75" type="line" smooth="yes"/>
      <point x="410.0" y="100"/>
      <point x="399.0" y="111"/>
      <point x="374.0" y="111" type="curve" smooth="yes"/>
      <point x="353.0" y="111" type="line" smooth="yes"/>
      <point x="321.0" y="111"/>
      <point x="312.0" y="126"/>
    </contour>
  </outline>
</glyph>
<glyph name="bar" format="1">
  <advance width="347"/>
  <unicode hex="007C"/>
  <outline>
    <contour>
      <point x="282.0" y="774" type="line" smooth="yes"/>
      <point x="282.0" y="799"/>
      <point x="271.0" y="810"/>
      <point x="246.0" y="810" type="curve" smooth="yes"/>
      <point x="101.0" y="810" type="line" smooth="yes"/>
      <point x="76.0" y="810"/>
      <point x="65.0" y="799"/>
      <point x="65.0" y="774" type="curve" smooth="yes"/>
      <point x="65.0" y="-54" type="line" smooth="yes"/>
      <point x="65.0" y="-79"/>
      <point x="76.0" y="-90"/>
      <point x="101.0" y="-90" type="curve" smooth="yes"/>
      <point x="246.0" y="-90" type="line" smooth="yes"/>
      <point x="271.0" y="-90"/>
      <point x="282.0" y="-79"/>
      <point x="282.0" y="-54" type="curve"/>
    </contour>
  </outline>
</glyph>
<glyph name="asciitilde" format="2">
  <advance width="734"/>
  <unicode hex="007E"/>
  <outline>
    <contour>
      <point x="367.0" y="277" type="line"/>
      <point x="390.0" y="274" type="line" smooth="yes"/>
      <point x="503.0" y="257"/>
      <point x="524.0" y="250"/>
      <point x="627.0" y="286" type="curve" smooth="yes"/>
      <point x="645.0" y="293"/>
      <point x="664.0" y="304"/>
      <point x="664.0" y="339" type="curve" smooth="yes"/>
      <point x="664.0" y="438" type="line" smooth="yes"/>
      <point x="664.0" y="468"/>
      <point x="647.0" y="479"/>
      <point x="612.0" y="469" type="curve" smooth="yes"/>
      <point x="529.0" y="444"/>
      <point x="523.0" y="440"/>
      <point x="398.0" y="458" type="curve" smooth="yes"/>
      <point x="367.0" y="462" type="line"/>
      <point x="343.0" y="465" type="line" smooth="yes"/>
      <point x="229.0" y="482"/>
      <point x="210.0" y="489"/>
      <point x="107.0" y="453" type="curve" smooth="yes"/>
      <point x="87.0" y="446"/>
      <point x="70.0" y="435"/>
      <point x="70.0" y="400" type="curve" smooth="yes"/>
      <point x="70.0" y="294" type="line" smooth="yes"/>
      <point x="70.0" y="271"/>
      <point x="87.0" y="260"/>
      <point x="121.0" y="269" type="curve"/>
      <point x="196.0" y="292"/>
      <point x="219.0" y="298"/>
      <point x="327.0" y="282" type="curve"/>
    </contour>
  </outline>
</glyph>
<glyph name="exclamdown" format="1">
  <advance width="423"/>
  <unicode hex="00A1"/>
  <outline>
    <contour>
      <point x="120.0" y="720" type="line" smooth="yes"/>
      <point x="95.0" y="720"/>
      <point x="84.0" y="709"/>
      <point x="84.0" y="684" type="curve"/>
      <point x="84.0" y="553" type="line"/>
      <point x="84.0" y="527"/>
      <point x="95.0" y="517"/>
      <point x="120.0" y="517" type="curve" smooth="yes"/>
      <point x="304.0" y="517" type="line" smooth="yes"/>
      <point x="329.0" y="517"/>
      <point x="340.0" y="527"/>
      <point x="340.0" y="553" type="curve" smooth="yes"/>
      <point x="340.0" y="684" type="line" smooth="yes"/>
      <point x="340.0" y="709"/>
      <point x="329.0" y="720"/>
      <point x="304.0" y="720" type="curve" smooth="yes"/>
    </contour>
    <contour>
      <point x="134.0" y="458" type="line" smooth="yes"/>
      <point x="109.0" y="458"/>
      <point x="98.0" y="447"/>
      <point x="97.0" y="422" type="curve" smooth="yes"/>
      <point x="82.0" y="36" type="line" smooth="yes"/>
      <point x="81.0" y="11"/>
      <point x="91.0" y="0"/>
      <point x="116.0" y="0" type="curve" smooth="yes"/>
      <point x="307.0" y="0" type="line" smooth="yes"/>
      <point x="332.0" y="0"/>
      <point x="342.0" y="11"/>
      <point x="341.0" y="36" type="curve" smooth="yes"/>
      <point x="327.0" y="422" type="line" smooth="yes"/>
      <point x="326.0" y="447"/>
      <point x="314.0" y="458"/>
      <point x="289.0" y="458" type="curve" smooth="yes"/>
    </contour>
  </outline>
</glyph>
<glyph name="yen" format="2">
  <advance width="703"/>
  <unicode hex="00A5"/>
  <outline>
    <contour>
      <point x="464.0" y="36" type="curve" smooth="yes"/>
      <point x="464.0" y="130" type="line"/>
      <point x="573.0" y="130" type="line" smooth="yes"/>
      <point x="598.0" y="130"/>
      <point x="609.0" y="140"/>
      <point x="609.0" y="166" type="curve" smooth="yes"/>
      <point x="609.0" y="263" type="line" smooth="yes"/>
      <point x="609.0" y="289"/>
      <point x="598.0" y="299"/>
      <point x="573.0" y="299" type="curve" smooth="yes"/>
      <point x="520.0" y="299" type="line"/>
      <point x="630.0" y="441" type="line" smooth="yes"/>
      <point x="658.0" y="479"/>
      <point x="659.0" y="520"/>
      <point x="659.0" y="571" type="curve"/>
      <point x="659.0" y="684" type="line" smooth="yes"/>
      <point x="659.0" y="709"/>
      <point x="648.0" y="720"/>
      <point x="623.0" y="720" type="curve" smooth="yes"/>
      <point x="476.0" y="720" type="line" smooth="yes"/>
      <point x="450.0" y="720"/>
      <point x="440.0" y="709"/>
      <point x="440.0" y="684" type="curve" smooth="yes"/>
      <point x="440.0" y="539" type="line" smooth="yes"/>
      <point x="440.0" y="525"/>
      <point x="441.0" y="512"/>
      <point x="432.0" y="498" type="curve" smooth="yes"/>
      <point x="389.0" y="434" type="line" smooth="yes"/>
      <point x="381.0" y="422"/>
      <point x="374.0" y="417"/>
      <point x="363.0" y="417" type="curve" smooth="yes"/>
      <point x="351.0" y="417" type="line" smooth="yes"/>
      <point x="340.0" y="417"/>
      <point x="333.0" y="423"/>
      <point x="325.0" y="434" type="curve" smooth="yes"/>
      <point x="279.0" y="499" type="line" smooth="yes"/>
      <point x="272.0" y="514"/>
      <point x="271.0" y="526"/>
      <point x="271.0" y="540" type="curve" smooth="yes"/>
      <point x="271.0" y="684" type="line" smooth="yes"/>
      <point x="271.0" y="709"/>
      <point x="260.0" y="720"/>
      <point x="235.0" y="720" type="curve" smooth="yes"/>
      <point x="80.0" y="720" type="line" smooth="yes"/>
      <point x="55.0" y="720"/>
      <point x="44.0" y="709"/>
      <point x="44.0" y="684" type="curve" smooth="yes"/>
      <point x="44.0" y="572" type="line" smooth="yes"/>
      <point x="44.0" y="521"/>
      <point x="44.0" y="480"/>
      <point x="73.0" y="442" type="curve" smooth="yes"/>
      <point x="184.0" y="299" type="line"/>
      <point x="131.0" y="299" type="line" smooth="yes"/>
      <point x="106.0" y="299"/>
      <point x="95.0" y="288"/>
      <point x="95.0" y="263" type="curve" smooth="yes"/>
      <point x="95.0" y="166" type="line" smooth="yes"/>
      <point x="95.0" y="140"/>
      <point x="106.0" y="130"/>
      <point x="131.0" y="130" type="curve"/>
      <point x="240.0" y="130" type="line"/>
      <point x="240.0" y="36" type="line" smooth="yes"/>
      <point x="240.0" y="11"/>
      <point x="250.0" y="0"/>
      <point x="276.0" y="0" type="curve" smooth="yes"/>
      <point x="428.0" y="0" type="line" smooth="yes"/>
      <point x="453.0" y="0"/>
      <point x="464.0" y="11"/>
    </contour>
  </outline>
</glyph>
<glyph name="dieresis" format="1">
  <advance width="500"/>
  <unicode hex="00A8"/>
  <outline>
    <contour>
      <point x="446.0" y="760" type="line" smooth="yes"/>
      <point x="469.0" y="760"/>
      <point x="479.0" y="770"/>
      <point x="479.0" y="793" type="curve" smooth="yes"/>
      <point x="479.0" y="914" type="line" smooth="yes"/>
      <point x="479.0" y="937"/>
      <point x="469.0" y="947"/>
      <point x="446.0" y="947" type="curve" smooth="yes"/>
      <point x="308.0" y="947" type="line" smooth="yes"/>
      <point x="285.0" y="947"/>
      <point x="275.0" y="937"/>
      <point x="275.0" y="914" type="curve" smooth="yes"/>
      <point x="275.0" y="793" type="line" smooth="yes"/>
      <point x="275.0" y="770"/>
      <point x="285.0" y="760"/>
      <point x="308.0" y="760" type="curve" smooth="yes"/>
    </contour>
    <contour>
      <point x="188.0" y="760" type="line" smooth="yes"/>
      <point x="211.0" y="760"/>
      <point x="221.0" y="770"/>
      <point x="221.0" y="793" type="curve" smooth="yes"/>
      <point x="221.0" y="914" type="line" smooth="yes"/>
      <point x="221.0" y="937"/>
      <point x="211.0" y="947"/>
      <point x="188.0" y="947" type="curve" smooth="yes"/>
      <point x="50.0" y="947" type="line" smooth="yes"/>
      <point x="27.0" y="947"/>
      <point x="16.0" y="937"/>
      <point x="16.0" y="914" type="curve" smooth="yes"/>
      <point x="16.0" y="793" type="line" smooth="yes"/>
      <point x="16.0" y="770"/>
      <point x="27.0" y="760"/>
      <point x="50.0" y="760" type="curve" smooth="yes"/>
    </contour>
    <contour>
      <point x="250.0" y="747.0" type="move" name="_top"/>
    </contour>
    <contour>
      <point x="250.0" y="0.0" type="move" name="_bottom"/>
    </contour>
  </outline>
</glyph>
<glyph name="copyright" format="2">
  <advance width="867"/>
  <unicode hex="00A9"/>
  <outline>
    <contour>
      <point x="807.0" y="154" type="curve" smooth="yes"/>
      <point x="807.0" y="564" type="line" smooth="yes"/>
      <point x="807.0" y="711"/>
      <point x="735.0" y="811"/>
      <point x="434.0" y="811" type="curve" smooth="yes"/>
      <point x="134.0" y="811"/>
      <point x="60.0" y="711"/>
      <point x="60.0" y="564" type="curve" smooth="yes"/>
      <point x="60.0" y="154" type="line" smooth="yes"/>
      <point x="60.0" y="8"/>
      <point x="134.0" y="-91"/>
      <point x="434.0" y="-91" type="curve" smooth="yes"/>
      <point x="735.0" y="-91"/>
      <point x="807.0" y="8"/>
    </contour>
    <contour>
      <point x="707.0" y="150" type="line"/>
      <point x="707.0" y="64"/>
      <point x="654.0" y="5"/>
      <point x="434.0" y="5" type="curve" smooth="yes"/>
      <point x="214.0" y="5"/>
      <point x="160.0" y="64"/>
      <point x="160.0" y="150" type="curve"/>
      <point x="160.0" y="568" type="line"/>
      <point x="160.0" y="655"/>
      <point x="214.0" y="715"/>
      <point x="434.0" y="715" type="curve" smooth="yes"/>
      <point x="654.0" y="715"/>
      <point x="707.0" y="655"/>
      <point x="707.0" y="568" type="curve"/>
    </contour>
    <contour>
      <point x="589.0" y="110" type="line" smooth="yes"/>
      <point x="607.0" y="110"/>
      <point x="615.0" y="118"/>
      <point x="615.0" y="136" type="curve" smooth="yes"/>
      <point x="615.0" y="221" type="line" smooth="yes"/>
      <point x="615.0" y="239"/>
      <point x="607.0" y="247"/>
      <point x="589.0" y="247" type="curve" smooth="yes"/>
      <point x="445.0" y="247" type="line" smooth="yes"/>
      <point x="407.0" y="247"/>
      <point x="401.0" y="261"/>
      <point x="401.0" y="281" type="curve" smooth="yes"/>
      <point x="401.0" y="452" type="line" smooth="yes"/>
      <point x="401.0" y="470"/>
      <point x="407.0" y="488"/>
      <point x="445.0" y="488" type="curve" smooth="yes"/>
      <point x="589.0" y="488" type="line" smooth="yes"/>
      <point x="607.0" y="488"/>
      <point x="615.0" y="496"/>
      <point x="615.0" y="513" type="curve" smooth="yes"/>
      <point x="615.0" y="600" type="line" smooth="yes"/>
      <point x="615.0" y="618"/>
      <point x="607.0" y="626"/>
      <point x="589.0" y="626" type="curve" smooth="yes"/>
      <point x="414.0" y="626" type="line" smooth="yes"/>
      <point x="278.0" y="626"/>
      <point x="238.0" y="567"/>
      <point x="238.0" y="479" type="curve" smooth="yes"/>
      <point x="238.0" y="256" type="line" smooth="yes"/>
      <point x="238.0" y="169"/>
      <point x="278.0" y="110"/>
      <point x="414.0" y="110" type="curve" smooth="yes"/>
    </contour>
  </outline>
</glyph>
<glyph name="ordfeminine" format="1">
  <advance width="520"/>
  <unicode hex="00AA"/>
  <outline>
    <contour>
      <point x="243.0" y="568" type="line" smooth="yes"/>
      <point x="244.0" y="573"/>
      <point x="247.0" y="578"/>
      <point x="251.0" y="578" type="curve" smooth="yes"/>
      <point x="264.0" y="578" type="line" smooth="yes"/>
      <point x="267.0" y="578"/>
      <point x="271.0" y="573"/>
      <point x="273.0" y="568" type="curve" smooth="yes"/>
      <point x="307.0" y="463" type="line"/>
      <point x="208.0" y="463" type="line"/>
    </contour>
    <contour>
      <point x="199.0" y="232" type="curve" smooth="yes"/>
      <point x="199.0" y="327" type="line"/>
      <point x="316.0" y="327" type="line"/>
      <point x="316.0" y="232" type="line" smooth="yes"/>
      <point x="316.0" y="212"/>
      <point x="326.0" y="202"/>
      <point x="346.0" y="202" type="curve" smooth="yes"/>
      <point x="454.0" y="202" type="line" smooth="yes"/>
      <point x="476.0" y="202"/>
      <point x="484.0" y="212"/>
      <point x="484.0" y="232" type="curve" smooth="yes"/>
      <point x="484.0" y="411" type="line" smooth="yes"/>
      <point x="484.0" y="451"/>
      <point x="475.0" y="488"/>
      <point x="464.0" y="519" type="curve" smooth="yes"/>
      <point x="402.0" y="688" type="line"/>
      <point x="392.0" y="711"/>
      <point x="381.0" y="720"/>
      <point x="355.0" y="720" type="curve" smooth="yes"/>
      <point x="166.0" y="720" type="line" smooth="yes"/>
      <point x="139.0" y="720"/>
      <point x="128.0" y="711"/>
      <point x="118.0" y="688" type="curve"/>
      <point x="99.0" y="634"/>
      <point x="76.0" y="574"/>
      <point x="57.0" y="519" type="curve"/>
      <point x="45.0" y="488"/>
      <point x="36.0" y="451"/>
      <point x="36.0" y="411" type="curve" smooth="yes"/>
      <point x="36.0" y="232" type="line" smooth="yes"/>
      <point x="36.0" y="212"/>
      <point x="46.0" y="202"/>
      <point x="66.0" y="202" type="curve" smooth="yes"/>
      <point x="169.0" y="202" type="line" smooth="yes"/>
      <point x="190.0" y="202"/>
      <point x="199.0" y="212"/>
    </contour>
    <contour>
      <point x="72.0" y="0" type="curve"/>
      <point x="448.0" y="0" type="line" smooth="yes"/>
      <point x="473.0" y="0"/>
      <point x="484.0" y="10"/>
      <point x="484.0" y="36" type="curve" smooth="yes"/>
      <point x="484.0" y="103" type="line" smooth="yes"/>
      <point x="484.0" y="129"/>
      <point x="473.0" y="139"/>
      <point x="448.0" y="139" type="curve" smooth="yes"/>
      <point x="72.0" y="139" type="line" smooth="yes"/>
      <point x="47.0" y="139"/>
      <point x="36.0" y="128"/>
      <point x="36.0" y="103" type="curve" smooth="yes"/>
      <point x="36.0" y="36" type="line" smooth="yes"/>
      <point x="36.0" y="10"/>
      <point x="47.0" y="0"/>
    </contour>
    <contour>
      <point x="263.0" y="745.0" type="move" name="top"/>
    </contour>
    <contour>
      <point x="263.0" y="207.0" type="move" name="bottom"/>
    </contour>
  </outline>
</glyph>
<glyph name="logicalnot" format="1">
  <advance width="734"/>
  <unicode hex="00AC"/>
  <outline>
    <contour>
      <point x="628.0" y="63" type="line" smooth="yes"/>
      <point x="654.0" y="63"/>
      <point x="664.0" y="74"/>
      <point x="664.0" y="99" type="curve" smooth="yes"/>
      <point x="664.0" y="457" type="line" smooth="yes"/>
      <point x="664.0" y="483"/>
      <point x="653.0" y="493"/>
      <point x="628.0" y="493" type="curve" smooth="yes"/>
      <point x="106.0" y="493" type="line" smooth="yes"/>
      <point x="81.0" y="493"/>
      <point x="70.0" y="482"/>
      <point x="70.0" y="457" type="curve" smooth="yes"/>
      <point x="70.0" y="343" type="line" smooth="yes"/>
      <point x="70.0" y="317"/>
      <point x="81.0" y="307"/>
      <point x="106.0" y="307" type="curve"/>
      <point x="468.0" y="307" type="line"/>
      <point x="468.0" y="99" type="line" smooth="yes"/>
      <point x="468.0" y="74"/>
      <point x="478.0" y="63"/>
      <point x="504.0" y="63" type="curve" smooth="yes"/>
    </contour>
  </outline>
</glyph>
<glyph name="registered" format="2">
  <advance width="560"/>
  <unicode hex="00AE"/>
  <outline>
    <contour>
      <point x="504.0" y="345" type="curve" smooth="yes"/>
      <point x="504.0" y="591" type="line" smooth="yes"/>
      <point x="504.0" y="680"/>
      <point x="461.0" y="740"/>
      <point x="280.0" y="740" type="curve" smooth="yes"/>
      <point x="100.0" y="740"/>
      <point x="56.0" y="680"/>
      <point x="56.0" y="591" type="curve" smooth="yes"/>
      <point x="56.0" y="345" type="line" smooth="yes"/>
      <point x="56.0" y="258"/>
      <point x="100.0" y="198"/>
      <point x="280.0" y="198" type="curve" smooth="yes"/>
      <point x="461.0" y="198"/>
      <point x="504.0" y="258"/>
    </contour>
    <contour>
      <point x="444.0" y="343" type="line"/>
      <point x="444.0" y="291"/>
      <point x="412.0" y="256"/>
      <point x="280.0" y="256" type="curve" smooth="yes"/>
      <point x="148.0" y="256"/>
      <point x="116.0" y="291"/>
      <point x="116.0" y="343" type="curve"/>
      <point x="116.0" y="594" type="line"/>
      <point x="116.0" y="646"/>
      <point x="148.0" y="682"/>
      <point x="280.0" y="682" type="curve" smooth="yes"/>
      <point x="412.0" y="682"/>
      <point x="444.0" y="646"/>
      <point x="444.0" y="594" type="curve"/>
    </contour>
    <contour>
      <point x="248.0" y="548" type="line"/>
      <point x="279.0" y="548" type="line" smooth="yes"/>
      <point x="294.0" y="548"/>
      <point x="297.0" y="539"/>
      <point x="297.0" y="528" type="curve" smooth="yes"/>
      <point x="297.0" y="515" type="line" smooth="yes"/>
      <point x="297.0" y="503"/>
      <point x="294.0" y="495"/>
      <point x="279.0" y="495" type="curve" smooth="yes"/>
      <point x="248.0" y="495" type="line"/>
    </contour>
    <contour>
      <point x="234.0" y="326" type="line" smooth="yes"/>
      <point x="244.0" y="326"/>
      <point x="248.0" y="331"/>
      <point x="248.0" y="341" type="curve" smooth="yes"/>
      <point x="248.0" y="424" type="line"/>
      <point x="306.0" y="424" type="line" smooth="yes"/>
      <point x="317.0" y="424"/>
      <point x="321.0" y="419"/>
      <point x="321.0" y="407" type="curve" smooth="yes"/>
      <point x="321.0" y="341" type="line" smooth="yes"/>
      <point x="321.0" y="331"/>
      <point x="326.0" y="326"/>
      <point x="336.0" y="326" type="curve" smooth="yes"/>
      <point x="400.0" y="326" type="line" smooth="yes"/>
      <point x="410.0" y="326"/>
      <point x="414.0" y="331"/>
      <point x="414.0" y="341" type="curve" smooth="yes"/>
      <point x="414.0" y="428" type="line" smooth="yes"/>
      <point x="414.0" y="462"/>
      <point x="394.0" y="484"/>
      <point x="364.0" y="488" type="curve"/>
      <point x="382.0" y="495"/>
      <point x="388.0" y="511"/>
      <point x="388.0" y="534" type="curve" smooth="yes"/>
      <point x="388.0" y="553" type="line" smooth="yes"/>
      <point x="388.0" y="594"/>
      <point x="369.0" y="621"/>
      <point x="307.0" y="621" type="curve" smooth="yes"/>
      <point x="171.0" y="621" type="line" smooth="yes"/>
      <point x="160.0" y="621"/>
      <point x="156.0" y="617"/>
      <point x="156.0" y="606" type="curve"/>
      <point x="156.0" y="341" type="line"/>
      <point x="156.0" y="331"/>
      <point x="160.0" y="326"/>
      <point x="171.0" y="326" type="curve" smooth="yes"/>
    </contour>
  </outline>
</glyph>
<glyph name="mu" format="1">
  <advance width="713"/>
  <unicode hex="00B5"/>
  <outline>
    <contour>
      <point x="288.0" y="-54" type="curve" smooth="yes"/>
      <point x="288.0" y="-7" type="line"/>
      <point x="314.0" y="-12"/>
      <point x="344.0" y="-15"/>
      <point x="378.0" y="-15" type="curve" smooth="yes"/>
      <point x="602.0" y="-15"/>
      <point x="657.0" y="67"/>
      <point x="657.0" y="189" type="curve" smooth="yes"/>
      <point x="657.0" y="534" type="line" smooth="yes"/>
      <point x="657.0" y="559"/>
      <point x="646.0" y="570"/>
      <point x="621.0" y="570" type="curve" smooth="yes"/>
      <point x="469.0" y="570" type="line" smooth="yes"/>
      <point x="443.0" y="570"/>
      <point x="433.0" y="559"/>
      <point x="433.0" y="534" type="curve" smooth="yes"/>
      <point x="433.0" y="218" type="line" smooth="yes"/>
      <point x="433.0" y="191"/>
      <point x="422.0" y="171"/>
      <point x="360.0" y="171" type="curve" smooth="yes"/>
      <point x="299.0" y="171"/>
      <point x="288.0" y="191"/>
      <point x="288.0" y="218" type="curve" smooth="yes"/>
      <point x="288.0" y="534" type="line" smooth="yes"/>
      <point x="288.0" y="559"/>
      <point x="277.0" y="570"/>
      <point x="252.0" y="570" type="curve" smooth="yes"/>
      <point x="97.0" y="570" type="line" smooth="yes"/>
      <point x="72.0" y="570"/>
      <point x="61.0" y="559"/>
      <point x="61.0" y="534" type="curve" smooth="yes"/>
      <point x="61.0" y="-54" type="line" smooth="yes"/>
      <point x="61.0" y="-79"/>
      <point x="72.0" y="-90"/>
      <point x="97.0" y="-90" type="curve" smooth="yes"/>
      <point x="252.0" y="-90" type="line" smooth="yes"/>
      <point x="277.0" y="-90"/>
      <point x="288.0" y="-79"/>
    </contour>
  </outline>
</glyph>
<glyph name="paragraph" format="1">
  <advance width="682"/>
  <unicode hex="00B6"/>
  <outline>
    <contour>
      <point x="339.0" y="0" type="line" smooth="yes"/>
      <point x="364.0" y="0"/>
      <point x="375.0" y="11"/>
      <point x="375.0" y="36" type="curve" smooth="yes"/>
      <point x="375.0" y="202" type="line"/>
      <point x="426.0" y="202" type="line"/>
      <point x="426.0" y="36" type="line" smooth="yes"/>
      <point x="426.0" y="11"/>
      <point x="437.0" y="0"/>
      <point x="462.0" y="0" type="curve" smooth="yes"/>
      <point x="577.0" y="0" type="line" smooth="yes"/>
      <point x="602.0" y="0"/>
      <point x="613.0" y="11"/>
      <point x="613.0" y="36" type="curve" smooth="yes"/>
      <point x="613.0" y="684" type="line" smooth="yes"/>
      <point x="613.0" y="709"/>
      <point x="602.0" y="720"/>
      <point x="577.0" y="720" type="curve" smooth="yes"/>
      <point x="271.0" y="720" type="line" smooth="yes"/>
      <point x="89.0" y="720"/>
      <point x="35.0" y="641"/>
      <point x="35.0" y="525" type="curve" smooth="yes"/>
      <point x="35.0" y="397" type="line" smooth="yes"/>
      <point x="35.0" y="301"/>
      <point x="72.0" y="230"/>
      <point x="188.0" y="209" type="curve"/>
      <point x="188.0" y="36" type="line" smooth="yes"/>
      <point x="188.0" y="11"/>
      <point x="199.0" y="0"/>
      <point x="224.0" y="0" type="curve" smooth="yes"/>
    </contour>
  </outline>
</glyph>
<glyph name="onesuperior" format="2">
  <advance width="457"/>
  <unicode hex="00B9"/>
  <outline>
    <contour>
      <point x="392.0" y="202" type="line" smooth="yes"/>
      <point x="410.0" y="202"/>
      <point x="418.0" y="210"/>
      <point x="418.0" y="228" type="curve"/>
      <point x="418.0" y="315" type="line" smooth="yes"/>
      <point x="418.0" y="333"/>
      <point x="410.0" y="341"/>
      <point x="392.0" y="341" type="curve"/>
      <point x="323.0" y="341" type="line"/>
      <point x="323.0" y="694" type="line" smooth="yes"/>
      <point x="323.0" y="712"/>
      <point x="315.0" y="720"/>
      <point x="297.0" y="720" type="curve" smooth="yes"/>
      <point x="88.0" y="720" type="line" smooth="yes"/>
      <point x="70.0" y="720"/>
      <point x="62.0" y="712"/>
      <point x="62.0" y="694" type="curve" smooth="yes"/>
      <point x="62.0" y="607" type="line" smooth="yes"/>
      <point x="62.0" y="589"/>
      <point x="70.0" y="581"/>
      <point x="88.0" y="581" type="curve" smooth="yes"/>
      <point x="155.0" y="581" type="line"/>
      <point x="155.0" y="341" type="line"/>
      <point x="74.0" y="341" type="line" smooth="yes"/>
      <point x="56.0" y="341"/>
      <point x="48.0" y="333"/>
      <point x="48.0" y="315" type="curve"/>
      <point x="48.0" y="228" type="line"/>
      <point x="48.0" y="210"/>
      <point x="56.0" y="202"/>
      <point x="74.0" y="202" type="curve" smooth="yes"/>
    </contour>
  </outline>
</glyph>
<glyph name="ordmasculine" format="2">
  <advance width="525"/>
  <unicode hex="00BA"/>
  <anchor x="265.0" y="745.0" name="top"/>
  <anchor x="265.0" y="207.0" name="bottom"/>
  <outline>
    <contour>
      <point x="486.0" y="340" type="curve"/>
      <point x="486.0" y="581" type="line"/>
      <point x="486.0" y="670"/>
      <point x="443.0" y="730"/>
      <point x="263.0" y="730" type="curve" smooth="yes"/>
      <point x="83.0" y="730"/>
      <point x="39.0" y="670"/>
      <point x="39.0" y="581" type="curve"/>
      <point x="39.0" y="340" type="line"/>
      <point x="39.0" y="252"/>
      <point x="83.0" y="192"/>
      <point x="263.0" y="192" type="curve" smooth="yes"/>
      <point x="443.0" y="192"/>
      <point x="486.0" y="252"/>
    </contour>
    <contour>
      <point x="208.0" y="365" type="curve"/>
      <point x="208.0" y="555" type="line"/>
      <point x="208.0" y="571"/>
      <point x="216.0" y="584"/>
      <point x="263.0" y="584" type="curve" smooth="yes"/>
      <point x="311.0" y="584"/>
      <point x="318.0" y="571"/>
      <point x="318.0" y="555" type="curve"/>
      <point x="318.0" y="365" type="line"/>
      <point x="318.0" y="349"/>
      <point x="311.0" y="337"/>
      <point x="263.0" y="337" type="curve" smooth="yes"/>
      <point x="216.0" y="337"/>
      <point x="208.0" y="349"/>
    </contour>
    <contour>
      <point x="75.0" y="0" type="curve"/>
      <point x="450.0" y="0" type="line" smooth="yes"/>
      <point x="475.0" y="0"/>
      <point x="486.0" y="10"/>
      <point x="486.0" y="36" type="curve" smooth="yes"/>
      <point x="486.0" y="103" type="line" smooth="yes"/>
      <point x="486.0" y="129"/>
      <point x="475.0" y="139"/>
      <point x="450.0" y="139" type="curve" smooth="yes"/>
      <point x="75.0" y="139" type="line" smooth="yes"/>
      <point x="50.0" y="139"/>
      <point x="39.0" y="128"/>
      <point x="39.0" y="103" type="curve" smooth="yes"/>
      <point x="39.0" y="36" type="line" smooth="yes"/>
      <point x="39.0" y="10"/>
      <point x="50.0" y="0"/>
    </contour>
  </outline>
</glyph>
<glyph name="guillemotright" format="1">
  <advance width="812"/>
  <unicode hex="00BB"/>
  <outline>
    <contour>
      <point x="456.0" y="106" type="curve" smooth="yes"/>
      <point x="635.0" y="157" type="line" smooth="yes"/>
      <point x="718.0" y="181"/>
      <point x="762.0" y="213"/>
      <point x="762.0" y="312" type="curve" smooth="yes"/>
      <point x="762.0" y="386" type="line" smooth="yes"/>
      <point x="762.0" y="485"/>
      <point x="718.0" y="517"/>
      <point x="635.0" y="541" type="curve" smooth="yes"/>
      <point x="456.0" y="593" type="line" smooth="yes"/>
      <point x="432.0" y="600"/>
      <point x="420.0" y="588"/>
      <point x="420.0" y="562" type="curve" smooth="yes"/>
      <point x="420.0" y="445" type="line" smooth="yes"/>
      <point x="420.0" y="419"/>
      <point x="432.0" y="403"/>
      <point x="456.0" y="396" type="curve"/>
      <point x="551.0" y="368" type="line"/>
      <point x="564.0" y="363"/>
      <point x="568.0" y="361"/>
      <point x="568.0" y="349" type="curve" smooth="yes"/>
      <point x="568.0" y="337"/>
      <point x="565.0" y="335"/>
      <point x="551.0" y="330" type="curve"/>
      <point x="456.0" y="303" type="line" smooth="yes"/>
      <point x="432.0" y="296"/>
      <point x="420.0" y="280"/>
      <point x="420.0" y="254" type="curve" smooth="yes"/>
      <point x="420.0" y="137" type="line" smooth="yes"/>
      <point x="420.0" y="111"/>
      <point x="432.0" y="99"/>
    </contour>
    <contour>
      <point x="265.0" y="157" type="line"/>
      <point x="348.0" y="181"/>
      <point x="392.0" y="213"/>
      <point x="392.0" y="312" type="curve" smooth="yes"/>
      <point x="392.0" y="386" type="line" smooth="yes"/>
      <point x="392.0" y="485"/>
      <point x="349.0" y="517"/>
      <point x="265.0" y="541" type="curve"/>
      <point x="96.0" y="590" type="line"/>
      <point x="72.0" y="598"/>
      <point x="60.0" y="585"/>
      <point x="60.0" y="559" type="curve" smooth="yes"/>
      <point x="60.0" y="445" type="line" smooth="yes"/>
      <point x="60.0" y="419"/>
      <point x="73.0" y="405"/>
      <point x="96.0" y="396" type="curve"/>
      <point x="191.0" y="368" type="line" smooth="yes"/>
      <point x="204.0" y="364"/>
      <point x="208.0" y="361"/>
      <point x="208.0" y="349" type="curve" smooth="yes"/>
      <point x="208.0" y="337"/>
      <point x="205.0" y="334"/>
      <point x="191.0" y="330" type="curve" smooth="yes"/>
      <point x="96.0" y="303" type="line" smooth="yes"/>
      <point x="72.0" y="296"/>
      <point x="60.0" y="280"/>
      <point x="60.0" y="254" type="curve" smooth="yes"/>
      <point x="60.0" y="140" type="line" smooth="yes"/>
      <point x="60.0" y="114"/>
      <point x="72.0" y="102"/>
      <point x="96.0" y="109" type="curve" smooth="yes"/>
    </contour>
  </outline>
</glyph>
<glyph name="questiondown" format="1">
  <advance width="656"/>
  <unicode hex="00BF"/>
  <outline>
    <contour>
      <point x="312.0" y="720" type="line" smooth="yes"/>
      <point x="287.0" y="720"/>
      <point x="276.0" y="709"/>
      <point x="276.0" y="684" type="curve" smooth="yes"/>
      <point x="276.0" y="553" type="line" smooth="yes"/>
      <point x="276.0" y="527"/>
      <point x="287.0" y="517"/>
      <point x="312.0" y="517" type="curve" smooth="yes"/>
      <point x="495.0" y="517" type="line" smooth="yes"/>
      <point x="521.0" y="517"/>
      <point x="531.0" y="527"/>
      <point x="531.0" y="553" type="curve" smooth="yes"/>
      <point x="531.0" y="684" type="line" smooth="yes"/>
      <point x="531.0" y="709"/>
      <point x="521.0" y="720"/>
      <point x="495.0" y="720" type="curve" smooth="yes"/>
    </contour>
    <contour>
      <point x="200.0" y="447" type="line" smooth="yes"/>
      <point x="105.0" y="434"/>
      <point x="45.0" y="393"/>
      <point x="45.0" y="281" type="curve" smooth="yes"/>
      <point x="45.0" y="176" type="line" smooth="yes"/>
      <point x="45.0" y="62"/>
      <point x="122.0" y="0"/>
      <point x="252.0" y="0" type="curve" smooth="yes"/>
      <point x="575.0" y="0" type="line" smooth="yes"/>
      <point x="600.0" y="0"/>
      <point x="611.0" y="11"/>
      <point x="611.0" y="36" type="curve"/>
      <point x="611.0" y="157" type="line" smooth="yes"/>
      <point x="611.0" y="183"/>
      <point x="600.0" y="193"/>
      <point x="575.0" y="193" type="curve" smooth="yes"/>
      <point x="299.0" y="193" type="line" smooth="yes"/>
      <point x="282.0" y="193"/>
      <point x="272.0" y="202"/>
      <point x="272.0" y="221" type="curve" smooth="yes"/>
      <point x="272.0" y="241"/>
      <point x="279.0" y="249"/>
      <point x="299.0" y="252" type="curve" smooth="yes"/>
      <point x="498.0" y="280" type="line" smooth="yes"/>
      <point x="523.0" y="283"/>
      <point x="535.0" y="295"/>
      <point x="531.0" y="321" type="curve" smooth="yes"/>
      <point x="510.0" y="453" type="line" smooth="yes"/>
      <point x="506.0" y="478"/>
      <point x="496.0" y="487"/>
      <point x="471.0" y="484" type="curve" smooth="yes"/>
    </contour>
  </outline>
</glyph>
<glyph name="Aring" format="2">
  <advance width="730"/>
  <unicode hex="00C5"/>
  <outline>
    <contour>
      <point x="425.0" y="764" type="line" smooth="yes"/>
      <point x="425.0" y="735"/>
      <point x="416.0" y="721"/>
      <point x="366.0" y="721" type="curve" smooth="yes"/>
      <point x="317.0" y="721"/>
      <point x="309.0" y="735"/>
      <point x="309.0" y="764" type="curve" smooth="yes"/>
      <point x="309.0" y="799" type="line" smooth="yes"/>
      <point x="309.0" y="825"/>
      <point x="317.0" y="839"/>
      <point x="366.0" y="839" type="curve" smooth="yes"/>
      <point x="416.0" y="839"/>
      <point x="425.0" y="825"/>
      <point x="425.0" y="799" type="curve" smooth="yes"/>
    </contour>
    <contour>
      <point x="330.0" y="510" type="line" smooth="yes"/>
      <point x="334.0" y="522"/>
      <point x="341.0" y="527"/>
      <point x="349.0" y="527" type="curve" smooth="yes"/>
      <point x="374.0" y="527" type="line" smooth="yes"/>
      <point x="382.0" y="527"/>
      <point x="389.0" y="522"/>
      <point x="393.0" y="510" type="curve" smooth="yes"/>
      <point x="440.0" y="358" type="line"/>
      <point x="283.0" y="358" type="line"/>
    </contour>
    <contour>
      <point x="273.0" y="36" type="curve" smooth="yes"/>
      <point x="273.0" y="176" type="line"/>
      <point x="450.0" y="176" type="line"/>
      <point x="450.0" y="36" type="line" smooth="yes"/>
      <point x="450.0" y="11"/>
      <point x="462.0" y="0"/>
      <point x="489.0" y="0" type="curve" smooth="yes"/>
      <point x="640.0" y="0" type="line" smooth="yes"/>
      <point x="665.0" y="0"/>
      <point x="676.0" y="11"/>
      <point x="676.0" y="36" type="curve" smooth="yes"/>
      <point x="676.0" y="300" type="line" smooth="yes"/>
      <point x="676.0" y="340"/>
      <point x="664.0" y="390"/>
      <point x="637.0" y="460" type="curve" smooth="yes"/>
      <point x="553.0" y="680" type="line"/>
      <point x="574.0" y="704"/>
      <point x="582.0" y="735"/>
      <point x="582.0" y="771" type="curve" smooth="yes"/>
      <point x="582.0" y="829" type="line" smooth="yes"/>
      <point x="582.0" y="914"/>
      <point x="539.0" y="972"/>
      <point x="365.0" y="972" type="curve" smooth="yes"/>
      <point x="191.0" y="972"/>
      <point x="148.0" y="914"/>
      <point x="148.0" y="829" type="curve" smooth="yes"/>
      <point x="148.0" y="771" type="line" smooth="yes"/>
      <point x="148.0" y="735"/>
      <point x="156.0" y="704"/>
      <point x="177.0" y="680" type="curve"/>
      <point x="93.0" y="460" type="line" smooth="yes"/>
      <point x="66.0" y="390"/>
      <point x="54.0" y="340"/>
      <point x="54.0" y="300" type="curve" smooth="yes"/>
      <point x="54.0" y="36" type="line" smooth="yes"/>
      <point x="54.0" y="11"/>
      <point x="65.0" y="0"/>
      <point x="90.0" y="0" type="curve" smooth="yes"/>
      <point x="237.0" y="0" type="line" smooth="yes"/>
      <point x="262.0" y="0"/>
      <point x="273.0" y="11"/>
    </contour>
  </outline>
</glyph>
<glyph name="AE" format="1">
  <advance width="1005"/>
  <unicode hex="00C6"/>
  <outline>
    <contour>
      <point x="334.0" y="514" type="line" smooth="yes"/>
      <point x="339.0" y="527"/>
      <point x="342.0" y="531"/>
      <point x="353.0" y="531" type="curve" smooth="yes"/>
      <point x="440.0" y="531" type="line"/>
      <point x="440.0" y="358" type="line"/>
      <point x="282.0" y="358" type="line"/>
    </contour>
    <contour>
      <point x="272.0" y="36" type="curve" smooth="yes"/>
      <point x="272.0" y="176" type="line"/>
      <point x="440.0" y="176" type="line"/>
      <point x="440.0" y="36" type="line"/>
      <point x="440.0" y="11"/>
      <point x="451.0" y="0"/>
      <point x="476.0" y="0" type="curve" smooth="yes"/>
      <point x="920.0" y="0" type="line" smooth="yes"/>
      <point x="945.0" y="0"/>
      <point x="956.0" y="11"/>
      <point x="956.0" y="36" type="curve" smooth="yes"/>
      <point x="956.0" y="153" type="line" smooth="yes"/>
      <point x="956.0" y="178"/>
      <point x="945.0" y="189"/>
      <point x="920.0" y="189" type="curve" smooth="yes"/>
      <point x="667.0" y="189" type="line"/>
      <point x="667.0" y="275" type="line"/>
      <point x="839.0" y="275" type="line" smooth="yes"/>
      <point x="864.0" y="275"/>
      <point x="875.0" y="286"/>
      <point x="875.0" y="311" type="curve" smooth="yes"/>
      <point x="875.0" y="418" type="line" smooth="yes"/>
      <point x="875.0" y="444"/>
      <point x="864.0" y="454"/>
      <point x="839.0" y="454" type="curve" smooth="yes"/>
      <point x="667.0" y="454" type="line"/>
      <point x="667.0" y="531" type="line"/>
      <point x="920.0" y="531" type="line" smooth="yes"/>
      <point x="945.0" y="531"/>
      <point x="956.0" y="542"/>
      <point x="956.0" y="567" type="curve" smooth="yes"/>
      <point x="956.0" y="684" type="line" smooth="yes"/>
      <point x="956.0" y="709"/>
      <point x="945.0" y="720"/>
      <point x="920.0" y="720" type="curve" smooth="yes"/>
      <point x="232.0" y="720" type="line" smooth="yes"/>
      <point x="198.0" y="720"/>
      <point x="181.0" y="710"/>
      <point x="170.0" y="679" type="curve" smooth="yes"/>
      <point x="83.0" y="440" type="line" smooth="yes"/>
      <point x="64.0" y="390"/>
      <point x="54.0" y="349"/>
      <point x="54.0" y="290" type="curve" smooth="yes"/>
      <point x="54.0" y="36" type="line" smooth="yes"/>
      <point x="54.0" y="11"/>
      <point x="65.0" y="0"/>
      <point x="90.0" y="0" type="curve" smooth="yes"/>
      <point x="236.0" y="0" type="line" smooth="yes"/>
      <point x="261.0" y="0"/>
      <point x="272.0" y="11"/>
    </contour>
  </outline>
</glyph>
<glyph name="Eth" format="1">
  <advance width="756"/>
  <unicode hex="00D0"/>
  <outline>
    <contour>
      <point x="452.0" y="0" type="line" smooth="yes"/>
      <point x="641.0" y="0"/>
      <point x="698.0" y="83"/>
      <point x="698.0" y="204" type="curve" smooth="yes"/>
      <point x="698.0" y="516" type="line" smooth="yes"/>
      <point x="698.0" y="637"/>
      <point x="641.0" y="720"/>
      <point x="452.0" y="720" type="curve" smooth="yes"/>
      <point x="115.0" y="720" type="line" smooth="yes"/>
      <point x="90.0" y="720"/>
      <point x="79.0" y="709"/>
      <point x="79.0" y="684" type="curve"/>
      <point x="79.0" y="444" type="line"/>
      <point x="56.0" y="444" type="line" smooth="yes"/>
      <point x="31.0" y="444"/>
      <point x="20.0" y="433"/>
      <point x="20.0" y="408" type="curve" smooth="yes"/>
      <point x="20.0" y="301" type="line" smooth="yes"/>
      <point x="20.0" y="275"/>
      <point x="31.0" y="265"/>
      <point x="56.0" y="265" type="curve"/>
      <point x="79.0" y="265" type="line"/>
      <point x="79.0" y="36" type="line"/>
      <point x="79.0" y="11"/>
      <point x="90.0" y="0"/>
      <point x="115.0" y="0" type="curve" smooth="yes"/>
    </contour>
    <contour>
      <point x="303.0" y="189" type="line"/>
      <point x="303.0" y="265" type="line"/>
      <point x="344.0" y="265" type="line" smooth="yes"/>
      <point x="369.0" y="265"/>
      <point x="380.0" y="275"/>
      <point x="380.0" y="301" type="curve" smooth="yes"/>
      <point x="380.0" y="408" type="line" smooth="yes"/>
      <point x="380.0" y="434"/>
      <point x="369.0" y="444"/>
      <point x="344.0" y="444" type="curve" smooth="yes"/>
      <point x="303.0" y="444" type="line"/>
      <point x="303.0" y="529" type="line"/>
      <point x="425.0" y="529" type="line" smooth="yes"/>
      <point x="465.0" y="529"/>
      <point x="472.0" y="507"/>
      <point x="472.0" y="481" type="curve" smooth="yes"/>
      <point x="472.0" y="238" type="line" smooth="yes"/>
      <point x="472.0" y="211"/>
      <point x="465.0" y="189"/>
      <point x="425.0" y="189" type="curve" smooth="yes"/>
    </contour>
  </outline>
</glyph>
<glyph name="Oslash" format="1">
  <advance width="737"/>
  <unicode hex="00D8"/>
  <outline>
    <contour>
      <point x="265.0" y="494" type="line" smooth="yes"/>
      <point x="265.0" y="526"/>
      <point x="279.0" y="550"/>
      <point x="369.0" y="550" type="curve" smooth="yes"/>
      <point x="373.0" y="550"/>
      <point x="377.0" y="550"/>
      <point x="381.0" y="550" type="curve"/>
      <point x="265.0" y="277" type="line"/>
    </contour>
    <contour>
      <point x="369.0" y="168" type="curve" smooth="yes"/>
      <point x="364.0" y="168"/>
      <point x="359.0" y="168"/>
      <point x="355.0" y="168" type="curve"/>
      <point x="473.0" y="446" type="line"/>
      <point x="473.0" y="225" type="line" smooth="yes"/>
      <point x="473.0" y="192"/>
      <point x="460.0" y="168"/>
    </contour>
    <contour>
      <point x="295.0" y="-34" type="curve"/>
      <point x="304.0" y="-13" type="line"/>
      <point x="324.0" y="-14"/>
      <point x="346.0" y="-15"/>
      <point x="369.0" y="-15" type="curve" smooth="yes"/>
      <point x="619.0" y="-15"/>
      <point x="679.0" y="67"/>
      <point x="679.0" y="189" type="curve"/>
      <point x="679.0" y="530" type="line" smooth="yes"/>
      <point x="679.0" y="598"/>
      <point x="661.0" y="653"/>
      <point x="602.0" y="689" type="curve"/>
      <point x="629.0" y="754" type="line"/>
      <point x="641.0" y="776"/>
      <point x="628.0" y="790"/>
      <point x="603.0" y="790" type="curve" smooth="yes"/>
      <point x="488.0" y="790" type="line" smooth="yes"/>
      <point x="463.0" y="790"/>
      <point x="454.0" y="776"/>
      <point x="442.0" y="754" type="curve"/>
      <point x="433.0" y="733" type="line"/>
      <point x="413.0" y="734"/>
      <point x="392.0" y="735"/>
      <point x="369.0" y="735" type="curve" smooth="yes"/>
      <point x="119.0" y="735"/>
      <point x="58.0" y="652"/>
      <point x="58.0" y="530" type="curve" smooth="yes"/>
      <point x="58.0" y="189" type="line" smooth="yes"/>
      <point x="58.0" y="122"/>
      <point x="77.0" y="67"/>
      <point x="135.0" y="31" type="curve"/>
      <point x="108.0" y="-34" type="line"/>
      <point x="96.0" y="-56"/>
      <point x="109.0" y="-70"/>
      <point x="134.0" y="-70" type="curve" smooth="yes"/>
      <point x="249.0" y="-70" type="line" smooth="yes"/>
      <point x="274.0" y="-70"/>
      <point x="283.0" y="-56"/>
    </contour>
  </outline>
</glyph>
<glyph name="Hbar" format="1">
  <advance width="779"/>
  <unicode hex="0126"/>
  <outline>
    <contour>
      <point x="303.0" y="347" type="line"/>
      <point x="303.0" y="425" type="line"/>
      <point x="476.0" y="425" type="line"/>
      <point x="476.0" y="347" type="line"/>
    </contour>
    <contour>
      <point x="303.0" y="36" type="curve" smooth="yes"/>
      <point x="303.0" y="148" type="line"/>
      <point x="476.0" y="148" type="line"/>
      <point x="476.0" y="36" type="line" smooth="yes"/>
      <point x="476.0" y="11"/>
      <point x="487.0" y="0"/>
      <point x="512.0" y="0" type="curve" smooth="yes"/>
      <point x="664.0" y="0" type="line" smooth="yes"/>
      <point x="689.0" y="0"/>
      <point x="700.0" y="11"/>
      <point x="700.0" y="36" type="curve" smooth="yes"/>
      <point x="700.0" y="425" type="line"/>
      <point x="713.0" y="425" type="line" smooth="yes"/>
      <point x="738.0" y="425"/>
      <point x="749.0" y="435"/>
      <point x="749.0" y="461" type="curve" smooth="yes"/>
      <point x="749.0" y="558" type="line" smooth="yes"/>
      <point x="749.0" y="584"/>
      <point x="738.0" y="594"/>
      <point x="713.0" y="594" type="curve" smooth="yes"/>
      <point x="700.0" y="594" type="line"/>
      <point x="700.0" y="684" type="line" smooth="yes"/>
      <point x="700.0" y="709"/>
      <point x="689.0" y="720"/>
      <point x="664.0" y="720" type="curve" smooth="yes"/>
      <point x="512.0" y="720" type="line" smooth="yes"/>
      <point x="487.0" y="720"/>
      <point x="476.0" y="709"/>
      <point x="476.0" y="684" type="curve" smooth="yes"/>
      <point x="476.0" y="594" type="line"/>
      <point x="303.0" y="594" type="line"/>
      <point x="303.0" y="684" type="line" smooth="yes"/>
      <point x="303.0" y="709"/>
      <point x="292.0" y="720"/>
      <point x="267.0" y="720" type="curve" smooth="yes"/>
      <point x="115.0" y="720" type="line" smooth="yes"/>
      <point x="90.0" y="720"/>
      <point x="79.0" y="709"/>
      <point x="79.0" y="684" type="curve" smooth="yes"/>
      <point x="79.0" y="594" type="line"/>
      <point x="66.0" y="594" type="line" smooth="yes"/>
      <point x="41.0" y="594"/>
      <point x="30.0" y="583"/>
      <point x="30.0" y="558" type="curve" smooth="yes"/>
      <point x="30.0" y="461" type="line" smooth="yes"/>
      <point x="30.0" y="435"/>
      <point x="41.0" y="425"/>
      <point x="66.0" y="425" type="curve"/>
      <point x="79.0" y="425" type="line"/>
      <point x="79.0" y="36" type="line" smooth="yes"/>
      <point x="79.0" y="11"/>
      <point x="90.0" y="0"/>
      <point x="115.0" y="0" type="curve" smooth="yes"/>
      <point x="267.0" y="0" type="line" smooth="yes"/>
      <point x="292.0" y="0"/>
      <point x="303.0" y="11"/>
    </contour>
  </outline>
</glyph>
<glyph name="IJ" format="1">
  <advance width="744.0"/>
  <unicode hex="0132"/>
  <outline>
    <contour>
      <point x="260.0" y="310" type="line" smooth="yes"/>
      <point x="285.0" y="310"/>
      <point x="296.0" y="321"/>
      <point x="296.0" y="346" type="curve" smooth="yes"/>
      <point x="296.0" y="684" type="line" smooth="yes"/>
      <point x="296.0" y="709"/>
      <point x="285.0" y="720"/>
      <point x="260.0" y="720" type="curve" smooth="yes"/>
      <point x="105.0" y="720" type="line" smooth="yes"/>
      <point x="80.0" y="720"/>
      <point x="69.0" y="709"/>
      <point x="69.0" y="684" type="curve" smooth="yes"/>
      <point x="69.0" y="346" type="line" smooth="yes"/>
      <point x="69.0" y="321"/>
      <point x="80.0" y="310"/>
      <point x="105.0" y="310" type="curve" smooth="yes"/>
    </contour>
    <contour>
      <point x="69.0" y="36" type="line" smooth="yes"/>
      <point x="69.0" y="11"/>
      <point x="80.0" y="0"/>
      <point x="105.0" y="0" type="curve"/>
      <point x="467.0" y="0" type="line" smooth="yes"/>
      <point x="599.0" y="0"/>
      <point x="680.0" y="78"/>
      <point x="680.0" y="210" type="curve" smooth="yes"/>
      <point x="680.0" y="684" type="line" smooth="yes"/>
      <point x="680.0" y="709"/>
      <point x="669.0" y="720"/>
      <point x="644.0" y="720" type="curve" smooth="yes"/>
      <point x="489.0" y="720" type="line" smooth="yes"/>
      <point x="464.0" y="720"/>
      <point x="453.0" y="709"/>
      <point x="453.0" y="684" type="curve" smooth="yes"/>
      <point x="453.0" y="260" type="line" smooth="yes"/>
      <point x="453.0" y="212"/>
      <point x="428.0" y="193"/>
      <point x="380.0" y="193" type="curve" smooth="yes"/>
      <point x="105.0" y="193" type="line" smooth="yes"/>
      <point x="80.0" y="193"/>
      <point x="69.0" y="182"/>
      <point x="69.0" y="157" type="curve" smooth="yes"/>
    </contour>
  </outline>
</glyph>
<glyph name="Lslash" format="2">
  <advance width="705"/>
  <unicode hex="0141"/>
  <outline>
    <contour>
      <point x="20.0" y="428" type="curve" smooth="yes"/>
      <point x="20.0" y="321" type="line" smooth="yes"/>
      <point x="20.0" y="295"/>
      <point x="31.0" y="281"/>
      <point x="56.0" y="285" type="curve" smooth="yes"/>
      <point x="364.0" y="335" type="line" smooth="yes"/>
      <point x="389.0" y="339"/>
      <point x="400.0" y="345"/>
      <point x="400.0" y="371" type="curve" smooth="yes"/>
      <point x="400.0" y="478" type="line" smooth="yes"/>
      <point x="400.0" y="504"/>
      <point x="389.0" y="518"/>
      <point x="364.0" y="514" type="curve" smooth="yes"/>
      <point x="56.0" y="464" type="line" smooth="yes"/>
      <point x="31.0" y="460"/>
      <point x="20.0" y="453"/>
    </contour>
    <component base="L" xOffset="10"/>
  </outline>
</glyph>
<glyph name="Eng" format="1">
  <advance width="746"/>
  <unicode hex="014A"/>
  <outline>
    <contour>
      <point x="64.0" y="531" type="curve" smooth="yes"/>
      <point x="64.0" y="36" type="line" smooth="yes"/>
      <point x="64.0" y="11"/>
      <point x="75.0" y="0"/>
      <point x="100.0" y="0" type="curve" smooth="yes"/>
      <point x="252.0" y="0" type="line" smooth="yes"/>
      <point x="278.0" y="0"/>
      <point x="288.0" y="11"/>
      <point x="288.0" y="36" type="curve" smooth="yes"/>
      <point x="288.0" y="492" type="line" smooth="yes"/>
      <point x="288.0" y="519"/>
      <point x="300.0" y="539"/>
      <point x="371.0" y="539" type="curve" smooth="yes"/>
      <point x="441.0" y="539"/>
      <point x="453.0" y="519"/>
      <point x="453.0" y="492" type="curve" smooth="yes"/>
      <point x="453.0" y="149" type="line" smooth="yes"/>
      <point x="453.0" y="121"/>
      <point x="447.0" y="101"/>
      <point x="412.0" y="101" type="curve" smooth="yes"/>
      <point x="391.0" y="101" type="line" smooth="yes"/>
      <point x="366.0" y="101"/>
      <point x="355.0" y="90"/>
      <point x="355.0" y="65" type="curve" smooth="yes"/>
      <point x="355.0" y="-54" type="line" smooth="yes"/>
      <point x="355.0" y="-79"/>
      <point x="366.0" y="-90"/>
      <point x="391.0" y="-90" type="curve" smooth="yes"/>
      <point x="436.0" y="-90" type="line" smooth="yes"/>
      <point x="625.0" y="-90"/>
      <point x="682.0" y="-7"/>
      <point x="682.0" y="114" type="curve"/>
      <point x="682.0" y="531" type="line" smooth="yes"/>
      <point x="682.0" y="653"/>
      <point x="621.0" y="735"/>
      <point x="373.0" y="735" type="curve" smooth="yes"/>
      <point x="125.0" y="735"/>
      <point x="64.0" y="653"/>
    </contour>
  </outline>
</glyph>
<glyph name="OE" format="1">
  <advance width="1015"/>
  <unicode hex="0152"/>
  <outline>
    <contour>
      <point x="440.0" y="189" type="line"/>
      <point x="440.0" y="529" type="line"/>
      <point x="331.0" y="529" type="line" smooth="yes"/>
      <point x="291.0" y="529"/>
      <point x="284.0" y="507"/>
      <point x="284.0" y="481" type="curve" smooth="yes"/>
      <point x="284.0" y="238" type="line" smooth="yes"/>
      <point x="284.0" y="211"/>
      <point x="291.0" y="189"/>
      <point x="331.0" y="189" type="curve" smooth="yes"/>
    </contour>
    <contour>
      <point x="304.0" y="0" type="curve" smooth="yes"/>
      <point x="930.0" y="0" type="line" smooth="yes"/>
      <point x="955.0" y="0"/>
      <point x="966.0" y="11"/>
      <point x="966.0" y="36" type="curve" smooth="yes"/>
      <point x="966.0" y="153" type="line" smooth="yes"/>
      <point x="966.0" y="178"/>
      <point x="955.0" y="189"/>
      <point x="930.0" y="189" type="curve" smooth="yes"/>
      <point x="667.0" y="189" type="line"/>
      <point x="667.0" y="275" type="line"/>
      <point x="849.0" y="275" type="line" smooth="yes"/>
      <point x="874.0" y="275"/>
      <point x="885.0" y="286"/>
      <point x="885.0" y="311" type="curve" smooth="yes"/>
      <point x="885.0" y="418" type="line" smooth="yes"/>
      <point x="885.0" y="444"/>
      <point x="874.0" y="454"/>
      <point x="849.0" y="454" type="curve" smooth="yes"/>
      <point x="667.0" y="454" type="line"/>
      <point x="667.0" y="531" type="line"/>
      <point x="930.0" y="531" type="line" smooth="yes"/>
      <point x="955.0" y="531"/>
      <point x="966.0" y="542"/>
      <point x="966.0" y="567" type="curve" smooth="yes"/>
      <point x="966.0" y="684" type="line" smooth="yes"/>
      <point x="966.0" y="709"/>
      <point x="955.0" y="720"/>
      <point x="930.0" y="720" type="curve" smooth="yes"/>
      <point x="304.0" y="720" type="line" smooth="yes"/>
      <point x="115.0" y="720"/>
      <point x="58.0" y="637"/>
      <point x="58.0" y="516" type="curve" smooth="yes"/>
      <point x="58.0" y="204" type="line" smooth="yes"/>
      <point x="58.0" y="83"/>
      <point x="115.0" y="0"/>
    </contour>
  </outline>
</glyph>
<glyph name="Tbar" format="1">
  <advance width="656"/>
  <unicode hex="0166"/>
  <outline>
    <contour>
      <point x="521.0" y="222" type="line" smooth="yes"/>
      <point x="546.0" y="222"/>
      <point x="557.0" y="233"/>
      <point x="557.0" y="258" type="curve" smooth="yes"/>
      <point x="557.0" y="365" type="line" smooth="yes"/>
      <point x="557.0" y="390"/>
      <point x="546.0" y="401"/>
      <point x="521.0" y="401" type="curve" smooth="yes"/>
      <point x="134.0" y="401" type="line" smooth="yes"/>
      <point x="109.0" y="401"/>
      <point x="98.0" y="390"/>
      <point x="98.0" y="365" type="curve" smooth="yes"/>
      <point x="98.0" y="258" type="line" smooth="yes"/>
      <point x="98.0" y="233"/>
      <point x="109.0" y="222"/>
      <point x="134.0" y="222" type="curve" smooth="yes"/>
    </contour>
    <component base="T"/>
  </outline>
</glyph>
<glyph name="Schwa" format="2">
  <advance width="715"/>
  <unicode hex="018F"/>
  <outline>
    <contour>
      <point x="364.0" y="-15" type="curve" smooth="yes"/>
      <point x="608.0" y="-15"/>
      <point x="666.0" y="67"/>
      <point x="666.0" y="189" type="curve"/>
      <point x="666.0" y="516" type="line" smooth="yes"/>
      <point x="666.0" y="637"/>
      <point x="609.0" y="720"/>
      <point x="420.0" y="720" type="curve" smooth="yes"/>
      <point x="166.0" y="720" type="line" smooth="yes"/>
      <point x="141.0" y="720"/>
      <point x="130.0" y="709"/>
      <point x="130.0" y="684" type="curve" smooth="yes"/>
      <point x="130.0" y="567" type="line" smooth="yes"/>
      <point x="130.0" y="542"/>
      <point x="141.0" y="531"/>
      <point x="166.0" y="531" type="curve" smooth="yes"/>
      <point x="387.0" y="531" type="line" smooth="yes"/>
      <point x="439.0" y="531"/>
      <point x="448.0" y="511"/>
      <point x="448.0" y="483" type="curve" smooth="yes"/>
      <point x="448.0" y="445" type="line"/>
      <point x="89.0" y="445" type="line" smooth="yes"/>
      <point x="64.0" y="445"/>
      <point x="53.0" y="434"/>
      <point x="53.0" y="409" type="curve" smooth="yes"/>
      <point x="53.0" y="189" type="line" smooth="yes"/>
      <point x="53.0" y="67"/>
      <point x="114.0" y="-15"/>
    </contour>
    <contour>
      <point x="364.0" y="178" type="curve" smooth="yes"/>
      <point x="292.0" y="178"/>
      <point x="280.0" y="198"/>
      <point x="280.0" y="225" type="curve" smooth="yes"/>
      <point x="280.0" y="266" type="line"/>
      <point x="448.0" y="266" type="line"/>
      <point x="448.0" y="225" type="line"/>
      <point x="448.0" y="198"/>
      <point x="437.0" y="178"/>
    </contour>
  </outline>
</glyph>
<glyph name="ascript" format="2">
  <advance width="746"/>
  <unicode hex="0251"/>
  <outline>
    <contour>
      <point x="675.0" y="530" type="line"/>
      <point x="675.0" y="652"/>
      <point x="615.0" y="735"/>
      <point x="366.0" y="735" type="curve" smooth="yes"/>
      <point x="119.0" y="735"/>
      <point x="58.0" y="652"/>
      <point x="58.0" y="530" type="curve" smooth="yes"/>
      <point x="58.0" y="204" type="line" smooth="yes"/>
      <point x="58.0" y="65"/>
      <point x="136.0" y="0"/>
      <point x="304.0" y="0" type="curve" smooth="yes"/>
      <point x="641.0" y="0" type="line" smooth="yes"/>
      <point x="666.0" y="0"/>
      <point x="677.0" y="11"/>
      <point x="677.0" y="36" type="curve" smooth="yes"/>
    </contour>
    <contour>
      <point x="284.0" y="494" type="line" smooth="yes"/>
      <point x="284.0" y="520"/>
      <point x="296.0" y="540"/>
      <point x="366.0" y="540" type="curve" smooth="yes"/>
      <point x="439.0" y="540"/>
      <point x="450.0" y="522"/>
      <point x="450.0" y="496" type="curve"/>
      <point x="450.0" y="191" type="line"/>
      <point x="331.0" y="191" type="line" smooth="yes"/>
      <point x="299.0" y="191"/>
      <point x="284.0" y="204"/>
      <point x="284.0" y="238" type="curve" smooth="yes"/>
    </contour>
  </outline>
</glyph>
<glyph name="ringhalfright" format="1">
  <advance width="312"/>
  <unicode hex="02BE"/>
  <outline>
    <contour>
      <point x="55.0" y="383" type="curve" smooth="yes"/>
      <point x="164.0" y="383" type="line" smooth="yes"/>
      <point x="242.0" y="383"/>
      <point x="279.0" y="413"/>
      <point x="279.0" y="478" type="curve" smooth="yes"/>
      <point x="279.0" y="624" type="line" smooth="yes"/>
      <point x="279.0" y="689"/>
      <point x="242.0" y="720"/>
      <point x="164.0" y="720" type="curve" smooth="yes"/>
      <point x="55.0" y="720" type="line" smooth="yes"/>
      <point x="39.0" y="720"/>
      <point x="33.0" y="712"/>
      <point x="33.0" y="698" type="curve" smooth="yes"/>
      <point x="33.0" y="621" type="line" smooth="yes"/>
      <point x="33.0" y="607"/>
      <point x="39.0" y="599"/>
      <point x="55.0" y="599" type="curve" smooth="yes"/>
      <point x="104.0" y="599" type="line" smooth="yes"/>
      <point x="123.0" y="599"/>
      <point x="132.0" y="592"/>
      <point x="132.0" y="576" type="curve" smooth="yes"/>
      <point x="132.0" y="525" type="line" smooth="yes"/>
      <point x="132.0" y="509"/>
      <point x="123.0" y="502"/>
      <point x="104.0" y="502" type="curve" smooth="yes"/>
      <point x="55.0" y="502" type="line" smooth="yes"/>
      <point x="39.0" y="502"/>
      <point x="33.0" y="496"/>
      <point x="33.0" y="480" type="curve" smooth="yes"/>
      <point x="33.0" y="405" type="line" smooth="yes"/>
      <point x="33.0" y="389"/>
      <point x="39.0" y="383"/>
    </contour>
  </outline>
</glyph>
<glyph name="circumflex" format="2">
  <advance width="500"/>
  <unicode hex="02C6"/>
  <anchor x="250.0" y="747.0" name="_top"/>
  <anchor x="250.0" y="0.0" name="_bottom"/>
  <outline>
    <contour>
      <point x="218.0" y="797" type="line"/>
      <point x="241.0" y="803"/>
      <point x="257.0" y="803"/>
      <point x="280.0" y="797" type="curve"/>
      <point x="417.0" y="757" type="line" smooth="yes"/>
      <point x="452.0" y="746"/>
      <point x="459.0" y="752"/>
      <point x="459.0" y="788" type="curve" smooth="yes"/>
      <point x="459.0" y="869" type="line" smooth="yes"/>
      <point x="459.0" y="905"/>
      <point x="451.0" y="909"/>
      <point x="417.0" y="922" type="curve" smooth="yes"/>
      <point x="280.0" y="972" type="line" smooth="yes"/>
      <point x="270.0" y="976"/>
      <point x="260.0" y="977"/>
      <point x="248.0" y="977" type="curve" smooth="yes"/>
      <point x="236.0" y="976"/>
      <point x="221.0" y="973"/>
      <point x="209.0" y="968" type="curve" smooth="yes"/>
      <point x="81.0" y="922" type="line" smooth="yes"/>
      <point x="49.0" y="909"/>
      <point x="40.0" y="905"/>
      <point x="40.0" y="869" type="curve" smooth="yes"/>
      <point x="40.0" y="788" type="line" smooth="yes"/>
      <point x="40.0" y="752"/>
      <point x="47.0" y="746"/>
      <point x="81.0" y="757" type="curve" smooth="yes"/>
    </contour>
  </outline>
</glyph>
<glyph name="breve" format="2">
  <advance width="500"/>
  <unicode hex="02D8"/>
  <anchor x="250.0" y="747.0" name="_top"/>
  <anchor x="250.0" y="0.0" name="_bottom"/>
  <outline>
    <contour>
      <point x="467.0" y="897" type="curve"/>
      <point x="467.0" y="941" type="line" smooth="yes"/>
      <point x="467.0" y="966"/>
      <point x="456.0" y="977"/>
      <point x="431.0" y="977" type="curve"/>
      <point x="340.0" y="977" type="line" smooth="yes"/>
      <point x="317.0" y="977"/>
      <point x="310.0" y="970"/>
      <point x="310.0" y="946" type="curve" smooth="yes"/>
      <point x="310.0" y="925" type="line" smooth="yes"/>
      <point x="310.0" y="906"/>
      <point x="301.0" y="892"/>
      <point x="251.0" y="892" type="curve" smooth="yes"/>
      <point x="202.0" y="892"/>
      <point x="194.0" y="906"/>
      <point x="194.0" y="925" type="curve" smooth="yes"/>
      <point x="194.0" y="946" type="line" smooth="yes"/>
      <point x="194.0" y="970"/>
      <point x="186.0" y="977"/>
      <point x="165.0" y="977" type="curve" smooth="yes"/>
      <point x="69.0" y="977" type="line" smooth="yes"/>
      <point x="44.0" y="977"/>
      <point x="33.0" y="966"/>
      <point x="33.0" y="941" type="curve" smooth="yes"/>
      <point x="33.0" y="897" type="line" smooth="yes"/>
      <point x="33.0" y="812"/>
      <point x="76.0" y="754"/>
      <point x="250.0" y="754" type="curve" smooth="yes"/>
      <point x="424.0" y="754"/>
      <point x="467.0" y="812"/>
    </contour>
  </outline>
</glyph>
<glyph name="dotaccent" format="1">
  <advance width="500"/>
  <unicode hex="02D9"/>
  <outline>
    <contour>
      <point x="330.0" y="760" type="line" smooth="yes"/>
      <point x="355.0" y="760"/>
      <point x="366.0" y="771"/>
      <point x="366.0" y="796" type="curve" smooth="yes"/>
      <point x="366.0" y="923" type="line" smooth="yes"/>
      <point x="366.0" y="948"/>
      <point x="355.0" y="959"/>
      <point x="330.0" y="959" type="curve"/>
      <point x="172.0" y="959" type="line" smooth="yes"/>
      <point x="147.0" y="959"/>
      <point x="136.0" y="948"/>
      <point x="136.0" y="923" type="curve" smooth="yes"/>
      <point x="136.0" y="796" type="line" smooth="yes"/>
      <point x="136.0" y="771"/>
      <point x="147.0" y="760"/>
      <point x="172.0" y="760" type="curve" smooth="yes"/>
    </contour>
    <contour>
      <point x="250.0" y="747.0" type="move" name="_top"/>
    </contour>
    <contour>
      <point x="250.0" y="0.0" type="move" name="_bottom"/>
    </contour>
  </outline>
</glyph>
<glyph name="hungarumlaut" format="1">
  <advance width="500"/>
  <unicode hex="02DD"/>
  <outline>
    <contour>
      <point x="255.0" y="794" type="line" smooth="yes"/>
      <point x="249.0" y="772"/>
      <point x="265.0" y="760"/>
      <point x="288.0" y="760" type="curve" smooth="yes"/>
      <point x="394.0" y="760" type="line" smooth="yes"/>
      <point x="419.0" y="760"/>
      <point x="424.0" y="772"/>
      <point x="430.0" y="796" type="curve" smooth="yes"/>
      <point x="483.0" y="1003" type="line" smooth="yes"/>
      <point x="489.0" y="1025"/>
      <point x="473.0" y="1037"/>
      <point x="450.0" y="1037" type="curve" smooth="yes"/>
      <point x="344.0" y="1037" type="line" smooth="yes"/>
      <point x="319.0" y="1037"/>
      <point x="314.0" y="1025"/>
      <point x="308.0" y="1001" type="curve" smooth="yes"/>
    </contour>
    <contour>
      <point x="-5.0" y="794" type="line" smooth="yes"/>
      <point x="-11.0" y="772"/>
      <point x="5.0" y="760"/>
      <point x="28.0" y="760" type="curve" smooth="yes"/>
      <point x="134.0" y="760" type="line" smooth="yes"/>
      <point x="159.0" y="760"/>
      <point x="164.0" y="772"/>
      <point x="170.0" y="796" type="curve" smooth="yes"/>
      <point x="223.0" y="1003" type="line" smooth="yes"/>
      <point x="229.0" y="1025"/>
      <point x="213.0" y="1037"/>
      <point x="190.0" y="1037" type="curve" smooth="yes"/>
      <point x="84.0" y="1037" type="line" smooth="yes"/>
      <point x="59.0" y="1037"/>
      <point x="54.0" y="1025"/>
      <point x="48.0" y="1001" type="curve" smooth="yes"/>
    </contour>
  </outline>
</glyph>
<glyph name="hookcmb" format="2">
  <unicode hex="0309"/>
  <outline>
    <contour>
      <point x="99.0" y="767" type="line" smooth="yes"/>
      <point x="149.0" y="774"/>
      <point x="180.0" y="795"/>
      <point x="180.0" y="854" type="curve" smooth="yes"/>
      <point x="180.0" y="918" type="line" smooth="yes"/>
      <point x="180.0" y="985"/>
      <point x="140.0" y="1020"/>
      <point x="72.0" y="1020" type="curve" smooth="yes"/>
      <point x="-96.0" y="1020" type="line" smooth="yes"/>
      <point x="-109.0" y="1020"/>
      <point x="-115.0" y="1014"/>
      <point x="-115.0" y="1001" type="curve"/>
      <point x="-115.0" y="928" type="line" smooth="yes"/>
      <point x="-115.0" y="915"/>
      <point x="-109.0" y="909"/>
      <point x="-96.0" y="909" type="curve" smooth="yes"/>
      <point x="33.0" y="909" type="line" smooth="yes"/>
      <point x="44.0" y="909"/>
      <point x="52.0" y="905"/>
      <point x="52.0" y="895" type="curve" smooth="yes"/>
      <point x="52.0" y="883"/>
      <point x="46.0" y="880"/>
      <point x="33.0" y="878" type="curve" smooth="yes"/>
      <point x="-56.0" y="864" type="line" smooth="yes"/>
      <point x="-69.0" y="862"/>
      <point x="-75.0" y="856"/>
      <point x="-73.0" y="843" type="curve" smooth="yes"/>
      <point x="-62.0" y="764" type="line" smooth="yes"/>
      <point x="-60.0" y="751"/>
      <point x="-55.0" y="746"/>
      <point x="-42.0" y="748" type="curve" smooth="yes"/>
    </contour>
  </outline>
</glyph>
<glyph name="horncmb" format="1">
  <advance width="0"/>
  <unicode hex="031B"/>
  <outline>
    <contour>
      <point x="93.0" y="721" type="curve"/>
      <point x="93.0" y="765" type="line" smooth="yes"/>
      <point x="93.0" y="790"/>
      <point x="82.0" y="801"/>
      <point x="57.0" y="801" type="curve"/>
      <point x="-54.0" y="801" type="line" smooth="yes"/>
      <point x="-77.0" y="801"/>
      <point x="-84.0" y="794"/>
      <point x="-84.0" y="770" type="curve" smooth="yes"/>
      <point x="-84.0" y="749" type="line" smooth="yes"/>
      <point x="-84.0" y="730"/>
      <point x="-91.0" y="720"/>
      <point x="-124.0" y="720" type="curve"/>
      <point x="-124.0" y="578" type="line"/>
      <point x="50.0" y="578"/>
      <point x="93.0" y="636"/>
    </contour>
  </outline>
</glyph>
<glyph name="commaaccent" format="2">
  <advance width="500"/>
  <unicode hex="0326"/>
  <unicode hex="F6C3"/>
  <anchor x="250.0" y="747.0" name="_top"/>
  <anchor x="250.0" y="0.0" name="_bottom"/>
  <outline>
    <contour>
      <point x="241.0" y="-362" type="line" smooth="yes"/>
      <point x="317.0" y="-362"/>
      <point x="366.0" y="-320"/>
      <point x="366.0" y="-234" type="curve" smooth="yes"/>
      <point x="366.0" y="-82" type="line" smooth="yes"/>
      <point x="366.0" y="-52"/>
      <point x="357.0" y="-43"/>
      <point x="329.0" y="-43" type="curve" smooth="yes"/>
      <point x="171.0" y="-43" type="line" smooth="yes"/>
      <point x="143.0" y="-43"/>
      <point x="134.0" y="-52"/>
      <point x="134.0" y="-82" type="curve" smooth="yes"/>
      <point x="134.0" y="-191" type="line" smooth="yes"/>
      <point x="134.0" y="-221"/>
      <point x="143.0" y="-230"/>
      <point x="171.0" y="-230" type="curve"/>
      <point x="257.0" y="-230" type="line"/>
      <point x="257.0" y="-243" type="line" smooth="yes"/>
      <point x="257.0" y="-258"/>
      <point x="249.0" y="-267"/>
      <point x="234.0" y="-267" type="curve" smooth="yes"/>
      <point x="175.0" y="-267" type="line" smooth="yes"/>
      <point x="154.0" y="-267"/>
      <point x="145.0" y="-276"/>
      <point x="145.0" y="-297" type="curve" smooth="yes"/>
      <point x="145.0" y="-331" type="line" smooth="yes"/>
      <point x="145.0" y="-353"/>
      <point x="154.0" y="-362"/>
      <point x="175.0" y="-362" type="curve" smooth="yes"/>
    </contour>
  </outline>
</glyph>
<glyph name="pi" format="1">
  <advance width="721"/>
  <unicode hex="03C0"/>
  <outline>
    <contour>
      <point x="624.0" y="0" type="line" smooth="yes"/>
      <point x="649.0" y="0"/>
      <point x="660.0" y="11"/>
      <point x="660.0" y="36" type="curve" smooth="yes"/>
      <point x="660.0" y="534" type="line" smooth="yes"/>
      <point x="660.0" y="559"/>
      <point x="649.0" y="570"/>
      <point x="624.0" y="570" type="curve" smooth="yes"/>
      <point x="97.0" y="570" type="line" smooth="yes"/>
      <point x="72.0" y="570"/>
      <point x="61.0" y="559"/>
      <point x="61.0" y="534" type="curve" smooth="yes"/>
      <point x="61.0" y="36" type="line" smooth="yes"/>
      <point x="61.0" y="11"/>
      <point x="72.0" y="0"/>
      <point x="97.0" y="0" type="curve" smooth="yes"/>
      <point x="252.0" y="0" type="line" smooth="yes"/>
      <point x="277.0" y="0"/>
      <point x="288.0" y="11"/>
      <point x="288.0" y="36" type="curve" smooth="yes"/>
      <point x="288.0" y="381" type="line"/>
      <point x="433.0" y="381" type="line"/>
      <point x="433.0" y="36" type="line" smooth="yes"/>
      <point x="433.0" y="11"/>
      <point x="444.0" y="0"/>
      <point x="469.0" y="0" type="curve" smooth="yes"/>
    </contour>
  </outline>
</glyph>
<glyph name="quoteleft" format="2">
  <advance width="384"/>
  <unicode hex="2018"/>
  <outline>
    <contour>
      <point x="203.0" y="720" type="line" smooth="yes"/>
      <point x="113.0" y="720"/>
      <point x="55.0" y="671"/>
      <point x="55.0" y="569" type="curve" smooth="yes"/>
      <point x="55.0" y="381" type="line" smooth="yes"/>
      <point x="55.0" y="356"/>
      <point x="66.0" y="345"/>
      <point x="91.0" y="345" type="curve" smooth="yes"/>
      <point x="293.0" y="345" type="line" smooth="yes"/>
      <point x="318.0" y="345"/>
      <point x="329.0" y="356"/>
      <point x="329.0" y="381" type="curve"/>
      <point x="329.0" y="529" type="line"/>
      <point x="329.0" y="554"/>
      <point x="318.0" y="565"/>
      <point x="293.0" y="565" type="curve" smooth="yes"/>
      <point x="184.0" y="565" type="line"/>
      <point x="184.0" y="580" type="line" smooth="yes"/>
      <point x="184.0" y="598"/>
      <point x="193.0" y="608"/>
      <point x="211.0" y="608" type="curve" smooth="yes"/>
      <point x="280.0" y="608" type="line" smooth="yes"/>
      <point x="305.0" y="608"/>
      <point x="316.0" y="619"/>
      <point x="316.0" y="644" type="curve"/>
      <point x="316.0" y="684" type="line"/>
      <point x="316.0" y="710"/>
      <point x="305.0" y="720"/>
      <point x="280.0" y="720" type="curve" smooth="yes"/>
    </contour>
  </outline>
</glyph>
<glyph name="quoteright" format="2">
  <advance width="384"/>
  <unicode hex="2019"/>
  <outline>
    <contour>
      <point x="181.0" y="345" type="line" smooth="yes"/>
      <point x="271.0" y="345"/>
      <point x="329.0" y="394"/>
      <point x="329.0" y="496" type="curve" smooth="yes"/>
      <point x="329.0" y="684" type="line" smooth="yes"/>
      <point x="329.0" y="709"/>
      <point x="318.0" y="720"/>
      <point x="293.0" y="720" type="curve" smooth="yes"/>
      <point x="91.0" y="720" type="line" smooth="yes"/>
      <point x="66.0" y="720"/>
      <point x="55.0" y="709"/>
      <point x="55.0" y="684" type="curve"/>
      <point x="55.0" y="536" type="line"/>
      <point x="55.0" y="511"/>
      <point x="66.0" y="500"/>
      <point x="91.0" y="500" type="curve" smooth="yes"/>
      <point x="200.0" y="500" type="line"/>
      <point x="200.0" y="485" type="line" smooth="yes"/>
      <point x="200.0" y="467"/>
      <point x="191.0" y="457"/>
      <point x="173.0" y="457" type="curve" smooth="yes"/>
      <point x="104.0" y="457" type="line" smooth="yes"/>
      <point x="79.0" y="457"/>
      <point x="68.0" y="446"/>
      <point x="68.0" y="421" type="curve"/>
      <point x="68.0" y="381" type="line"/>
      <point x="68.0" y="355"/>
      <point x="79.0" y="345"/>
      <point x="104.0" y="345" type="curve" smooth="yes"/>
    </contour>
  </outline>
</glyph>
<glyph name="quotesinglbase" format="1">
  <advance width="384"/>
  <unicode hex="201A"/>
  <outline>
    <contour>
      <point x="181.0" y="-100" type="line" smooth="yes"/>
      <point x="271.0" y="-100"/>
      <point x="329.0" y="-51"/>
      <point x="329.0" y="51" type="curve" smooth="yes"/>
      <point x="329.0" y="239" type="line" smooth="yes"/>
      <point x="329.0" y="264"/>
      <point x="318.0" y="275"/>
      <point x="293.0" y="275" type="curve" smooth="yes"/>
      <point x="91.0" y="275" type="line" smooth="yes"/>
      <point x="66.0" y="275"/>
      <point x="55.0" y="264"/>
      <point x="55.0" y="239" type="curve"/>
      <point x="55.0" y="91" type="line"/>
      <point x="55.0" y="66"/>
      <point x="66.0" y="55"/>
      <point x="91.0" y="55" type="curve" smooth="yes"/>
      <point x="200.0" y="55" type="line"/>
      <point x="200.0" y="40" type="line" smooth="yes"/>
      <point x="200.0" y="22"/>
      <point x="191.0" y="12"/>
      <point x="173.0" y="12" type="curve" smooth="yes"/>
      <point x="104.0" y="12" type="line" smooth="yes"/>
      <point x="79.0" y="12"/>
      <point x="68.0" y="1"/>
      <point x="68.0" y="-24" type="curve"/>
      <point x="68.0" y="-64" type="line"/>
      <point x="68.0" y="-90"/>
      <point x="79.0" y="-100"/>
      <point x="104.0" y="-100" type="curve" smooth="yes"/>
    </contour>
  </outline>
</glyph>
<glyph name="quotedblleft" format="2">
  <advance width="684"/>
  <unicode hex="201C"/>
  <outline>
    <contour>
      <point x="193.0" y="720" type="line" smooth="yes"/>
      <point x="103.0" y="720"/>
      <point x="45.0" y="671"/>
      <point x="45.0" y="569" type="curve" smooth="yes"/>
      <point x="45.0" y="381" type="line" smooth="yes"/>
      <point x="45.0" y="356"/>
      <point x="56.0" y="345"/>
      <point x="81.0" y="345" type="curve" smooth="yes"/>
      <point x="283.0" y="345" type="line" smooth="yes"/>
      <point x="308.0" y="345"/>
      <point x="319.0" y="356"/>
      <point x="319.0" y="381" type="curve" smooth="yes"/>
      <point x="319.0" y="529" type="line" smooth="yes"/>
      <point x="319.0" y="554"/>
      <point x="308.0" y="565"/>
      <point x="283.0" y="565" type="curve" smooth="yes"/>
      <point x="174.0" y="565" type="line"/>
      <point x="174.0" y="580" type="line" smooth="yes"/>
      <point x="174.0" y="598"/>
      <point x="183.0" y="608"/>
      <point x="201.0" y="608" type="curve" smooth="yes"/>
      <point x="270.0" y="608" type="line" smooth="yes"/>
      <point x="295.0" y="608"/>
      <point x="306.0" y="619"/>
      <point x="306.0" y="644" type="curve" smooth="yes"/>
      <point x="306.0" y="684" type="line" smooth="yes"/>
      <point x="306.0" y="710"/>
      <point x="295.0" y="720"/>
      <point x="270.0" y="720" type="curve" smooth="yes"/>
    </contour>
    <contour>
      <point x="513.0" y="720" type="line" smooth="yes"/>
      <point x="423.0" y="720"/>
      <point x="365.0" y="671"/>
      <point x="365.0" y="569" type="curve" smooth="yes"/>
      <point x="365.0" y="381" type="line" smooth="yes"/>
      <point x="365.0" y="356"/>
      <point x="376.0" y="345"/>
      <point x="401.0" y="345" type="curve" smooth="yes"/>
      <point x="603.0" y="345" type="line" smooth="yes"/>
      <point x="628.0" y="345"/>
      <point x="639.0" y="356"/>
      <point x="639.0" y="381" type="curve"/>
      <point x="639.0" y="529" type="line"/>
      <point x="639.0" y="554"/>
      <point x="628.0" y="565"/>
      <point x="603.0" y="565" type="curve" smooth="yes"/>
      <point x="494.0" y="565" type="line"/>
      <point x="494.0" y="580" type="line" smooth="yes"/>
      <point x="494.0" y="598"/>
      <point x="503.0" y="608"/>
      <point x="521.0" y="608" type="curve" smooth="yes"/>
      <point x="590.0" y="608" type="line" smooth="yes"/>
      <point x="615.0" y="608"/>
      <point x="626.0" y="619"/>
      <point x="626.0" y="644" type="curve"/>
      <point x="626.0" y="684" type="line"/>
      <point x="626.0" y="710"/>
      <point x="615.0" y="720"/>
      <point x="590.0" y="720" type="curve" smooth="yes"/>
    </contour>
  </outline>
</glyph>
<glyph name="quotedblright" format="2">
  <advance width="684"/>
  <unicode hex="201D"/>
  <outline>
    <contour>
      <point x="491.0" y="345" type="line" smooth="yes"/>
      <point x="581.0" y="345"/>
      <point x="639.0" y="394"/>
      <point x="639.0" y="496" type="curve" smooth="yes"/>
      <point x="639.0" y="684" type="line" smooth="yes"/>
      <point x="639.0" y="709"/>
      <point x="628.0" y="720"/>
      <point x="603.0" y="720" type="curve" smooth="yes"/>
      <point x="401.0" y="720" type="line" smooth="yes"/>
      <point x="376.0" y="720"/>
      <point x="365.0" y="709"/>
      <point x="365.0" y="684" type="curve" smooth="yes"/>
      <point x="365.0" y="536" type="line" smooth="yes"/>
      <point x="365.0" y="511"/>
      <point x="376.0" y="500"/>
      <point x="401.0" y="500" type="curve" smooth="yes"/>
      <point x="510.0" y="500" type="line"/>
      <point x="510.0" y="485" type="line" smooth="yes"/>
      <point x="510.0" y="467"/>
      <point x="501.0" y="457"/>
      <point x="483.0" y="457" type="curve" smooth="yes"/>
      <point x="414.0" y="457" type="line" smooth="yes"/>
      <point x="389.0" y="457"/>
      <point x="378.0" y="446"/>
      <point x="378.0" y="421" type="curve" smooth="yes"/>
      <point x="378.0" y="381" type="line" smooth="yes"/>
      <point x="378.0" y="355"/>
      <point x="389.0" y="345"/>
      <point x="414.0" y="345" type="curve" smooth="yes"/>
    </contour>
    <contour>
      <point x="171.0" y="345" type="line" smooth="yes"/>
      <point x="261.0" y="345"/>
      <point x="319.0" y="394"/>
      <point x="319.0" y="496" type="curve" smooth="yes"/>
      <point x="319.0" y="684" type="line" smooth="yes"/>
      <point x="319.0" y="709"/>
      <point x="308.0" y="720"/>
      <point x="283.0" y="720" type="curve" smooth="yes"/>
      <point x="81.0" y="720" type="line" smooth="yes"/>
      <point x="56.0" y="720"/>
      <point x="45.0" y="709"/>
      <point x="45.0" y="684" type="curve"/>
      <point x="45.0" y="536" type="line"/>
      <point x="45.0" y="511"/>
      <point x="56.0" y="500"/>
      <point x="81.0" y="500" type="curve" smooth="yes"/>
      <point x="190.0" y="500" type="line"/>
      <point x="190.0" y="485" type="line" smooth="yes"/>
      <point x="190.0" y="467"/>
      <point x="181.0" y="457"/>
      <point x="163.0" y="457" type="curve" smooth="yes"/>
      <point x="94.0" y="457" type="line" smooth="yes"/>
      <point x="69.0" y="457"/>
      <point x="58.0" y="446"/>
      <point x="58.0" y="421" type="curve"/>
      <point x="58.0" y="381" type="line"/>
      <point x="58.0" y="355"/>
      <point x="69.0" y="345"/>
      <point x="94.0" y="345" type="curve" smooth="yes"/>
    </contour>
  </outline>
</glyph>
<glyph name="quotedblbase" format="2">
  <advance width="684"/>
  <unicode hex="201E"/>
  <outline>
    <contour>
      <point x="491.0" y="-100" type="line" smooth="yes"/>
      <point x="581.0" y="-100"/>
      <point x="639.0" y="-51"/>
      <point x="639.0" y="51" type="curve" smooth="yes"/>
      <point x="639.0" y="239" type="line" smooth="yes"/>
      <point x="639.0" y="264"/>
      <point x="628.0" y="275"/>
      <point x="603.0" y="275" type="curve" smooth="yes"/>
      <point x="401.0" y="275" type="line" smooth="yes"/>
      <point x="376.0" y="275"/>
      <point x="365.0" y="264"/>
      <point x="365.0" y="239" type="curve" smooth="yes"/>
      <point x="365.0" y="91" type="line" smooth="yes"/>
      <point x="365.0" y="66"/>
      <point x="376.0" y="55"/>
      <point x="401.0" y="55" type="curve" smooth="yes"/>
      <point x="510.0" y="55" type="line"/>
      <point x="510.0" y="40" type="line" smooth="yes"/>
      <point x="510.0" y="22"/>
      <point x="501.0" y="12"/>
      <point x="483.0" y="12" type="curve" smooth="yes"/>
      <point x="414.0" y="12" type="line" smooth="yes"/>
      <point x="389.0" y="12"/>
      <point x="378.0" y="1"/>
      <point x="378.0" y="-24" type="curve" smooth="yes"/>
      <point x="378.0" y="-64" type="line" smooth="yes"/>
      <point x="378.0" y="-90"/>
      <point x="389.0" y="-100"/>
      <point x="414.0" y="-100" type="curve" smooth="yes"/>
    </contour>
    <contour>
      <point x="171.0" y="-100" type="line" smooth="yes"/>
      <point x="261.0" y="-100"/>
      <point x="319.0" y="-51"/>
      <point x="319.0" y="51" type="curve" smooth="yes"/>
      <point x="319.0" y="239" type="line" smooth="yes"/>
      <point x="319.0" y="264"/>
      <point x="308.0" y="275"/>
      <point x="283.0" y="275" type="curve" smooth="yes"/>
      <point x="81.0" y="275" type="line" smooth="yes"/>
      <point x="56.0" y="275"/>
      <point x="45.0" y="264"/>
      <point x="45.0" y="239" type="curve"/>
      <point x="45.0" y="91" type="line"/>
      <point x="45.0" y="66"/>
      <point x="56.0" y="55"/>
      <point x="81.0" y="55" type="curve" smooth="yes"/>
      <point x="190.0" y="55" type="line"/>
      <point x="190.0" y="40" type="line" smooth="yes"/>
      <point x="190.0" y="22"/>
      <point x="181.0" y="12"/>
      <point x="163.0" y="12" type="curve" smooth="yes"/>
      <point x="94.0" y="12" type="line" smooth="yes"/>
      <point x="69.0" y="12"/>
      <point x="58.0" y="1"/>
      <point x="58.0" y="-24" type="curve"/>
      <point x="58.0" y="-64" type="line"/>
      <point x="58.0" y="-90"/>
      <point x="69.0" y="-100"/>
      <point x="94.0" y="-100" type="curve" smooth="yes"/>
    </contour>
  </outline>
</glyph>
<glyph name="daggerdbl" format="1">
  <advance width="718"/>
  <unicode hex="2021"/>
  <outline>
    <contour>
      <point x="468.0" y="22" type="curve" smooth="yes"/>
      <point x="461.0" y="108" type="line"/>
      <point x="626.0" y="91" type="line" smooth="yes"/>
      <point x="661.0" y="88"/>
      <point x="668.0" y="94"/>
      <point x="668.0" y="129" type="curve" smooth="yes"/>
      <point x="668.0" y="260" type="line" smooth="yes"/>
      <point x="668.0" y="295"/>
      <point x="661.0" y="301"/>
      <point x="626.0" y="297" type="curve" smooth="yes"/>
      <point x="451.0" y="281" type="line"/>
      <point x="471.0" y="348" type="line" smooth="yes"/>
      <point x="471.0" y="371" type="line" smooth="yes"/>
      <point x="451.0" y="439" type="line"/>
      <point x="626.0" y="423" type="line" smooth="yes"/>
      <point x="661.0" y="419"/>
      <point x="668.0" y="425"/>
      <point x="668.0" y="460" type="curve" smooth="yes"/>
      <point x="668.0" y="591" type="line" smooth="yes"/>
      <point x="668.0" y="625"/>
      <point x="661.0" y="631"/>
      <point x="626.0" y="628" type="curve" smooth="yes"/>
      <point x="461.0" y="612" type="line"/>
      <point x="468.0" y="698" type="line" smooth="yes"/>
      <point x="471.0" y="733"/>
      <point x="466.0" y="740"/>
      <point x="431.0" y="740" type="curve" smooth="yes"/>
      <point x="287.0" y="740" type="line" smooth="yes"/>
      <point x="252.0" y="740"/>
      <point x="247.0" y="733"/>
      <point x="250.0" y="698" type="curve" smooth="yes"/>
      <point x="257.0" y="612" type="line"/>
      <point x="92.0" y="628" type="line" smooth="yes"/>
      <point x="57.0" y="631"/>
      <point x="50.0" y="625"/>
      <point x="50.0" y="591" type="curve" smooth="yes"/>
      <point x="50.0" y="460" type="line" smooth="yes"/>
      <point x="50.0" y="425"/>
      <point x="57.0" y="419"/>
      <point x="92.0" y="423" type="curve" smooth="yes"/>
      <point x="266.0" y="439" type="line"/>
      <point x="247.0" y="371" type="line"/>
      <point x="246.0" y="368"/>
      <point x="246.0" y="364"/>
      <point x="246.0" y="360" type="curve" smooth="yes"/>
      <point x="246.0" y="355"/>
      <point x="246.0" y="351"/>
      <point x="247.0" y="348" type="curve"/>
      <point x="266.0" y="281" type="line"/>
      <point x="92.0" y="297" type="line" smooth="yes"/>
      <point x="57.0" y="301"/>
      <point x="50.0" y="295"/>
      <point x="50.0" y="260" type="curve" smooth="yes"/>
      <point x="50.0" y="129" type="line" smooth="yes"/>
      <point x="50.0" y="94"/>
      <point x="57.0" y="88"/>
      <point x="92.0" y="91" type="curve" smooth="yes"/>
      <point x="257.0" y="108" type="line"/>
      <point x="250.0" y="22" type="line" smooth="yes"/>
      <point x="247.0" y="-14"/>
      <point x="252.0" y="-20"/>
      <point x="287.0" y="-20" type="curve" smooth="yes"/>
      <point x="431.0" y="-20" type="line" smooth="yes"/>
      <point x="466.0" y="-20"/>
      <point x="471.0" y="-14"/>
    </contour>
  </outline>
</glyph>
<glyph name="bullet" format="2">
  <advance width="443"/>
  <unicode hex="2022"/>
  <outline>
    <contour>
      <point x="362.0" y="185" type="line" smooth="yes"/>
      <point x="387.0" y="185"/>
      <point x="398.0" y="196"/>
      <point x="398.0" y="221" type="curve" smooth="yes"/>
      <point x="398.0" y="503" type="line" smooth="yes"/>
      <point x="398.0" y="529"/>
      <point x="387.0" y="539"/>
      <point x="362.0" y="539" type="curve" smooth="yes"/>
      <point x="81.0" y="539" type="line" smooth="yes"/>
      <point x="56.0" y="539"/>
      <point x="45.0" y="529"/>
      <point x="45.0" y="503" type="curve" smooth="yes"/>
      <point x="45.0" y="221" type="line" smooth="yes"/>
      <point x="45.0" y="196"/>
      <point x="56.0" y="185"/>
      <point x="81.0" y="185" type="curve" smooth="yes"/>
    </contour>
  </outline>
</glyph>
<glyph name="ellipsis" format="1">
  <advance width="1110"/>
  <unicode hex="2026"/>
  <outline>
    <contour>
      <point x="1019.0" y="0" type="line" smooth="yes"/>
      <point x="1044.0" y="0"/>
      <point x="1055.0" y="11"/>
      <point x="1055.0" y="36" type="curve" smooth="yes"/>
      <point x="1055.0" y="239" type="line" smooth="yes"/>
      <point x="1055.0" y="265"/>
      <point x="1044.0" y="275"/>
      <point x="1019.0" y="275" type="curve" smooth="yes"/>
      <point x="817.0" y="275" type="line" smooth="yes"/>
      <point x="792.0" y="275"/>
      <point x="781.0" y="265"/>
      <point x="781.0" y="239" type="curve"/>
      <point x="781.0" y="36" type="line"/>
      <point x="781.0" y="11"/>
      <point x="792.0" y="0"/>
      <point x="817.0" y="0" type="curve" smooth="yes"/>
    </contour>
    <contour>
      <point x="656.0" y="0" type="line" smooth="yes"/>
      <point x="681.0" y="0"/>
      <point x="692.0" y="11"/>
      <point x="692.0" y="36" type="curve" smooth="yes"/>
      <point x="692.0" y="239" type="line" smooth="yes"/>
      <point x="692.0" y="265"/>
      <point x="681.0" y="275"/>
      <point x="656.0" y="275" type="curve" smooth="yes"/>
      <point x="454.0" y="275" type="line" smooth="yes"/>
      <point x="429.0" y="275"/>
      <point x="418.0" y="265"/>
      <point x="418.0" y="239" type="curve"/>
      <point x="418.0" y="36" type="line"/>
      <point x="418.0" y="11"/>
      <point x="429.0" y="0"/>
      <point x="454.0" y="0" type="curve" smooth="yes"/>
    </contour>
    <contour>
      <point x="293.0" y="0" type="line" smooth="yes"/>
      <point x="318.0" y="0"/>
      <point x="329.0" y="11"/>
      <point x="329.0" y="36" type="curve" smooth="yes"/>
      <point x="329.0" y="239" type="line" smooth="yes"/>
      <point x="329.0" y="265"/>
      <point x="318.0" y="275"/>
      <point x="293.0" y="275" type="curve" smooth="yes"/>
      <point x="91.0" y="275" type="line" smooth="yes"/>
      <point x="66.0" y="275"/>
      <point x="55.0" y="265"/>
      <point x="55.0" y="239" type="curve"/>
      <point x="55.0" y="36" type="line"/>
      <point x="55.0" y="11"/>
      <point x="66.0" y="0"/>
      <point x="91.0" y="0" type="curve" smooth="yes"/>
    </contour>
  </outline>
</glyph>
<glyph name="minute" format="2">
  <advance width="356"/>
  <unicode hex="2032"/>
  <outline>
    <contour>
      <point x="240.0" y="345" type="line" smooth="yes"/>
      <point x="273.0" y="345"/>
      <point x="279.0" y="353"/>
      <point x="282.0" y="386" type="curve" smooth="yes"/>
      <point x="310.0" y="679" type="line" smooth="yes"/>
      <point x="313.0" y="712"/>
      <point x="303.0" y="720"/>
      <point x="271.0" y="720" type="curve" smooth="yes"/>
      <point x="106.0" y="720" type="line" smooth="yes"/>
      <point x="73.0" y="720"/>
      <point x="67.0" y="712"/>
      <point x="66.0" y="679" type="curve" smooth="yes"/>
      <point x="54.0" y="386" type="line" smooth="yes"/>
      <point x="53.0" y="353"/>
      <point x="63.0" y="345"/>
      <point x="96.0" y="345" type="curve" smooth="yes"/>
    </contour>
  </outline>
</glyph>
<glyph name="guilsinglright" format="1">
  <advance width="563"/>
  <unicode hex="203A"/>
  <outline>
    <contour>
      <point x="376.0" y="157" type="line"/>
      <point x="461.0" y="174"/>
      <point x="503.0" y="213"/>
      <point x="503.0" y="312" type="curve" smooth="yes"/>
      <point x="503.0" y="386" type="line" smooth="yes"/>
      <point x="503.0" y="485"/>
      <point x="461.0" y="524"/>
      <point x="376.0" y="541" type="curve" smooth="yes"/>
      <point x="116.0" y="594" type="line" smooth="yes"/>
      <point x="91.0" y="599"/>
      <point x="80.0" y="589"/>
      <point x="80.0" y="563" type="curve" smooth="yes"/>
      <point x="80.0" y="436" type="line" smooth="yes"/>
      <point x="80.0" y="410"/>
      <point x="91.0" y="399"/>
      <point x="116.0" y="395" type="curve" smooth="yes"/>
      <point x="282.0" y="368" type="line" smooth="yes"/>
      <point x="296.0" y="366"/>
      <point x="299.0" y="361"/>
      <point x="299.0" y="349" type="curve" smooth="yes"/>
      <point x="299.0" y="337"/>
      <point x="296.0" y="332"/>
      <point x="282.0" y="330" type="curve" smooth="yes"/>
      <point x="116.0" y="303" type="line" smooth="yes"/>
      <point x="91.0" y="299"/>
      <point x="80.0" y="288"/>
      <point x="80.0" y="262" type="curve" smooth="yes"/>
      <point x="80.0" y="135" type="line" smooth="yes"/>
      <point x="80.0" y="109"/>
      <point x="91.0" y="99"/>
      <point x="116.0" y="104" type="curve" smooth="yes"/>
    </contour>
  </outline>
</glyph>
<glyph name="foursuperior" format="2">
  <advance width="508"/>
  <unicode hex="2074"/>
  <outline>
    <contour>
      <point x="296.0" y="322" type="line"/>
      <point x="296.0" y="228" type="line" smooth="yes"/>
      <point x="296.0" y="210"/>
      <point x="304.0" y="202"/>
      <point x="322.0" y="202" type="curve" smooth="yes"/>
      <point x="433.0" y="202" type="line" smooth="yes"/>
      <point x="451.0" y="202"/>
      <point x="458.0" y="210"/>
      <point x="458.0" y="228" type="curve" smooth="yes"/>
      <point x="458.0" y="694" type="line" smooth="yes"/>
      <point x="458.0" y="712"/>
      <point x="451.0" y="720"/>
      <point x="433.0" y="720" type="curve" smooth="yes"/>
      <point x="322.0" y="720" type="line" smooth="yes"/>
      <point x="304.0" y="720"/>
      <point x="296.0" y="712"/>
      <point x="296.0" y="694" type="curve" smooth="yes"/>
      <point x="296.0" y="472" type="line"/>
      <point x="229.0" y="472" type="line" smooth="yes"/>
      <point x="215.0" y="472"/>
      <point x="206.0" y="482"/>
      <point x="206.0" y="497" type="curve" smooth="yes"/>
      <point x="206.0" y="694" type="line" smooth="yes"/>
      <point x="206.0" y="712"/>
      <point x="199.0" y="720"/>
      <point x="181.0" y="720" type="curve" smooth="yes"/>
      <point x="69.0" y="720" type="line" smooth="yes"/>
      <point x="51.0" y="720"/>
      <point x="43.0" y="712"/>
      <point x="43.0" y="694" type="curve" smooth="yes"/>
      <point x="43.0" y="441" type="line" smooth="yes"/>
      <point x="43.0" y="359"/>
      <point x="80.0" y="322"/>
      <point x="174.0" y="322" type="curve" smooth="yes"/>
    </contour>
  </outline>
</glyph>
<glyph name="eight.sups" format="1">
  <advance width="538"/>
  <unicode hex="2078"/>
  <outline>
    <contour>
      <point x="491.0" y="386" type="line" smooth="yes"/>
      <point x="491.0" y="454"/>
      <point x="458.0" y="489"/>
      <point x="415.0" y="498" type="curve"/>
      <point x="446.0" y="512"/>
      <point x="457.0" y="539"/>
      <point x="457.0" y="576" type="curve" smooth="yes"/>
      <point x="457.0" y="617" type="line" smooth="yes"/>
      <point x="457.0" y="688"/>
      <point x="415.0" y="731"/>
      <point x="270.0" y="731" type="curve" smooth="yes"/>
      <point x="125.0" y="731"/>
      <point x="81.0" y="688"/>
      <point x="81.0" y="617" type="curve" smooth="yes"/>
      <point x="81.0" y="576" type="line" smooth="yes"/>
      <point x="81.0" y="539"/>
      <point x="91.0" y="512"/>
      <point x="123.0" y="498" type="curve"/>
      <point x="80.0" y="489"/>
      <point x="47.0" y="454"/>
      <point x="47.0" y="386" type="curve" smooth="yes"/>
      <point x="47.0" y="316" type="line" smooth="yes"/>
      <point x="47.0" y="242"/>
      <point x="96.0" y="191"/>
      <point x="269.0" y="191" type="curve" smooth="yes"/>
      <point x="443.0" y="191"/>
      <point x="491.0" y="242"/>
      <point x="491.0" y="316" type="curve" smooth="yes"/>
    </contour>
    <contour>
      <point x="224.0" y="548" type="curve"/>
      <point x="224.0" y="579" type="line" smooth="yes"/>
      <point x="224.0" y="594"/>
      <point x="229.0" y="605"/>
      <point x="269.0" y="605" type="curve" smooth="yes"/>
      <point x="310.0" y="605"/>
      <point x="314.0" y="594"/>
      <point x="314.0" y="579" type="curve" smooth="yes"/>
      <point x="314.0" y="548" type="line" smooth="yes"/>
      <point x="314.0" y="532"/>
      <point x="310.0" y="521"/>
      <point x="269.0" y="521" type="curve" smooth="yes"/>
      <point x="229.0" y="521"/>
      <point x="224.0" y="532"/>
    </contour>
    <contour>
      <point x="206.0" y="344" type="curve" smooth="yes"/>
      <point x="206.0" y="382" type="line" smooth="yes"/>
      <point x="206.0" y="396"/>
      <point x="217.0" y="408"/>
      <point x="269.0" y="408" type="curve" smooth="yes"/>
      <point x="322.0" y="408"/>
      <point x="332.0" y="396"/>
      <point x="332.0" y="382" type="curve" smooth="yes"/>
      <point x="332.0" y="344" type="line" smooth="yes"/>
      <point x="332.0" y="329"/>
      <point x="322.0" y="317"/>
      <point x="269.0" y="317" type="curve" smooth="yes"/>
      <point x="217.0" y="317"/>
      <point x="206.0" y="329"/>
    </contour>
  </outline>
</glyph>
<glyph name="nine.sups" format="1">
  <advance width="528"/>
  <unicode hex="2079"/>
  <outline>
    <contour>
      <point x="293.0" y="202" type="line" smooth="yes"/>
      <point x="429.0" y="202"/>
      <point x="470.0" y="262"/>
      <point x="470.0" y="350" type="curve" smooth="yes"/>
      <point x="470.0" y="586" type="line" smooth="yes"/>
      <point x="470.0" y="674"/>
      <point x="431.0" y="731"/>
      <point x="254.0" y="731" type="curve" smooth="yes"/>
      <point x="89.0" y="731"/>
      <point x="47.0" y="674"/>
      <point x="47.0" y="586" type="curve" smooth="yes"/>
      <point x="47.0" y="517" type="line" smooth="yes"/>
      <point x="47.0" y="431"/>
      <point x="86.0" y="387"/>
      <point x="216.0" y="387" type="curve" smooth="yes"/>
      <point x="254.0" y="387"/>
      <point x="284.0" y="391"/>
      <point x="307.0" y="398" type="curve"/>
      <point x="307.0" y="382" type="line" smooth="yes"/>
      <point x="307.0" y="347"/>
      <point x="297.0" y="339"/>
      <point x="262.0" y="339" type="curve" smooth="yes"/>
      <point x="127.0" y="339" type="line" smooth="yes"/>
      <point x="109.0" y="339"/>
      <point x="102.0" y="331"/>
      <point x="102.0" y="313" type="curve" smooth="yes"/>
      <point x="102.0" y="228" type="line" smooth="yes"/>
      <point x="102.0" y="210"/>
      <point x="109.0" y="202"/>
      <point x="127.0" y="202" type="curve" smooth="yes"/>
    </contour>
    <contour>
      <point x="307.0" y="532" type="line" smooth="yes"/>
      <point x="307.0" y="517"/>
      <point x="301.0" y="506"/>
      <point x="259.0" y="506" type="curve" smooth="yes"/>
      <point x="216.0" y="506"/>
      <point x="210.0" y="517"/>
      <point x="210.0" y="532" type="curve" smooth="yes"/>
      <point x="210.0" y="574" type="line" smooth="yes"/>
      <point x="210.0" y="589"/>
      <point x="216.0" y="601"/>
      <point x="259.0" y="601" type="curve" smooth="yes"/>
      <point x="301.0" y="601"/>
      <point x="307.0" y="589"/>
      <point x="307.0" y="574" type="curve" smooth="yes"/>
    </contour>
  </outline>
</glyph>
<glyph name="colonsign" format="2">
  <advance width="628"/>
  <unicode hex="20A1"/>
  <outline>
    <contour>
      <point x="351.0" y="-14" type="curve" smooth="yes"/>
      <point x="351.0" y="40" type="line"/>
      <point x="404.0" y="40" type="line"/>
      <point x="404.0" y="-14" type="line" smooth="yes"/>
      <point x="404.0" y="-39"/>
      <point x="415.0" y="-50"/>
      <point x="440.0" y="-50" type="curve" smooth="yes"/>
      <point x="465.0" y="-50" type="line" smooth="yes"/>
      <point x="490.0" y="-50"/>
      <point x="501.0" y="-39"/>
      <point x="501.0" y="-14" type="curve" smooth="yes"/>
      <point x="501.0" y="40" type="line"/>
      <point x="548.0" y="40" type="line" smooth="yes"/>
      <point x="573.0" y="40"/>
      <point x="584.0" y="51"/>
      <point x="584.0" y="76" type="curve" smooth="yes"/>
      <point x="584.0" y="195" type="line" smooth="yes"/>
      <point x="584.0" y="220"/>
      <point x="573.0" y="231"/>
      <point x="548.0" y="231" type="curve" smooth="yes"/>
      <point x="347.0" y="231" type="line" smooth="yes"/>
      <point x="295.0" y="231"/>
      <point x="286.0" y="251"/>
      <point x="286.0" y="279" type="curve" smooth="yes"/>
      <point x="286.0" y="437" type="line" smooth="yes"/>
      <point x="286.0" y="463"/>
      <point x="295.0" y="487"/>
      <point x="347.0" y="487" type="curve" smooth="yes"/>
      <point x="548.0" y="487" type="line" smooth="yes"/>
      <point x="573.0" y="487"/>
      <point x="584.0" y="498"/>
      <point x="584.0" y="523" type="curve" smooth="yes"/>
      <point x="584.0" y="644" type="line" smooth="yes"/>
      <point x="584.0" y="669"/>
      <point x="573.0" y="680"/>
      <point x="548.0" y="680" type="curve" smooth="yes"/>
      <point x="501.0" y="680" type="line"/>
      <point x="501.0" y="734" type="line" smooth="yes"/>
      <point x="501.0" y="759"/>
      <point x="490.0" y="770"/>
      <point x="465.0" y="770" type="curve" smooth="yes"/>
      <point x="440.0" y="770" type="line" smooth="yes"/>
      <point x="415.0" y="770"/>
      <point x="404.0" y="759"/>
      <point x="404.0" y="734" type="curve" smooth="yes"/>
      <point x="404.0" y="680" type="line"/>
      <point x="351.0" y="680" type="line"/>
      <point x="351.0" y="734" type="line" smooth="yes"/>
      <point x="351.0" y="759"/>
      <point x="340.0" y="770"/>
      <point x="315.0" y="770" type="curve" smooth="yes"/>
      <point x="290.0" y="770" type="line" smooth="yes"/>
      <point x="265.0" y="770"/>
      <point x="254.0" y="759"/>
      <point x="254.0" y="734" type="curve" smooth="yes"/>
      <point x="254.0" y="678" type="line"/>
      <point x="105.0" y="664"/>
      <point x="58.0" y="585"/>
      <point x="58.0" y="475" type="curve" smooth="yes"/>
      <point x="58.0" y="244" type="line" smooth="yes"/>
      <point x="58.0" y="134"/>
      <point x="105.0" y="56"/>
      <point x="254.0" y="42" type="curve"/>
      <point x="254.0" y="-14" type="line" smooth="yes"/>
      <point x="254.0" y="-39"/>
      <point x="265.0" y="-50"/>
      <point x="290.0" y="-50" type="curve" smooth="yes"/>
      <point x="315.0" y="-50" type="line" smooth="yes"/>
      <point x="340.0" y="-50"/>
      <point x="351.0" y="-39"/>
    </contour>
  </outline>
</glyph>
<glyph name="lira" format="1">
  <advance width="695"/>
  <unicode hex="20A4"/>
  <outline>
    <contour>
      <point x="650.0" y="36" type="curve" smooth="yes"/>
      <point x="650.0" y="291" type="line" smooth="yes"/>
      <point x="650.0" y="316"/>
      <point x="639.0" y="327"/>
      <point x="614.0" y="327" type="curve" smooth="yes"/>
      <point x="469.0" y="327" type="line" smooth="yes"/>
      <point x="444.0" y="327"/>
      <point x="433.0" y="316"/>
      <point x="433.0" y="291" type="curve" smooth="yes"/>
      <point x="433.0" y="189" type="line"/>
      <point x="296.0" y="189" type="line"/>
      <point x="296.0" y="235" type="line"/>
      <point x="344.0" y="235" type="line" smooth="yes"/>
      <point x="369.0" y="235"/>
      <point x="380.0" y="245"/>
      <point x="380.0" y="271" type="curve" smooth="yes"/>
      <point x="380.0" y="298" type="line" smooth="yes"/>
      <point x="380.0" y="324"/>
      <point x="369.0" y="334"/>
      <point x="344.0" y="334" type="curve" smooth="yes"/>
      <point x="296.0" y="334" type="line"/>
      <point x="296.0" y="375" type="line"/>
      <point x="344.0" y="375" type="line" smooth="yes"/>
      <point x="369.0" y="375"/>
      <point x="380.0" y="385"/>
      <point x="380.0" y="411" type="curve" smooth="yes"/>
      <point x="380.0" y="438" type="line" smooth="yes"/>
      <point x="380.0" y="464"/>
      <point x="369.0" y="474"/>
      <point x="344.0" y="474" type="curve" smooth="yes"/>
      <point x="296.0" y="474" type="line"/>
      <point x="296.0" y="477" type="line" smooth="yes"/>
      <point x="296.0" y="503"/>
      <point x="305.0" y="527"/>
      <point x="357.0" y="527" type="curve" smooth="yes"/>
      <point x="505.0" y="527" type="line" smooth="yes"/>
      <point x="530.0" y="527"/>
      <point x="541.0" y="538"/>
      <point x="541.0" y="563" type="curve" smooth="yes"/>
      <point x="541.0" y="684" type="line" smooth="yes"/>
      <point x="541.0" y="709"/>
      <point x="530.0" y="720"/>
      <point x="505.0" y="720" type="curve" smooth="yes"/>
      <point x="315.0" y="720" type="line" smooth="yes"/>
      <point x="126.0" y="720"/>
      <point x="69.0" y="637"/>
      <point x="69.0" y="516" type="curve"/>
      <point x="69.0" y="474" type="line"/>
      <point x="56.0" y="474" type="line" smooth="yes"/>
      <point x="31.0" y="474"/>
      <point x="20.0" y="463"/>
      <point x="20.0" y="438" type="curve" smooth="yes"/>
      <point x="20.0" y="411" type="line" smooth="yes"/>
      <point x="20.0" y="385"/>
      <point x="31.0" y="375"/>
      <point x="56.0" y="375" type="curve"/>
      <point x="69.0" y="375" type="line"/>
      <point x="69.0" y="334" type="line"/>
      <point x="56.0" y="334" type="line" smooth="yes"/>
      <point x="31.0" y="334"/>
      <point x="20.0" y="323"/>
      <point x="20.0" y="298" type="curve" smooth="yes"/>
      <point x="20.0" y="271" type="line" smooth="yes"/>
      <point x="20.0" y="245"/>
      <point x="31.0" y="235"/>
      <point x="56.0" y="235" type="curve"/>
      <point x="69.0" y="235" type="line"/>
      <point x="69.0" y="36" type="line"/>
      <point x="69.0" y="11"/>
      <point x="80.0" y="0"/>
      <point x="105.0" y="0" type="curve" smooth="yes"/>
      <point x="614.0" y="0" type="line" smooth="yes"/>
      <point x="639.0" y="0"/>
      <point x="650.0" y="11"/>
    </contour>
  </outline>
</glyph>
<glyph name="naira" format="1">
  <advance width="753"/>
  <unicode hex="20A6"/>
  <outline>
    <contour>
      <point x="291.0" y="36" type="curve" smooth="yes"/>
      <point x="291.0" y="366" type="line"/>
      <point x="462.0" y="159" type="line"/>
      <point x="462.0" y="36" type="line" smooth="yes"/>
      <point x="462.0" y="11"/>
      <point x="473.0" y="0"/>
      <point x="498.0" y="0" type="curve" smooth="yes"/>
      <point x="648.0" y="0" type="line" smooth="yes"/>
      <point x="673.0" y="0"/>
      <point x="684.0" y="11"/>
      <point x="684.0" y="36" type="curve" smooth="yes"/>
      <point x="684.0" y="235" type="line"/>
      <point x="697.0" y="235" type="line" smooth="yes"/>
      <point x="722.0" y="235"/>
      <point x="733.0" y="245"/>
      <point x="733.0" y="271" type="curve" smooth="yes"/>
      <point x="733.0" y="298" type="line" smooth="yes"/>
      <point x="733.0" y="324"/>
      <point x="722.0" y="334"/>
      <point x="697.0" y="334" type="curve" smooth="yes"/>
      <point x="684.0" y="334" type="line"/>
      <point x="684.0" y="375" type="line"/>
      <point x="697.0" y="375" type="line" smooth="yes"/>
      <point x="722.0" y="375"/>
      <point x="733.0" y="385"/>
      <point x="733.0" y="411" type="curve" smooth="yes"/>
      <point x="733.0" y="438" type="line" smooth="yes"/>
      <point x="733.0" y="464"/>
      <point x="722.0" y="474"/>
      <point x="697.0" y="474" type="curve" smooth="yes"/>
      <point x="684.0" y="474" type="line"/>
      <point x="684.0" y="684" type="line" smooth="yes"/>
      <point x="684.0" y="709"/>
      <point x="673.0" y="720"/>
      <point x="648.0" y="720" type="curve" smooth="yes"/>
      <point x="498.0" y="720" type="line" smooth="yes"/>
      <point x="473.0" y="720"/>
      <point x="462.0" y="709"/>
      <point x="462.0" y="684" type="curve" smooth="yes"/>
      <point x="462.0" y="471" type="line"/>
      <point x="268.0" y="693" type="line" smooth="yes"/>
      <point x="251.0" y="713"/>
      <point x="235.0" y="720"/>
      <point x="209.0" y="720" type="curve" smooth="yes"/>
      <point x="105.0" y="720" type="line" smooth="yes"/>
      <point x="80.0" y="720"/>
      <point x="69.0" y="709"/>
      <point x="69.0" y="684" type="curve" smooth="yes"/>
      <point x="69.0" y="474" type="line"/>
      <point x="56.0" y="474" type="line" smooth="yes"/>
      <point x="31.0" y="474"/>
      <point x="20.0" y="463"/>
      <point x="20.0" y="438" type="curve" smooth="yes"/>
      <point x="20.0" y="411" type="line" smooth="yes"/>
      <point x="20.0" y="385"/>
      <point x="31.0" y="375"/>
      <point x="56.0" y="375" type="curve"/>
      <point x="69.0" y="375" type="line"/>
      <point x="69.0" y="334" type="line"/>
      <point x="56.0" y="334" type="line" smooth="yes"/>
      <point x="31.0" y="334"/>
      <point x="20.0" y="323"/>
      <point x="20.0" y="298" type="curve" smooth="yes"/>
      <point x="20.0" y="271" type="line" smooth="yes"/>
      <point x="20.0" y="245"/>
      <point x="31.0" y="235"/>
      <point x="56.0" y="235" type="curve"/>
      <point x="69.0" y="235" type="line"/>
      <point x="69.0" y="36" type="line" smooth="yes"/>
      <point x="69.0" y="11"/>
      <point x="80.0" y="0"/>
      <point x="105.0" y="0" type="curve" smooth="yes"/>
      <point x="255.0" y="0" type="line" smooth="yes"/>
      <point x="280.0" y="0"/>
      <point x="291.0" y="11"/>
    </contour>
  </outline>
</glyph>
<glyph name="peseta" format="2">
  <advance width="712"/>
  <unicode hex="20A7"/>
  <outline>
    <contour>
      <point x="294.0" y="533" type="line"/>
      <point x="384.0" y="533" type="line" smooth="yes"/>
      <point x="423.0" y="533"/>
      <point x="431.0" y="510"/>
      <point x="431.0" y="484" type="curve" smooth="yes"/>
      <point x="431.0" y="431" type="line" smooth="yes"/>
      <point x="431.0" y="405"/>
      <point x="423.0" y="382"/>
      <point x="384.0" y="382" type="curve" smooth="yes"/>
      <point x="294.0" y="382" type="line"/>
    </contour>
    <contour>
      <point x="296.0" y="36" type="curve" smooth="yes"/>
      <point x="296.0" y="202" type="line"/>
      <point x="411.0" y="202" type="line" smooth="yes"/>
      <point x="589.0" y="202"/>
      <point x="644.0" y="277"/>
      <point x="647.0" y="389" type="curve"/>
      <point x="664.0" y="389" type="line" smooth="yes"/>
      <point x="689.0" y="389"/>
      <point x="700.0" y="399"/>
      <point x="700.0" y="425" type="curve" smooth="yes"/>
      <point x="700.0" y="492" type="line" smooth="yes"/>
      <point x="700.0" y="518"/>
      <point x="689.0" y="528"/>
      <point x="664.0" y="528" type="curve" smooth="yes"/>
      <point x="647.0" y="528" type="line"/>
      <point x="647.0" y="641"/>
      <point x="593.0" y="720"/>
      <point x="411.0" y="720" type="curve" smooth="yes"/>
      <point x="105.0" y="720" type="line" smooth="yes"/>
      <point x="80.0" y="720"/>
      <point x="69.0" y="709"/>
      <point x="69.0" y="684" type="curve" smooth="yes"/>
      <point x="69.0" y="528" type="line"/>
      <point x="56.0" y="528" type="line" smooth="yes"/>
      <point x="31.0" y="528"/>
      <point x="20.0" y="517"/>
      <point x="20.0" y="492" type="curve" smooth="yes"/>
      <point x="20.0" y="425" type="line" smooth="yes"/>
      <point x="20.0" y="399"/>
      <point x="31.0" y="389"/>
      <point x="56.0" y="389" type="curve"/>
      <point x="69.0" y="389" type="line"/>
      <point x="69.0" y="36" type="line" smooth="yes"/>
      <point x="69.0" y="11"/>
      <point x="80.0" y="0"/>
      <point x="105.0" y="0" type="curve" smooth="yes"/>
      <point x="260.0" y="0" type="line" smooth="yes"/>
      <point x="285.0" y="0"/>
      <point x="296.0" y="11"/>
    </contour>
  </outline>
</glyph>
<glyph name="Euro" format="2">
  <advance width="648"/>
  <unicode hex="20AC"/>
  <outline>
    <contour>
      <point x="604.0" y="36" type="curve" smooth="yes"/>
      <point x="604.0" y="145" type="line" smooth="yes"/>
      <point x="604.0" y="170"/>
      <point x="593.0" y="181"/>
      <point x="568.0" y="181" type="curve" smooth="yes"/>
      <point x="357.0" y="181" type="line" smooth="yes"/>
      <point x="312.0" y="181"/>
      <point x="299.0" y="196"/>
      <point x="296.0" y="219" type="curve"/>
      <point x="476.0" y="219" type="line" smooth="yes"/>
      <point x="493.0" y="219"/>
      <point x="500.0" y="223"/>
      <point x="500.0" y="242" type="curve" smooth="yes"/>
      <point x="500.0" y="314" type="line" smooth="yes"/>
      <point x="500.0" y="333"/>
      <point x="493.0" y="338"/>
      <point x="476.0" y="338" type="curve"/>
      <point x="296.0" y="338" type="line"/>
      <point x="296.0" y="379" type="line"/>
      <point x="476.0" y="379" type="line" smooth="yes"/>
      <point x="493.0" y="379"/>
      <point x="500.0" y="383"/>
      <point x="500.0" y="402" type="curve" smooth="yes"/>
      <point x="500.0" y="474" type="line" smooth="yes"/>
      <point x="500.0" y="493"/>
      <point x="493.0" y="498"/>
      <point x="476.0" y="498" type="curve" smooth="yes"/>
      <point x="297.0" y="498" type="line"/>
      <point x="300.0" y="520"/>
      <point x="313.0" y="537"/>
      <point x="357.0" y="537" type="curve" smooth="yes"/>
      <point x="568.0" y="537" type="line" smooth="yes"/>
      <point x="593.0" y="537"/>
      <point x="604.0" y="548"/>
      <point x="604.0" y="573" type="curve" smooth="yes"/>
      <point x="604.0" y="684" type="line" smooth="yes"/>
      <point x="604.0" y="709"/>
      <point x="593.0" y="720"/>
      <point x="568.0" y="720" type="curve" smooth="yes"/>
      <point x="324.0" y="720" type="line" smooth="yes"/>
      <point x="135.0" y="720"/>
      <point x="78.0" y="637"/>
      <point x="78.0" y="515" type="curve" smooth="yes"/>
      <point x="78.0" y="498" type="line"/>
      <point x="64.0" y="498" type="line" smooth="yes"/>
      <point x="47.0" y="498"/>
      <point x="40.0" y="493"/>
      <point x="40.0" y="474" type="curve" smooth="yes"/>
      <point x="40.0" y="402" type="line" smooth="yes"/>
      <point x="40.0" y="383"/>
      <point x="47.0" y="379"/>
      <point x="64.0" y="379" type="curve"/>
      <point x="78.0" y="379" type="line"/>
      <point x="78.0" y="338" type="line"/>
      <point x="64.0" y="338" type="line" smooth="yes"/>
      <point x="47.0" y="338"/>
      <point x="40.0" y="333"/>
      <point x="40.0" y="314" type="curve" smooth="yes"/>
      <point x="40.0" y="242" type="line" smooth="yes"/>
      <point x="40.0" y="223"/>
      <point x="47.0" y="219"/>
      <point x="64.0" y="219" type="curve"/>
      <point x="78.0" y="219" type="line"/>
      <point x="78.0" y="204" type="line" smooth="yes"/>
      <point x="78.0" y="83"/>
      <point x="135.0" y="0"/>
      <point x="324.0" y="0" type="curve" smooth="yes"/>
      <point x="568.0" y="0" type="line" smooth="yes"/>
      <point x="593.0" y="0"/>
      <point x="604.0" y="11"/>
    </contour>
  </outline>
</glyph>
<glyph name="peso" format="2">
  <advance width="712"/>
  <unicode hex="20B1"/>
  <outline>
    <contour>
      <point x="294.0" y="533" type="line"/>
      <point x="384.0" y="533" type="line" smooth="yes"/>
      <point x="423.0" y="533"/>
      <point x="431.0" y="510"/>
      <point x="431.0" y="484" type="curve" smooth="yes"/>
      <point x="431.0" y="431" type="line" smooth="yes"/>
      <point x="431.0" y="405"/>
      <point x="423.0" y="382"/>
      <point x="384.0" y="382" type="curve" smooth="yes"/>
      <point x="294.0" y="382" type="line"/>
    </contour>
    <contour>
      <point x="296.0" y="36" type="curve" smooth="yes"/>
      <point x="296.0" y="202" type="line"/>
      <point x="411.0" y="202" type="line" smooth="yes"/>
      <point x="552.0" y="202"/>
      <point x="616.0" y="250"/>
      <point x="638.0" y="325" type="curve"/>
      <point x="664.0" y="325" type="line" smooth="yes"/>
      <point x="689.0" y="325"/>
      <point x="700.0" y="335"/>
      <point x="700.0" y="361" type="curve" smooth="yes"/>
      <point x="700.0" y="388" type="line" smooth="yes"/>
      <point x="700.0" y="414"/>
      <point x="689.0" y="424"/>
      <point x="664.0" y="424" type="curve" smooth="yes"/>
      <point x="647.0" y="424" type="line"/>
      <point x="647.0" y="465" type="line"/>
      <point x="664.0" y="465" type="line" smooth="yes"/>
      <point x="689.0" y="465"/>
      <point x="700.0" y="475"/>
      <point x="700.0" y="501" type="curve" smooth="yes"/>
      <point x="700.0" y="528" type="line" smooth="yes"/>
      <point x="700.0" y="554"/>
      <point x="689.0" y="564"/>
      <point x="664.0" y="564" type="curve" smooth="yes"/>
      <point x="645.0" y="564" type="line"/>
      <point x="633.0" y="658"/>
      <point x="572.0" y="720"/>
      <point x="411.0" y="720" type="curve" smooth="yes"/>
      <point x="105.0" y="720" type="line" smooth="yes"/>
      <point x="80.0" y="720"/>
      <point x="69.0" y="709"/>
      <point x="69.0" y="684" type="curve" smooth="yes"/>
      <point x="69.0" y="564" type="line"/>
      <point x="56.0" y="564" type="line" smooth="yes"/>
      <point x="31.0" y="564"/>
      <point x="20.0" y="553"/>
      <point x="20.0" y="528" type="curve" smooth="yes"/>
      <point x="20.0" y="501" type="line" smooth="yes"/>
      <point x="20.0" y="475"/>
      <point x="31.0" y="465"/>
      <point x="56.0" y="465" type="curve"/>
      <point x="69.0" y="465" type="line"/>
      <point x="69.0" y="424" type="line"/>
      <point x="56.0" y="424" type="line" smooth="yes"/>
      <point x="31.0" y="424"/>
      <point x="20.0" y="413"/>
      <point x="20.0" y="388" type="curve" smooth="yes"/>
      <point x="20.0" y="361" type="line" smooth="yes"/>
      <point x="20.0" y="335"/>
      <point x="31.0" y="325"/>
      <point x="56.0" y="325" type="curve"/>
      <point x="69.0" y="325" type="line"/>
      <point x="69.0" y="36" type="line" smooth="yes"/>
      <point x="69.0" y="11"/>
      <point x="80.0" y="0"/>
      <point x="105.0" y="0" type="curve" smooth="yes"/>
      <point x="260.0" y="0" type="line" smooth="yes"/>
      <point x="285.0" y="0"/>
      <point x="296.0" y="11"/>
    </contour>
  </outline>
</glyph>
